<mxfile host="app.diagrams.net" agent="Mozilla/5.0 (Windows NT 10.0; Win64; x64) AppleWebKit/537.36 (KHTML, like Gecko) Chrome/130.0.0.0 Safari/537.36" version="24.8.2">
  <diagram name="Page-1" id="QdA-NSiU8ETCgmIaB3Xl">
    <mxGraphModel dx="2109" dy="686" grid="1" gridSize="10" guides="1" tooltips="1" connect="1" arrows="1" fold="1" page="1" pageScale="1" pageWidth="850" pageHeight="1100" math="0" shadow="0">
      <root>
        <mxCell id="0" />
        <mxCell id="1" parent="0" />
        <mxCell id="Q2nGS0bZSRsdVv5VAE-j-7" style="edgeStyle=orthogonalEdgeStyle;rounded=0;orthogonalLoop=1;jettySize=auto;html=1;flowAnimation=1;" parent="1" source="Q2nGS0bZSRsdVv5VAE-j-1" target="Q2nGS0bZSRsdVv5VAE-j-4" edge="1">
          <mxGeometry relative="1" as="geometry" />
        </mxCell>
        <mxCell id="Q2nGS0bZSRsdVv5VAE-j-1" value="Control Plane" style="sketch=0;outlineConnect=0;fontColor=#232F3E;gradientColor=none;strokeColor=#ffffff;fillColor=#232F3E;dashed=0;verticalLabelPosition=middle;verticalAlign=bottom;align=center;html=1;whiteSpace=wrap;fontSize=10;fontStyle=1;spacing=3;shape=mxgraph.aws4.productIcon;prIcon=mxgraph.aws4.eks;" parent="1" vertex="1">
          <mxGeometry x="360" y="230" width="130" height="150" as="geometry" />
        </mxCell>
        <mxCell id="Q2nGS0bZSRsdVv5VAE-j-3" value="" style="sketch=0;points=[[0,0,0],[0.25,0,0],[0.5,0,0],[0.75,0,0],[1,0,0],[0,1,0],[0.25,1,0],[0.5,1,0],[0.75,1,0],[1,1,0],[0,0.25,0],[0,0.5,0],[0,0.75,0],[1,0.25,0],[1,0.5,0],[1,0.75,0]];outlineConnect=0;fontColor=#232F3E;fillColor=#ED7100;strokeColor=#ffffff;dashed=0;verticalLabelPosition=bottom;verticalAlign=top;align=center;html=1;fontSize=12;fontStyle=0;aspect=fixed;shape=mxgraph.aws4.resourceIcon;resIcon=mxgraph.aws4.ec2;" parent="1" vertex="1">
          <mxGeometry x="630" y="140" width="78" height="78" as="geometry" />
        </mxCell>
        <mxCell id="Q2nGS0bZSRsdVv5VAE-j-4" value="" style="sketch=0;points=[[0,0,0],[0.25,0,0],[0.5,0,0],[0.75,0,0],[1,0,0],[0,1,0],[0.25,1,0],[0.5,1,0],[0.75,1,0],[1,1,0],[0,0.25,0],[0,0.5,0],[0,0.75,0],[1,0.25,0],[1,0.5,0],[1,0.75,0]];outlineConnect=0;fontColor=#232F3E;fillColor=#ED7100;strokeColor=#ffffff;dashed=0;verticalLabelPosition=bottom;verticalAlign=top;align=center;html=1;fontSize=12;fontStyle=0;aspect=fixed;shape=mxgraph.aws4.resourceIcon;resIcon=mxgraph.aws4.ec2;" parent="1" vertex="1">
          <mxGeometry x="630" y="266" width="78" height="78" as="geometry" />
        </mxCell>
        <mxCell id="Q2nGS0bZSRsdVv5VAE-j-5" value="" style="sketch=0;points=[[0,0,0],[0.25,0,0],[0.5,0,0],[0.75,0,0],[1,0,0],[0,1,0],[0.25,1,0],[0.5,1,0],[0.75,1,0],[1,1,0],[0,0.25,0],[0,0.5,0],[0,0.75,0],[1,0.25,0],[1,0.5,0],[1,0.75,0]];outlineConnect=0;fontColor=#232F3E;fillColor=#ED7100;strokeColor=#ffffff;dashed=0;verticalLabelPosition=bottom;verticalAlign=top;align=center;html=1;fontSize=12;fontStyle=0;aspect=fixed;shape=mxgraph.aws4.resourceIcon;resIcon=mxgraph.aws4.ec2;" parent="1" vertex="1">
          <mxGeometry x="630" y="420" width="78" height="78" as="geometry" />
        </mxCell>
        <mxCell id="Q2nGS0bZSRsdVv5VAE-j-6" style="edgeStyle=orthogonalEdgeStyle;rounded=0;orthogonalLoop=1;jettySize=auto;html=1;entryX=0;entryY=0.5;entryDx=0;entryDy=0;entryPerimeter=0;flowAnimation=1;" parent="1" source="Q2nGS0bZSRsdVv5VAE-j-1" target="Q2nGS0bZSRsdVv5VAE-j-3" edge="1">
          <mxGeometry relative="1" as="geometry" />
        </mxCell>
        <mxCell id="Q2nGS0bZSRsdVv5VAE-j-8" style="edgeStyle=orthogonalEdgeStyle;rounded=0;orthogonalLoop=1;jettySize=auto;html=1;entryX=0;entryY=0.5;entryDx=0;entryDy=0;entryPerimeter=0;flowAnimation=1;" parent="1" source="Q2nGS0bZSRsdVv5VAE-j-1" target="Q2nGS0bZSRsdVv5VAE-j-5" edge="1">
          <mxGeometry relative="1" as="geometry" />
        </mxCell>
        <mxCell id="Q2nGS0bZSRsdVv5VAE-j-9" value="" style="sketch=0;aspect=fixed;pointerEvents=1;shadow=0;dashed=0;html=1;strokeColor=none;labelPosition=center;verticalLabelPosition=bottom;verticalAlign=top;align=center;fillColor=#00188D;shape=mxgraph.azure.laptop" parent="1" vertex="1">
          <mxGeometry x="-350" y="210" width="369.99" height="222" as="geometry" />
        </mxCell>
        <mxCell id="Q2nGS0bZSRsdVv5VAE-j-10" value="" style="shape=image;verticalLabelPosition=bottom;labelBackgroundColor=default;verticalAlign=top;aspect=fixed;imageAspect=0;image=data:image/png,iVBORw0KGgoAAAANSUhEUgAAAOgAAADjCAYAAACPbli7AAAAAXNSR0IArs4c6QAAAARnQU1BAACxjwv8YQUAAAAJcEhZcwAADsMAAA7DAcdvqGQAAJIrSURBVHhe7P1XmGTHlecJ/o6ZXeHuoVICSIiEIgiCAtRFUayuIkuwdHWxurenWnwtZrp7p9i9Pbvf9L71V/vQ77v7tN+smOnZnerqrmIJsqiLmgQJgpCZABIyBVKrkO5+hZmdfbDrEZGRCWSATCAF4p+fhYdfz3D3e6/97Rw7Uvbu3at0+A//4T/wh3/4h5OnW9jCTw1VCBFCGzDiyZyAAWKgGjdEFbK8ZLG17Duzwg+eP8R3j5zkwChyJhTgcxgCUrKtP0N/bkCzzZGVJaZ0IB58TeYrtlnYu22W2+Zm+MCU8HNFRZFZepmhcEJmwIqCRlQhqmIFxAoIIAYEIuk1VJDJMIKYjWf35kEmBP3MZz7Df/yP/3Hj61vYwk8F1bVhNCASExmAxkeaaAiS8cODy/xP3znECyfO8spyTW172N6AnnVkw2Wmq2Vm1WNmc6qbZ9DegDAzR+jPElyPGHKkEXoB+sDtA3jHTS33bs947w7YW9TMMgLfghdivg3vHKKQhSotGsakR4T0ixACxAjGCNZ2X/wqYJWg3/72t7n55ps3vr6FLfxUCAG8hzwHUYi+QREkz6iAE0tw4NBx/uapE/zp/hExOsSVmCxDJeL9Cr49A7JAZitMO0DrW3CzM5S37GZw0w6K6SmMBaqWrK7JfWBsYVTCHf3I+7cFPjCnvHPOsLefMeUKoKAJQARDi2oEAsYoxlrEOMCgGLTTLc3V4yd2bm7ujz/zmc/wu7/7uxtf28IWLgmdzNzXgCooirMCqgQVWusYGzhRwUMvnOOrjx7gh0fPcHaqR97PyS3QNMRqSPAVmgGDnNgvCGFANpwiLwcM5ubIZwbE3DBmzFJcoslq4ozSDiwjMcyPK44u1hxZiRyvcxZin1YKokbwFWIEk2dgHMa6VTVWSCqvkNTfxM3Ln6/IG8NiOzc398d/9Ed/xN13373xtS1s4SKo6qYIiiTNURI/CcYwUji6DD85tMK3nnmFhw+d5dCoJfYEJaBthTRjbGwpjaHISlQtoQKCIKVQm5ratHgTMM6QZRZnLSIWxGIQckAlZ6w9zjYFx1eEV5ZaTg1rht7TOEFsQWYgmqTGilhkQkQFVQGdkG4T5/sGkdTOzc398b//9/+eqampja9tYQuXxGYIqkSUiJHE1JGHo4stj718hq898RI/PjLP0aYgmBLaluiV4FvAYy1YZ7DWoHWgHXmQiE41xGoRXw9RYJCVzOXTTNk+zjukFlyjDKJQ2gEuK2i0YLGOnFqpODGsOOeFkzGj8dCrIUSDc2ANWBGESIwBjYKmjWnShzeBN4KgsnfvXn366aex1m58bQtbuAiqSgyhkymvJmEUHxp8aOj3pmjVcejMEj86cJSvPnmQ77x8nvNmDmZvAdcnH1WIU4Kr8FJBHEPwEBXEAhbjlayt8K1SFNNs23kT23beTG9uDu8sjUaiKBaDC5agkYZIdJZoDdEJLYG6rWl8zfvtkN+Zbrh1+wx33jTLLTMlMzlkRDS0BDWI2E6IKqDpbFVRFBBEBO1IaUUwk82qklSHDUh/9foge/fu1QMHDmw8voUtrErKCySDdgJFFYwQBXxUQmzIM4MlEkODiR6MwdsZnjxV8bV9x/jG06+w7+gCy+JwZR81QlBQLAIoATSuG6QP02RoIijqA9ZmTO3czuyemxns3IG3hlC3FGIwYvBrmirI2iPdOSnKct5Q92r2howPmj4fGwz40By8bRtID8gbKp2n0gI1cxQGnK+J9ZjoWxSL6Q3QvMADJZDHlaQzRwcmWyOpgDfgFSyQvQ6WbhF0C5fEejX2ItUtgm9bRBRjDYgSYwCbpEqn3DIOhicPneGbzxzjhwfnee5cy7nW4V2OsYIRRTUS4oQ9E2Imn+XqMRRRSQQNAWMcUzu2M3PrTQx278AbQ6haSjFYsbQXSfSLYUUSUWLASGA2i+zpwb3TlnfOGN45l3NbaSldSzQtmAxPRoyWqAYBrIVMIm1bYQScyyAKUaVbEZL7RiaLhHZu19dB0Kvogt3C9YL1ZFUgkGaOlYDQINogsUGj4slpKDheZXz3lSFffPoo33jmKM+cGrKoBdqfA1MQAwQ1IG79R702JE184VV0xVX18/IoGpheFox3nMewLwb+djzkc+fO819OLPA3xyq+dVJ5cSlS+ZpGA1GSuqwda2zwSKzJY4VTCGR442itpbaGxka8BCIeow1GGyRdvU1ji6BbuAivZQSKCi1gMgMOwENo0BgI4hgpnKng8WMrfO7Jw3zzxTMcWPDMU9IWU5AXiV0hokGT6rpJrEmfdezUNbV1IqU2g1oii8ZTGQFTYhnQ+ClOjkueWDB8/nTN/3xihc+dqHjkHDy/LJxvlNYHrK/I2iWsH6ZohqwEWyLrbElpJ6AEAkoL2kJsIW4RdAtXABN3ykayRsCv0iFA9EkNNY5gHKfH8OSREV9/6hBfeeogLyx5xr1ZmJqFPE9+SCKI4mIDob3g/TcL6Yw0Py2qvmVhV0HVE8oAOyvLLeMe25s52jDHAV/yjRr+fyeV/+kZ+OuDgX1nK5bHQ/I4wpkaTATJqU2fqAbTKK5VMgIOjyFiEAwOyCBmoOaCa/tq13mCrT3oFi7Aq00WkUSIQJKgfryC9TV5ZjF5QWV6nPbw0IElvvPECzx85BQvRkvUtGcjCojBGktpBBsaYlvRRKFxZfqQy+xBJUL0HmsyBju3MbPnJga7dtAaIdQtJWkP6jfBW8kFyRTfRKgViQaRFLSgmaM1SitK04BtIjebEe/uDXnf9sC7d2Tcva3PtplpPIIHpiOYqkqLlolEZ1DnEDIUg+nWMwVUwgWLy+T3Sy04WwTdwiomxNz4OCFn94Sgyni4gnMukVMMx1bgJwfP871njvLYi8d4ZeipZmZo2zbpxSo4MTgBox4TAqKRViyV2RxBNSj4gLGXMBKtI+hmjESqHtUaYyzWZFhxCBbUpK8bko7gs4LWAeOafrPMTa5l78By7/ace3bk3DpXsH1gucnCVOhiCJk8ChFHJEuB+J3KamVNzd1Izo0k3SLoFlaxnpjrpegFk0cVQqAJES0KRgqHl+AnB8/w7X2HeObEEseXGoZYtFcQ2zZZTK3FiqDe09RjiOCcJdqMZmIoeg2CpnkfwcdE0J3bmbn1Zga7dxI6N0uP5LtsJ3/7Gpi4dKwxODFIVGJUNKSMFjEGYyxkjmCFqlYaD05hykR2upbbBy33zCm3zVjuniu4fVDSt8KUhUIDEkIynKmllYxgwQlk6i+SoK9G0K096BYuwKXU2/UQjUgMFHlBE+HoAjzywim+/tgL/PilkxwdBsb5FLEYEBsFtRhxGOmyRFTwOLzJqUxJK9nGj7g0dC09RrUzCIl0ht1k2RUxm3ZhOFNQuiksOT4I4xAZ+ZaxNrTGE20kuojGMVIt4KgoigzpFSy7HofbnEfPBb55tOaLh0Z88cgy3zq9yOPLFUcbWFaLikHUI3GEyApia5D2ogVw4/P12JKgW1iDKlG1y+JYc1ikyd+RQCPEiErOy8vKd549ylefeJGHD51myfRhZge1ZEQfIQYsEEOD+hY0ItZh85IgLqms6pMlWOk2aRMibpCgoUswbQO4jOldO5i77RYGu3cQrCXWLT2xCIZ6E5bSIjjyJmMsDSuZp84VCkPmDAVCVnmkSoYeteB9TMEJxqHi8Co0MRBFEGuZ0TPcZs9y/65tfOSm7TwwW7Inh2kahJqQGaIxyVjUZKsmaRHBiKwF52+puFu4JDTxBI34zOAFWhRfNwyyglyBqiGijHoFz59r+PJTx/nbZ8/w1Kkho+DIZ6YpqfCjeZq2xedTnUNkTUKkiSiApCVAO98NADH9/wlBu0dVTVZbFWg90u1BZ2+7ORHUdQTFgmyOoOn9uqAo0RTS13EjvZYWCukuzfq/TN/9wiVsjKGJMK0Nt7qGB+YsD+7Kec/ukrtnYE4qRMdQW2hKGiv4LMM6RybJIIymS+ElINKFD17w2Vt46yLGJOWsYFEktFjf0MssMSor44ZaHIuas+/4Mt/bf4ifPH+EV84v05BB0aOpa0bjMYKS566bwmvqKCKoTI52M3ITBp0JOqGz6gVd9aGue5tNarjpG0iKIRTAaCKJiSCxWziQLgJ3/Uh/PQmlT0OZVsdOelhyTgfDY8OKr55Z5C+PnOMrh5d57CQcOz9FXQ/AOYyzqARabbsgCE2BRwI5Fte5Y7YIugXohGdlIhhF8OS+Jm9r8hgxRmiznFMtPHl6mW88e5LvPn2EA0fPsjKuyZwhc0Azwtc10WSYrLPMXjFM/IUXHFn9bcLQtWNvLhyBAk/pBOMcy63l5YXAw8fGfPXQmC8eVb50uuTHy44TrbJiM6LLsSb9rVHfJQgEYoydv3jLSLSFDmrAZxaPh9giGnAhQuvBwNjB02eX+dozR/jagTM8enyF48PAOCjSOeZTmQIhmIzwekL4fip0ROwYmzTSieR789EYz9jWBIk4HDaUtFWfMys99s/nfP2c4XNnlT8/PearZ1Z4cjlwrhFCm+GCS37iGPB4RtrQdCGBW3vQtxhezVroRagBaVcYxIlH3RCkYKnMeeJU5Es/3sc397/CCytT3QqvGFGMTYYSrCOS/KQpp/Lye0G0cxDCZfagIFHAB8TYtAe99Sb6N+0kOkuoOiORGOpNuFmuNLxRgoALQhYFlzyeeAy1gSGRGiUL59gjC7x/+w5+fscc757O2TsQZntAHmlFqQi4KORqtgj6VsN6X+d6eJOMQoQxjCp6tsCU08y38O3nTvKFxw/w9KlFDo8yFv02TL8kk4g2I0I7RkQoej2iWCofUN9J1MthswSdpJz5uErQFKiwc9VIVGIQk3JD32yUZDh1jLRlmZbKQbSGzFpKtRRByVplIQSGoWVXbNkrNfcMAvfdVPKOW6d52+4eO4B+TOcdtlTctzYm/jdVRX2L+iFGLNKfYdif5kgD3z+0yFeefIlHXj7L4cXIWErIHBHFayAIqLEElKppqNvk59u0Q/J1QCfcXTM9TY5esDe9Gmg0MtKAF8FaRyFCETxZU+GaIblWlFnLtqLPtnKWWOzkkJ3ju77gz5dq/uTkPF86usDh8y0sC7SpgMIWQd9CWC8910tQVcXEQO49BqG1OUfG8L2DC/zVEy/wyLFFztFnLH2aIGBaaIeEdkzQiFqLGkfwgdi2iEbMFZ5Z677tmk1o8utVJifACM88Na0J9I1hR7Ts8sJcE8nblhBaxsYTaSkj5AZiOeBcMcdzoc9DC4FvH19h39mG+XpNq7jCl3EL1zo2qrYTsjogB4jCqVHgxy+f5m+eeI6vP3OEw5Ul9HcQsynwgSyugB+Cr0EDKgasA+OSs50UZ3vFcRETL5SiFx57cxElEq1HxJNppFAoseSpCAttFEYBRmGRJp5GwhKDAFOxQNpp5oc9nj8Pjyx6fjiC4z697xZB3wKYTNlVT95EknauC0hhclhLE5QnDrzElx96hO/se4EztTCyfZaqiPcmxa76EYVpsXYixlLtIFOWuDxL0TfRX+Q9/Gnxan+vTM6lCxxYz9M3GXNiuQ3HICrjWHNGGk5lgfnS0eQlmfQZ1AVFHmF2AQ1nyc6fZe5sy+7FjKnxgIVxxsPnV/jzk+d4bGmUSjJtGYlubDQaGGvLLHnKE6tqogTiTJ8awDcMoqE2Ofs8fO/RZ/jeEy/x/KkR86HEuxlqb9Eg5C5HnDLSla5Y1sSRD9DFxU4IC+teS+y5gDur0rCLEAJUU6hfiuLZEOqnXZhNGxFrmNq+Y12wvCM0nj4OMUKtnfh5LXShi1cKk4UorRGazr37ACHVPBEFYyIWTQkvaohi8EArgaARIxFn4Dd2W/7RHVNbEvRGhqpisGRSMm5j0pdKh3EGHY3J2pZMHJWxPD8/4os/OcZ3nz7NsydqzlY5rRkQXYEXxRtPdC3RpdIfirmQgOsCCVKczSan/wWs7Yi6/tAFuIoi8jLQbtvY6SOJsBPLcyfaVRSiQaJDxBGtEI2iJk4CrfAYxkE4tlxzcH60RdAbFRPV1QKlQothmEFbCOoMWavkbUbdWA6cXeSbB47wjceO8/TRhrN1j8rN0GQDKuMIJhJtS2UrWmk2ftQWXgcUJWqKFEq3aELpRGsDGBHODGueW9gi6A2HjRZaiWACuMzgiYzxqeKAS2U6nj895Kv7DvM3Tx7k2WNDTo0zxtkcoZjFuzL93+5NIi0tm1Aft/CqUCCkOvqdDWBtj52kaCLpuSZwYLndIuiNiFXfpmra14WGvvFkvkKrhnEwLBeGp5bhLx4/zOd+fIRHD6/QZBYGPeygh2aWoCHVDBJJBaTVkLaJ69//0uNii+sW6O5N1NhJ0i6LBrraRWsSdFkcR0KKR9rCDYKNJFFV2jBm3JwCP6KvlhmZYsnnfPtYzf/toX38l31HeWF5AL2bMPkQsctEf55Qn4N6EXyLiMNKidMSG9/oGNsbG0pq+TJxQqmuGc+S9EwjZn2WbG+LoDcyVFMKk+25tMvRHudWDA+/eJ4/eWg/X3n+OMfanMrO4skxtkW0gjACP4ZYYwkUYnFY8Ibou7Inlxlb8vNV0BWxnhB13eFkVJo82oxa8y2C3mjQTrWcSFAxDrJpRj7n2FLkh4cX+Pr+V/je/qMsLAUoBmA1VUcnQ0hVCaykIl9WBDQSY0xRQ1uq68+ERM6UFwtp47nK0y7mOD0afDBbBL2RsJGcaWQ0cYqXlw1fO3iGv372CD88eI7lkaWUAQMNoEvAmBhnUJ1GZBprB4gtiAhVaGi1QW3oilVv4adGMtemH+uSz1eXPe3ka1BiG7cIeqPg0pJNCNGyPITHji3yl/te5OsvHeNU67hl153MeENz9gQ5S/RmcsZVn6YZEMKAoD2COnyIEBowHgqQYpP+zZ8KlzqHNbz2q9cHJgW3RUBlUjqlI+b6rYEqxLgVSXStQlUvKiA1Oa6qBDHUkgSaA2LbQvDkRQFqGNWpds/BEfzJM+d54rlDPHP0DGfHipcemCyVOJFAlgvGGup2XaiApEdlEsq3po5dci24FDbzHyebsYnkWJdmtnoM0vMYoU2t6qd2pEii/u6dBGsJlacUixFDe/FluyReT9uJNxupeNtWyZPrFjEEQtvdQI1YSdEow/GYxdrT5I4Xzgz5xqMH+M6+A+w7fIyzKxVBLKbI0NxCZsAaQoi0jQcJqARUUn+y1fW8C+ubcPWNw6u9+frjl/g/Ew6vfrmJHvkaY7VK2LU5pDuTLYJeh1BVRCNZaKGusL5BosdHT6OWFePYf7LhG/sP8839L3PoxFnODUe0CmoNaiQFpknqkaIa0M3Er27hTccWQa9RXEq9pSNnUn2UnolIUyGhIQRPo9DmJcfG8KXHXuDzTx7kyVMVw2gIrgd5gRpD9A1UI/ANxkScA7PVYP2axBZBr2FMyHhJxID4hqxf0LYeLw7605xs4C++/xR/+/Qhnjrbclr6mP4MbmoW6Q1ADDQ11OPUvNaAdQY7ad++hWsKWwS9zjAhrYiBLAcsOthGVQx49kzDn37zMb748NMcXolU/TlCNmA4rPFVmyq5G5t6dJYFlHkqqek9Tbul4l6L2CLodYSJNFVVIoK6gqWYcSYKDx9e4XMPPcvXnjjEOR2wQk4UmwipprOMdtXxjIBNFk/FEIJ0bbO3cK1hi6DXGSYStFVY9HDOCw+9cJ6/evh5vvbUKxwcZtTFHGS91M05NNiiAOMQwBBTQnSMRB8TOcWB2WQToy28qdgi6HWE9XvSNkROVy3Pnlzk8w89yZcfe5Hnl6CZ3sMo5mAsEhvEVxTOpd6cClYVEyP4AK1PHdlNAVmx8eO2cA1gi6DXOlZtN2vGIlVoVTg3bvivX/pbfvjMy5z1OfR242MO0RBXlnGxYSqD0fISfjQktg1Whcw6xNiumrkAFnnDK8Fv4afB64gkigRW0s0kS8YJLOoVGyfzKAUXLpiAWEuXQ0GMDdK2WAK5AWNTO/SoZXLKdi6Fja6FibTYePxGxKr7xANjw7BQmlIQAjkjiuEIm03Tuj4HFhu+8cIZ/vSxM5w5v8DiuKYKQsB2QQUKpNKXRgxBNQUDrWsUuyqNxay7vlewEt864/MFuS264UUE6RoFCZMoohRJpHT1iSblQjRAGxCTMbN9B3N79tDbtRNvLG3TUuCwNtXovTyu8YybLuzvdUhQwZJjyFKxowgxaIontAJW0rtJpDABpzUaa0KoUQWT5UhWEl1JIKMNctmolPUT6kbBa7lOVLuOWyVEExEChkAWBGtKsD1eWqj5znNH+Nq+F3nx1DILjcGbAmMdVlKflBSEAFEFr3rBIrj+80Uk1cPTSWfrjjtXYlxwYhuOv9b/XY9LvTYJMO9eW69gXO7trke8LoLiS8TnmOCw0abkUgPRQmOUSlKH4l6o6Puawje4EDAKisNLTis5jSlp5cLuVzcaES+HVyNpsJGqqImMycYNgzFkbQ/PFM+dG/GN517hq/tf5onDZ/DeE0LqoyJiMNZirUUmVaM1ruu9eZ1j3WlsnClKF8674fiNgM0TVFMD5IkWJJ3QtEBUTxNr6tjQaAttjcRIhiHruh63PtK2gSYk0W1tUq1uRCm5WVyKpEECFSsQKvImYn2O95aXFgNfeOol/urR53n40CLzY0sIqVWdqiICxhiMscmNwmTGXvwZ1zVeRUwql2DuDYDNE5TkTktq7OSAB19hmgoXA0WW0cv7YHppuB6SFTjnyHKLk0gWKrIwpqB5SxJz/TlvPH8RQUOL90sMsoysP8A7eG4F/urZg/xvP3mG7794muVminJqzyo5N+6mJilNq0HuNwCEdRUH1k/BifTs7F1XcBd9TWDTBFWBkIEXCKGBZhn8CGiTCV8KRHNaLEf8FM8NHU/PB15chDNNahDrsoxepmRxCNV59I1oD3Ad4FJaw+SYU0OvcRjTZ0XgoVMt/+nR/fzJU8/x/Figv4sy207e5phOldUYCSGsjknz12Ql2vQtvqaxSsxLSE9eXbBe99i0FVdJhck1eoyvcfjUE1IyllvL6WHgzHLL+SpyrIVRVdM0DZkIc4Ocm6czbu7DzQPYUSiZKFFm4DXU3LeSFRcgJssbGlrOtz0ePTni68+/wtdfOMgL80uQTZPFWbJxjrYen4/S362Totq1mV9/TS+lSr+ZuOjzL3ieqsFe0oqrqQQ2nTVXOiuuMRmDHTuYvTVZcWtrqduWXBwZtvuby2Gj3nGNobPivi6CNhoheCwpyFpNxpK3vHS+Zt/xFZ47ucyJ5YbzAlXj8W3Aokxnws4S7pzNeOCWWe7bM8tts30GIaxOpMlkEpHVGzp5nEiKGwEbJ+t6EsUY8UEY1oYfHDzLV148zg9eOcMLiyNiAFdMk8cCP4z4tsGVySI7IaiSrOpIMhrdaAQ1GtA2YDuCzuzZQ++mnVTW0jSpSn4mFrPx8y6JG42gqjTjgDGKzQzBGha98MJCzfcPnudHhxd55mzD6VoJWqEYEJd6O8VI4Ufc0oN37pnj/ffcxoN7Z/lwv8V1WRTribrxht4oBNXOxTE5v/ULU4ypMNfCKPLE8Zo/e2Qf3z5yjmONQ90URRQy3xKMMCJZZ3OSqyqS/JyJoN2HSfdDEgWuJjbez5+GoKZrkai+k6DbdzBz6x7Km5IEbZoWJ478BiPo5me+AlXEtBaJllEtHDyzxHeeeZmv7j/It48tcsj3GE3fSu36NG5AU25jPHUzy9O3cbbYw4HhgO8ervmznxzjzx8+RuPXqsStn7wbJ/KNAO0k5MTy+mrjxPwCn/vBj/ne84d4ZRiIboaBzFAuK26hwoQG+goDiHE92TvCT8io3Fhulg6TfifrlxylC4i6ASF79+7V7x84QF+hX3XRGlmETFkmEiPk0dGTDMIiwc3ySgM/OQVff+4U3z94lKNjT2N6kM2ALaBZSKugWBCDQVANmBjIBHJrmMoN794e+OTdO/il2wa8c8pgooeY4Xsl3nZ73rZmxhep8I7Q7YTbdJesIWDxJPNy8TrWmysFjRFfe7Iiv9i8OFmjNTXN8Qq+rTF2RGBMq4HoeuB2cmoMP3nqDF979Hm+Nz9maVwzjhA1+ZvFB4yAZBZ1hiiChk6FXf02a+iWPehk1JsNpZOEsPYN1rc56F6KVlBrIPguWCKkESOox0nAGYheaYcerQLF9Bw37bwFe/tulncN2Hm+xudCta3A2JxyeP2HLU76txiArCs8laKBHARLrQ4hwxmLI0A7xDvLkeUxjx8Z8qMXz/LEsQWOj4VG8pQNERVpmm6FE4xGjHpEPQYFY2jFMIzCuTqw/2zLt15e4OsvLfPIWWVZpyDLME0DVYVpa5x1tJNvLXSkd0n4q11VAq6WRVhEcHbdhNCOkOulv6ZlP2bgcsEo5OrouwFGBrx4eoWvP3aErz19kKfOrnCuijRkGLGpVR0BdRBdUvgkKKbzJ1+KnEwuVffv6mH9irX27IIRFXyEqoHaA5Ys71OWPZxxxKC0rSeooGUP8pyGwLgeMazHtEbY3t/GXDED3lDXV2cevBHQyeyeaVfItYEMQg6Vs4RoyXH0yMgM1OJ5fmh4+JVFvvvcK/z4xVc4tjgkOofkORiB2KK+WbstF+x/JtNlckSovbD/VMMXXx7zFy83fP+8crqNqI4pw4gyNDiF2tZULtJaCNbgTU6QHpEcEx3OO5x/86UnkKzQmUknvErO1RdX/w8mAi1RGow4rJmFsI3TZww/euIo33zsOR555RQnfCTESeysSSF8LsO6DGMsKkJUJV7jqqsw8cVewFFYXb869TwoNCE9qsFohtUc0RyNDmKOxAKlAJeDBbUeXEAyRawly/o4HSB1Ds3qjbiuh3bXygCID0DAi1IZiC5J1bwF44Uay1k1fP/4iG8ePMcPDp/lmTNLnGuVkOWIsynEKLZJTb1gP5TGhLDdZomowrgVjlY5D58VPn9whT975jQPHTvPea9Q5FibIa0HU6PSElBaOl+sSb5Z6VrsXd02M0liThrQrp4ndKuUAVEMI5pmjJqSVgsOnxO++8QJvv3kMZ4+WXFkDIttIp9C2h5Yi7UOax1ik54fu1621zTWzYH1UjwpFms2BtGI04jLSlzWQ6OlGnvGw5bgLdb0yN0UBgd1jaNl17Tjjpun2b1zgFhlablitNxifU4u5SWm+/U3IC30aVabGZACTyTiMdqSdd1I6wAHVxzfPVHxxedO8YPjQ14aO4bZDPSm0awgqkL0GCKZNRdIzdWfaz+gixgcegvZgCAFh+ZH/M0zh/nfnniFbx5veKXp09oSQ0ZPAyWeHI/duCBLt8zYdFpvPhQl4kODhtBd3gvPM3RRdy629LIeTZbxwjJ8+enj/K/f38+jp0YM8x1IuQOi6yTPmlV79TnrLL8XXIRrDxMJOrFSs27irRr/OveQWEPRKzF5joZO3W0jkvVxeT9ta0Yj8sWzvHNbn19+9x188r13ce+ts0Q/5MzCeVaqMS7LKPJ89fOuZ6xGTe3du1f3PXWAmIOnRcMi+WhMnm8DM8WBFfjKoQU+/+xLPHO+ZRxyWumhtgeZBVODr8BHrFoyMlrZuA9YJ0G7maUKobWQCdZ4NDZobJiWyDu39/mFO7bzidu38e6dBbvNIuQ52LTnjKQ6OiKKGDAmdYQSrsbNSQRFtWvlblbPMcSIJ5W6zFGMrwmu5NETNV/e9wpf3X+YZ04Oad001hYYNah6gq1hQkbWyKid+pym9WTCX5uYkHNVle2+u6xKzm4SmGT7iNGs5aeKgDXkRjHtEJoRO2LN+2d7fPrj7+Ge99xJZTO+cOIMf3LoFLct30ZvMM2oUFpaMr9x/l2HUEVjV/d4ZKAK6WAphjx3xBB4+tQyX3/hLF998Rw/OaMsVkJDnshpXMrKb5pUot4kVc53pv/V0U0lnayckwGQGUwYkvklCqkRl7GkU/zorPClF5f4/LOn+fbL5zmxYhnWGRoyQDDa4LRCQ4WPNZW2VFcpCjOdXUREk7wMHrxPkkAMOIMK1CLUdckjzy/ypUef5+sHDrJvfkidl8Q8wwM2xrTErG4DIGgkxDSianIndK9fy5jc77Xd1Hqh3/0mAkZSjHdbp16kk1L5YYhfPsWUrnDvzpJPvWsv/80nHuQ337WX9+7MuDWHnvdoG8l7Ja60BBnj43j1U653TJb7BK84D8ZMMXLbeHIp8PkXjvL5Zw/x2MklWjsNtgcmT38WAvjuoqJpQsHFBF1H1CRrUiKuEsF4hECMnhAjKhZcD6Xg+eXAtw7P8xfPnuAHx2r2nwscHwl1TAYZayKWlMOoaglXrauPEgjpfGIgek9oWzQm6Q7QAGeGykMnlL945EW+9sRBnj+5gpccXAaiuEwR26Ygj3U9O9J+M0ULxU7odKW/Nn6RawudIShJ/DUkybr2OOmH2YlXhEgea3rtCnNxmQd2Fnzynbfxmx95B594/z3ctCtnOjaUbUumDrQgUOC9QqwRbdaEwHU90vWyc3Nzf/xv/vf/mCK2OHKGIeP5JcffvHyGzz9/gkfPrFBrjuvPgkYMthMbAbRNTXVEu5QCC9GkiuXrbsv6VXTyXFCcNAQRAhlBUwlJMYJzEImcbTzHVhpG45ZhNJjCMigtU1lSdA0GQwmmRMRwNcpeKZGgXWZOgOgDGsG5HHVCo7AwHPH08fP86f6zfOvJFzl0fkhjSrJ8itAZ6IocvFTUvgbJoYsSSpduQsgJKbsJfQ1DNzBz/RmsGo86ojoBVBAVstDSCzW7XeCdN83wqXfdyacevIf33LWNmSnBacO4GrPY5uxbsTw8D4N2GqOK2hVAEb3+6ysJaRtgAIrmKM6MMUE4dMLzVw8f4s+eOsG+JkdndkCR4RfPYEKLCYFMlcIIuXMpDC92jW1iF5ywugJ0jxsXh47gJqykkEC3DcrdmGzAdBjSq09hdQWmplmZ3sMXnjnKV148yaMnFjmyVLHSxLRX0QxL0RXD2niKbw4EwXTBGCazuMzhrE0+ZWB5ecTR48d55Nnn+JMfPcVx08dN30xJn2y5YcZDL3rG4wWasAy5R7s0svQBnTq73tiy/vVrFcq6m/1qEKxCHqBvLLZp0JUVZoi86/Y9/N1f+Ci/+XPv5X23zDBwsKANOEV6BVI4An287+MMlNZQqsO91sddh0ixuPse4Xw74MenA197cZ6vv3SK01JQ24y6qqEN5MWA1o9W10GRiWScNNmZNKQxm6ptIyhGGiI2qbYIohGLRzWkuq/iUsU5N4sdLbDXtXx414BP3nsTH7tnwM1TkOEJfoWAx5VzKfYXg/jua0y+klV8V/zVbUod1tUyIFHT/nqismqnIKwaUwPETAnUqG9x3mDsgPMtfOvQmC888wLffeEoJ1ccRkz6XjF1L7PdHjUQCZqqIyTH0bWLzSjXEhtsrMn604y8SXq+cVBkOK1x9TKlCaibYVF3wOkjFLrEe2+b4RffeQc/f//t3H/LLNtKyyADb5SKlqk2UruSF87Bfzo04v91dJ472lvJXaTOl2kJmLBZY+G1y2bRpIgagCpO8ezpFR45coYnTi9wrFaWPcTYzW4xRI2rqUwqa72vkp2pi+gR6d553ar/KiPts2zijwaMeiAQECIuva/GtM8dN2BKFmLJ/vMNX3zuOH/51Cl+cqLiTANqcwpjMaHFakwTyKwzqHYqlItgwuUXj1Uo3WLULUidDSh2bzGZqGohtB6aiIkZjZQcHynffO48X33yBR55/jQn5wPGODTFBRGMEkznghGDYLE45BonJ0yk42sP4wqkN81oeQx1A4WDwkA7xtdjxFiCGppqTD4+x445x8ffcRuf/sDb+OR77uR9d27nlilLjwbtDEiWFHQr3d5cNWAkpAAQ9WmPfsFNf61xPUASQY/WwmOHT/PEweMcnx8SjEPbhtbXWKMYq/hmdBl15fVDVS4Ya6xKE1awSBTM8iIDAYqSYwo/OHOeP3/2Rb504AiPnxhyri4xZht54zCtEtqahorGNbSuARMgRGgE02ySAAoadbXqnQCicdXfa1YdVZHKNIgGspATmpJjS5FvvXySP39iP9999mVOnV0hjw7Q7hKuXcf0W5rVV/bqXl0Ek9HY6RRIKkKmLWUY4dohuQZELENvMKHmvt4Sn3r7dn7vo/fxqffexTtvnWV7CVZrDD7lgXZlXZis8Rs/8AaFATgwgp8cX2LfiQVOjVqiKzpx0eJMxEknya4kFFTt6kAtqAN1CGvDiWNnJoivWGoq5qNwloInlzxfev4kX33mOI8dHXGqAiQjtkLd1LShRmgRmhR/FDz4Sfzu5aFAO+khC6AR0YAzEWM6/UM9UVsa6uRkN45TS8oPXzjDnz1ygG+8eIzDS2NqdeSmt4Gc3RRTOiv3jQX1EZqIbN+FLXu09Zh2tEIhSj+zEDxODHfMlfzqfdP83ntv4VfedQvv3lOwo/RIGEGowaYeNNa5CyKSLhSGNy5dDcBTZ5UXV+C0z6hMiWYp7tFa6cICul6SV3QaSbL4xkQanViANQXuTYa1jsG2klE7wg9HQA6zt8L0Hbw4D19//hSf23+Erx0ac6qFeXHEYkCR5WR4nKYemhojKZWmI8QlxoVfT3CZS/c+hjTQZPyRCARiaGm9pySnxXBoCN968Sife/hpvv30K6zUOUzdRDa7k1jk64g4sWCm7zLppkyXZHAjQEQRG7ChIYSILaYpZ3bhygELZ05jhud53+3b+YOPv5O/97H7+YW338xtPU+pDbRjYl0lg6PNwTmC6Wr+ytr16WzBnWS9Ma7bRti5ubk/9h/7BxyaH7FIgeY91Njkj5KIdnVuMC4Zc67khZhkF3fvmRbDDeFhEqlkTC0GXAm2DxQQkrunFjjTNBxaWuDM2bOEssdgUDLtMmylhMVh2tflBb6wtIbU+mADNoalSff1DJN1KXbxxp7WB9qgqeWfK0EcTx5d5PNPPM+XnnmZp04MqXWAy+YwLqeWFOFC9KvkTLraxrU/PbuSy+Abgc3MgEI8Ax1SrQxx5YCsN0vjlfHiAjsK+OUH7+LX33cnf+e+Xdy3q8900WVNaQrwEFeiWUkwhnHsalpJKpKu1nJuBE8uNjyxXDETpjEGgm2JgNmklnQtQwBRSQRdfO/vMF9HGpOjkiX1w0QylOBbfACXpSDkK4vOsLSOnGsP6fdApKUCm4HNcWqxrSI+IBZaJ6ygnGpqFpaWWPFCDI5cSgY2ozQFkud4K1QGPEq2LtJ8QsqNj5q0WlbbZko6GlRpMQRXEp1jpRH2v7jMNw8c4msvHOaJk0sseEfhZihMkayzNCBtytjYsBCwui9di7G98tf5ymIzBHWxJvcrWJsMfvVoDPWQW6czPv2Be/mdD97DB28bcPuUYboskBjRGJNZxDiwGVEET+daF3AoNkC0hrNjeHLhQoJ626I3GEENwNK4wXfGV4jQttjgMTGiQZL6aS4sNH0lIKKrYy1VfqJyhpQdgnZ7U0lNa7VC4hATxygh5YbaklYGHPZTfPfgPF/c9wp/+8JZnlmBxX5GlWe0KPgxLlZAUi3XP14ETcFS6IUzUk1GzHo0xjBfwzPHF/mzH73Itw+c4vmzTUoAEEdrFJW2i2xpILYd87rP694zqbaXULGvc0SxRJOTZxZTLTLVnuWBbZHffv8d/P7P3ceH9s5y57Rl2qaiACEKQQ2h21RNUu5Mt9lJlEsqbreOdc83fPANBgNQ9rtaBNFjYsCgmBBSJINYMDkB14WYXSEIiMQLRqqMHUhyLiQCqgK95I/wNa2OiG5MzMco41SbVzOsnYFyD4eXHN85OM9fHzjGFw/P8+gQjrepG1gvtAx8fRE5L7kHVZLES/8BoseHCDZDBeZHkWcOHedvH3+WP3/6Ffafbmn8ALHTYCwtFSuuAtfS05a87c7lAn6uC+hYHTcGgutR93bh1TArFT93a8E//PBt/PNP3M1HbnXM6picgLUOH0DFIiZDkVQWJtRIaHEoeUdSYYP4vujAjQcDsGvHNrLMIDFZbPuZxcaUneFcjnUlUc3Gv/0ZMXFTrMrzbsJOPKypX4ioUjY5hWaIFTAtXoYEN0aKpIKa2qMLDc0oww5uZqnczqPzQ/7zo0/x//3BE+w/dY42RhzSZe1fXoKKgbxYFXPUTcuoqpksI0dOnuEb33+Yz3/7Ic5P7WTFTKNtQeGTYYuBJfYCjanJmjG9urqIhImba6S9kRBiRhWmCG7Ax9/3Dv7Zr32QP/zoXt49VzGji0wVArZg1BrqpgUBawVnBEckI2IlYLTGhCFGk+bzVoOdm5v749/67X/LmcUFjvsxwRmacoqiccy0hpKItxWtXV7XhfkCMbDul86qtpF7lxwb7ZXdK6s5kCa1eUdQk5oKpZKSNvnWYobELvdUBIwibUuQmMqDWKGKgXOLy5xfXGbkIe9vZ2ZuNhkjTNpvWkkRvYLp1ohAwBPVY+IaoZzNCa7PmQBf3X+aP3vkZb51eJlXwoCoBtEWxRNNZ+0OadtpvSFKhjc50aRIItOtR2sxHRN7ZCLsVeGrCGJTJ24JikSwUXBicTYjStelO6SwztxZXPSI1ogNmMIQidC0EISbXM3Hti3w2+/azW++dy8P3radbWWGDYpIBpIjGIwVcmdwZs14JsamfajY1RI3Kq6LTx0DOWcreGJhzOOLkSk8ogWNa4gErG4mUuzaRpJZ3R70w3f3mfHLMBwDfXB9hqEiZDWtNDQxgKZUr/TXE3O3TIRwh5SnslmkkPm1sZHCE8JGianrF4KoRdQhmlq7q3aFmk3EaIOlxYpBbEEjPU6OHU+erPjmS0v8zfPzfOuYZ8XmtJJhvSBt6jaNBLyNBCsYLE4FTEVoVlANeGdZaOGHT5/ibx95gScPLXCq6uHtNkzwyScqoQsSTzWDTGfhCGIJ1mK6gIeJIF1bqC48flUGnZrfLRirafcxVSNMmkZKDzM2EtqGoBZ1A7yU+KqB4RKl1tzZV37u1il+/cHb+dS77+Cdt+1g5yAnk9QVL+XMGaTr7+PshJyTuZWi11JspekW5ck8m4RDkrQtNSh+3alMXrwxYADu3Qv37c65zfWwdY5pLNE1zNslFuyYVh2E2XVW1yTljJg06Vav7urdviowxmMIWAUrOcZM4d02TjZ9Hj/j+dIL5/jc/uM8PL/M0WVP09jkronKWBpW8NSQLIneoDTUJrAYlUOLLQ+/eJav/vgAj79wmjOLkRB7IL0LznljFsfG59csFAgRQbomTIkQIQa8b8D7JEGNkpuIAl4dXntpUQ8W6hF3lS2/fNcUv/P+O/noe9/BPbfuYLZIJXSMpsiP1W3FZB3ewqvCzs3N/fF//2//IWV/O+14wMI5TxVa4qCi1XmCcWC2QTMNdpxu4CoxJ5ZfWZuknWR4s6+8oBhiksRiU3UFKYhS4LEseeFEFTm2PGJ+/gS59tlRDJhLWW6smArfdWsrWoXaMzIVoZjmlSXP954+yhd+9CwPv3iGk2PLSiyIJu8uwFoFhLXv00mDddiUkU1S+4arAk0Nf410RdCIhEmQhqbIbSNKjIEsHxBakxyURpjrW24rWz5x6xR/8MF7+cX33MHclKNvSEYe9Zjgk7Zgug7fHUE3c7ZpdimiDUrZqbgVjy9FphUMPbxrUSJWr0bi4ZWFsM4P+q8/+w/YOb2bnYNp1Buef+UlRjKCbXMgJTQZRW8WYdz14knOulVNo1N/ZHWSbuaSX2EIqDEoNgX5qyBYjDFEY8FZMIZx4znwwnHqNgNbYsuSrBCyXCiAnIBpGzQqo2Ibp4eWbz95hL9+6Gm+vf8VzsceMrONaG3Kh6XuqimsW5i607+QpLJhO/AquFoEFUBMEpKrqrimcqaajA9GhCgOtQWqjp6z5H7EdFjk3pnAP/ql9/MPf+mDvO/mOXoSMVawGjG+wUaPGIO4CTnT1mTy0ZfDW5qg//Jf/0tyFaaLjKmBwUvDyZWKUSiAEuNsKklC7Cb+xFcZU+UAUuqUIUnWzvP+5kIManurqWsaA4QGQoWh6aRcC0Yosrs4NWo5uDjPydEiapSbyj7brCVDECcMXc7RFcsXvnOArzz8HPtPrLDspiEviUbBebB1IujEKLHeP7f6PP2+ts++HFbVkjcVactiUU0V7pGu56jQZY0otiMopsegyJganuUOu8zfuXuGP/w77+YT77iNm0vomSRVjQmY6HFCaio82Vd2237tyjJu5nTf0gT97/7FZyks5LaiXwa275wjhoKzZ4bU45bMBNBhioPtsjxSJb902cxkT4qkVfYqEDRN/lVvWUrq0hbRFktLJoGMrsGOvZ3l6DndrnByvExV1cyGjFnbR41jPnhemB/xnScqvvPYc+w/dp55b9HBNOQOQgVagWlwFmJME0LWGHrJ55uVoJuasVcYRtK+M8bk3sII1hiMAYkRg+KkW2hCpFcv8M5Z+JX7d/Ib79vLz92zkx09g9XEOCsk/7ay2mEgGX0kLaDdorC2TXptvKUJ+q/+1f9AkUWsGVNmgZtnZ5ntzbByboXh8jJ1OwYbCVp2eXiTxjZpEq66CborfVUsaUqqUD7JNDGdx1IizgqZMTgEEwyhLmh7Fmxkpak5vzgirCjOTTHv4aX5FX70wlG+8J3nOLZcsRShtq7LrLAQm5TdI0pmMkJcM+tvJOXac7mmCZoWWEuMnTrrDNaadDejT5UPjCHHk4dlHrypz6cfuI1PvesO3n37Nub6gqhHxRC7uJ9UFX+9FTbNGBAQk1pZbPJU39IE/ez/4d+QCtBFClF6eG4aFMz2+jRtw7nhmBE5VbCrBZPTZj9Z/JIal1wsV4WcpDVZfIu1ydKISWoaxqCuxJgC0RL1QrN8ht5UhpY5MQgrK4EzI1gIGQfnx+w/cpZHnjvCY/ueQ+amMb2ChoA2o9QQV0wX8GQwdD7CC77LpUh6jRMUQWJqyIQVbGYxViB6YutxQJk5duQt754d8Y9/5aP88nvv5ba5QUq2N2CKZDRbraejE7U2qfdR06OxE8V/XWmKy+AtTdB/+t/9c6xztLVHqxbnDCU1u7dNsfuOnTS9W/jh068QxHUEFIwRrCTfHh09Jx26UoT55S/6lYQFpiVirRCsdrVq0ysqPbyWNKEAFW6aWSFUI9phRQwOym2s5FO8vDDkwNGzHDq2yPzimNquUIWaYBXjJPlih0MwGb18BqsFzTjCJOJoHYQ1oqXla6KGXw7dxu/Nhmoq5SJgM4vLLCJC9C3e12RAWWR8+N5d/LtP388DN29n9yCnVwqS5zQmp44BiZ6CFmdArEuXYJIA0P2eTk9Ts2LVZDS6DN6qBJW9e/fqY/uexBiDdnuNIkuGljoaFurI0fkhTxw5zf99/zKnxhnj0KOVHGMDmVtBqQjRELSP0sfoOF3SiTCdSN0Ne1M1aS/y2ticH1E6lUpNKv+ZPHVrr4Ck6gxECmnwQfEqRAxMcg1DwASPVcX6Bjs6T11VxNanJj90+25jEZOcOhFBsnx1AqWHLmuFtI+Troxm6NTH9VjvmukOdGU7Vg9sEDDrn1z+wkiU1LfGCd4EAm1S/U0E50AN+JQZMCUB9RZrpwh5yQiPNguYuMwv7NnFr957Nz9/303cd4cldxmZ6QjYXW/VNH8Mmlw164inkx/rlYtVf+jlF6SUt+BxcUhglgPn4X85NM//+0jDrQGcbqcuh0QJZO0mEjs6y/s1i3XJAuQuw4rBGouxGQFHxGEFZmzg3mnhF+/axu++aw8fvnnAbueRpiIEQc0AKJFoUk2gWHUL5VrWQZqenfKrKdIm3ZzNXaTJ/7zc8GJSFywVRE03UjEy0QDiUYnU6vDiUJOiWUTTyi+iaGYJRUbolUh/Cin7aFagJsNIhjMZokoMqSqZtclqncqhdATW7gLT9f3U2LkrLvzGaVpueK501+dSv6fnnSDacPzSw4jB5Tk+BoJvVxcYbJZ8mK1iNTXKisFispLWCFU1xFYr3NR3fPrtd/I7H7iXT77rZu7fM8V0UVBYg5GUzC+p9BuuC15BLHqR2p94eOFa8zo2od0pXYTJuUI36yZz7jKjK/N5rY7JlTJAikc1XfAB3aTojmcuoyhKdk4P+Mzbb+bX7p7hwV2wIxtDU1NXJdFvw4Q+1ntMM98RMl2u1cuv6Ue6nl0R5slr1yBUoMkssSyQXg8pC8gzgp0sAiBq0nY3eEyImBiQGLoaOqnHZSQQYhqXO+PVq9Ndq9XjGzWP17O4GfC5ppzUELA4BrbPlPZwlSGrDb1Y0DPT+DDFWArG2mBkzF1Tym/s3c0//dA7+LV33cYdexym99YMWr9aWF3mJkRaS73qSGoMeZ4xXRY8OA2/eteAT943xXv3CNM6gvNj4rDExWkcluBXENW1WM51uJCcm5tgVwtqDKEsYWqATA+QqT5aFgTnUkVCNcSgqI9JLY4eqwGrIfVFnZSJ0ZQ+l2r5rbu+2l2DDeSb4PIkveDpq8JrS90sJ4NMllG6gixm2MoglWC8warDSImYPr6qII65Z2fGr71jD3/4/rv4zXu2cfeM0stXUDva+BFbeAMxiQtazfZaVdO6PdfkNaMK1Zh7Zg1/5/5pfuPBbfz8nY6bXE0xGuHrSONK4vQsRlIx/9X37LDh6bUNMWivIJYF2uuhgz7a7yNlH/ICjEWD4puU2C4xIDGlx6Wd7WQv1mlxG1erxNB0PV6FbZcj6aYQA4QRFIYiL0AtbR3xasj7A6QsWNGa+fE52vosU2bMx26f4w8/dD//+Offyc/ftx1jRoTxOdpmmObEasbRq48tXBkY1q3qRgRrU3icSDK9xRgJIeCjgi2JErilF/n4XSV/+KGb+LvvnuVtMzW2XcSHAP05FHn1Pfj6jcA1DAVi7EIHjSW6DClK7GBANjWTiOoKwBBUCV3WR+yiq1Q1GcW6Tl5mw/VIT9eTtHva/c2EtOnXtQDzjRrO5WCMwRYFGULwLVXb0BCJhUWmHL5sCSwBZ7hlapHfetfN/Pcffzd/7517ece2DLKWxtbUeYFzsxQy2PgRW3gD0UnQFAG0NpKCmiRgmiyqSpMLjQgFkb258JFbC3717QM+fnfG3dsjIk1KWZu0gugMGqQP6UYnUq7xVVaV1By11ZQ7rkK0DilL3NQ0bnoa+n0oC4IRgpHUWFhT3aIQY/IprjccbfyMyc9O3b1I7b9IrV17vllhaoEiAj4QoxKt4J1S6ZhhdQ6jy8zMRh64e4bf+vCt/P777+AX927jzmkhsy2tVlRFqpQoTCG+uEhavtrYws+Odaa2S4g26chLuuCpy7zBkdHDssvAe25x/OL9M3z8ngH3TQUYLaSkXp1MTE270QkpzbpxDYtRiQp1TC4In3IYI4ZoHZQ5djDATk/BYABFgeYZWNfFmqZgfY2gMbl3ViPDNyDJwjUCX0S8jQc2Pr8MNCqx8cQQwQqSW9Qp2q4g4/PcWng+evs2fu+9d/P3fu7tfOSeHezoB6CCWOFRDAWWAvEWbS99Hlt4Y/DaoS2TjP8uJtPFJQoRbJhCx1PoOGN7aXn/XVN86u2zfOq2nPeUnow1cq7pb530JIV5pbjMaxeiYFtSn5UuOZwIXpVWDLHIkEEfMzWN7fcxvR4UJWRFIioWosXE9PcmdhUJXoVgynrV9dVJqRsk6WWhmiodWAvOpUD/2JDTcucg5xO37uQz99/NH7zjHj5yyw52DQyNqxhLRW0iucuZwlGGrm1Gl9myhTcHiSWTzmSr82M13SBlr3Sqb25GWO+RxqAxwxV9irzHzlJ4YIflU3fO8dv37SHr9q+s7p+4kKTXtvAEwCCU6iglo5As1daNCm3AR08LaOYwvZxs0Mf1+tiyhDxLAQA2pVWJsav5s68Pr07S1wOXZ0zNzlEOBinOdjSEtmHP3DS/9K538DsPvptfv+tO3pGV2LNLKJFxllOVA3zex3oDNUiIZLmQlZeP+tnClUOKxf03n10jzsSuu3G/aCT1rZQ8SVSX/N3GgMHQdxk3D3rcur2PZlAvnmJlZZE2guQ9QtsCkTwzOGcI3uPGFglpgRACYpLVE+nUwmDQYFJWxAYlfOOAbhJvYqzu9V5jzitKtIq3SiCisr7QUtqfa1c/yItBjUMmdXTQVKTa10RfE0ONRo+6LttmshDGicM8SezJ7ynmLkVeSfolPb+A46lFuvoapUFdRLKIwaPjhqJRZrXEMs289mnbCCvzzPpF3rfD8rsP3s5nPno/D+yZpuc8USukzFFjscaSY8jokreNdDd6Usn76kAQTAhgc84O4YnzDU8utsy0O7BAayoiEbsueeH6RleT6CKpdgE5J8clVXQXi9guOq67WQahNJZt/YK7tvf57bfP8em37+Y9N80ymzkI4PIBBks7rvDDIdmkSDGCqiYDRkwt+CbZMl3M3jrJfoXHq6FTJoJJhbNj9yWS8SNFJ03eQ0ltEqPJ0azA5AUmLyHLIXNgJZFduwZOXdEticm6K104VxrJ8jsZaUFZi9ZJxF3nX40pvxXpFro6ok1IxdacpbXJD0o9pNeOeNu2kl97z938g088yG++/27u210ylTU4V2MK0DxDVbABMpUudWwdMS9YIN58CJK2GhOodDch6+5Hd+NuBHTncUXWw4npP8ZILvCB7Y7feOAOPvWOu3ngpl1MG0dBhlOD1oE4rnEhIFmKEVXTLQRduJyuWoCTL/HaRiJIkjAWyXJc2SPrD3DlAFMOICtTlTrvu/6FqYSIMKkJvFbAW0w670TG7tw1/UiRvx15JWXsGOfIJSfzGWZskNZhs4KmtCzmNUPOcYs/yXt3wq+953Z+92Pv5pc/eC9v3zNDXxpMGONoces6IE8ssFuW2KuPn5mgE2JOhtXUk+P9uwo+df82PvnAHTywc4pstEDW1AzynF45wEeDZBac6RoSkSb7RDqt06yvbUgin8nAZkiWY4uSrD9FNphNBC164PK0rw9dOGDswgE1FehOVfITAbt37TCRpBcKMDECuUWEtA3wGY4BuZ3CuJxgA8iIzCzy3sEKf/fBPfz+h+7hQ3tn2Gkb8jAmMy1lzyISaZomve8WKa8p/EwEvZQDPYYI1RgJY962DT75NviNd0zz/u0123Qe8RWNLWjL7ajpPPhWUjK07chqLdYItlOlr2kIq/p+FEMUl9o3ZiWUfaScgnIK8h7WZpjOFRM1EkMgeE8ILTEGYuzaXXTSU5KfpiuWMgmmX9tLWyD4QCvgyx7aH9AYoRouUdQjdvccv3L/HfzL3/o4v/LuO7h/e8EO25LHitg2hNaniqNFL0UVbYKcr8uCvIWfGT8TQS+FgFDRI4ilAO7swafuEv7ZJ27nI3cUZO08fmkZ3IAYGzT6bkJK+jqS8hARTZJFUyX4axfdPq2T/iGmwg5BDGod5AVS9pBesvSaokiZJNK5XWIAH9DgO4ImA9GEhOuDRSZqPyTDWqzqJGEzIWSemmV8fY7SL/HgbI8/uPdO/vC97+Ij77iT2+b6FNLiRCnyHjYrGXtYriPjaAmS2sa/WqDB+sV4C28efmaCrt+viAhqLONihspmQMOsLHHfdMMn7urxa++6iZ+7ZweDgcB4AfFtKsXoY+qDEqUzDHUGoxgIkwZK1yhWpdrkUSMhRnxUPKDWIFmOKfuYwRTS60OR+q9ibKfSTyKOJhFYk5hevaSVrMtixU0Sk30F9XkI55jqNXzwzm38xgN38Pv338XP79lJ6ZRBYSicRVWpGk/jwWQ9xPXw0dKEZATbwrWFn4mgG8kpIhhjkSInIGhMLQxL49nlPB+75yZ+7wP38iv3bmdHOE9PlSJCHlNbOQldWF2MSeXT1ILh2kYnBSeq6YSkGggaiSLgLJLn0B+s5piuBjW4PHVoIwVCaOiMQCm+cM2qOyGrJpIaDJkrsQi0QwjL3Nzz/Pzd2/ndD9/Hpx+8kw/unWbXAIKvEaPYPDXAan0gKuRZTi/PycSma/8qe9D125gtvLn4mQjKOnJOqpFbIwwErG9SjQMzAO3RjCN7egWfftsc/+Q9t/BbewxzmaVvLaWx5HR1viZSZOJOMJ3Kd61CFYJPSd+ia4XrurKkEZK1y1lCWRKLEnp96A1gQlRXIOJSxNEkJFBXf6w+T+7QZDBSBLU5zivbNPLe6R6/dfce/tGH38HvffA+3nHnFMV0hKKmPyi6Ox0pCsf0oM+gLHAKmSp9C323NhVei6RbeHPxMxOUDRLUipKFFQZWyExGi6OWATbfQd4oO6qGT+wQ/vUn7mNbf8BUVlLajNy4JA20m+BiOtfFFfmKbxiSvza5TgwTe9f6XNiISkyJ08ahWYbkBbYo08gKnMuwxqUmTkryea6qtqmwSgqx645JxMfAeGUITcu9M3N8+r6389984H381jtu57YSMlNR2SVGdogY7YqGpGRyE30n8dtUnbCtIDSXJOZGbBH1zcUVnf0iE8d2agtvJs1XU3E9NIUdUeSGu7YV/F8+cRO///aM22fGVIxoJIdsNybOQAOEmsy1lC4jtxYjdDkfacKrAZUkqVRjt0ikrmhv6rAppE+76nVK6tAlxiHiECwxCNFHQkjNbXEZUvQwvT6UPUJR4Msc7yy0FWE8xLYthQq5CrEJqAomy4jWIGHILfE0v3r/Dv7+L72bX/3Y27h37yzOKGiDRChjTl97YIrUEQ7XNTzugvqlK33i8uQiuoRxaHJf149rHROD1nU9UHRSk+jKQtIkkCRFjKaeKaBdkkfyefZy4aN3lfziPTP8/B3TPLAto9ARrJwjRo8temTZAA1JsqbQuk6lhE6STKKdJpPmzZ88ItJVTU+fvSpfLpjQqURKyvJJ6mnKPnBInkFZpFEUkDt8bCim+9giw3tPU9VkYslVMHWDbVpumyr4zQdv4dPvv42Pv+sm3nZ7j5lpRaVKW4NJm0a65jOYzkq+roC0dIW9JjGbr4HriaA3BLrtzGvflTcSoljXcP+ukk/fvYvfu3M7H5pukeooxIXU+0RmCfUUMaQgCO0MJBe8zerEuXqnsnmshaKppPA5dRbyDClLpN+DfgkzA0K/x9hA4xti2+B8SzYasq31PDAzwy8/cC9/75Pv4uMP7OLOHYZpF3BSpwLj1tCKozIZ1TXvSN7Ca+GqzWrViI8r7HINH91Z8pl7t/EH98/xvt2BjHm0WqZtBBNnCCGiXQzrOhG1+tN0bScuUhOuoZGsu6snn3aXAtHatC/tFZh+D7d9O9nte/HjESyvAJA5ISydI184wwd2TfOPPvo+/ttPPchH793Fvdscs2ZEpstIrBCjpJB5oemqIW3h+sVVIygKWgnSBnIz5p65yK/ev4N/8uF7+MVbp9llGkw1RsWs1tO9sKhiN9Enqu81jvStpdMA0veOCEGEaA3ROWKeE11BMFMw2AnbdmEGPUrj2d0PfPpDd/NPf+1B/t6HdvPuHeAIhLahqWp87VNXbCwmJcfhurGF6xdXjaBGLFPZdlw5jbdQm5pd08Kvv/1O/u7b7+bDO6bYmTcYM0S7tCvTuXMgBTMQFQ0hjRhXyXotDtK2tLvgHVE7jV1XfxVitGjdY2r3XfTnbma6P83e227md37tE/zvfufn+fD9s9xUzJPV56lCj1YHqExj7DTGDCBmSBtwPlBG2EQJ5y1cw7hqBBUEpxCdSwnCucP1SvbMZuxxGdt8Td+vUGQVrCdoV34FJj7T9Sy4dofCBY8XvBwFgiRPSLTk0sdoCZKT9abZtvtmbrtnLzffvoPBTIYpGrCeFoOaHHElYjtLrTfQRkwbMD6kCK0tXLe4agRVVYKH1kM0OdFNM5aCo+eUlw4f5eTx4zTL8+ShvrDw1iTxZd28m+RSX9tI5NSLyLmOoF4gptZ9o9GYVoVYDFiRjJfOLvPi2SFnvKV2M4RiKi1anXE2AG2ANiixawF4HVyULVwGV4+gRFpdwVcrOJ+qtB+fj/z1j5/mrx7bz+OvHOf8/DL+3DLRh1QkejX0bfVN0t7OJH/kRXrlNTYubP8wIekk/rgb3jNuFvFaI4Me46zgubMrfP7Hz/KFxw7z2El4ue1xXvvkocbGFrzHty21r2kIxDxPRcycvR7y9bbwGrhqBDVGKQYt06UyCMri8SHf+cFT/H++9m1+cOIs57I+dchZPnyG4EPX3yQZV5iYiTr3ipHUCvHahnaxuhOSAmLo+pJjVTBRsEbI+qlWZuMrxmJop3ZSDfbwzSeO87988XG+8ugyJ5ahYIFCF3FxCeKQSI1mBs2ExsBIoNrScK9rpJpEn/3sxuOXhHYTa6OzenJ81a0gULceH0muViMEL0iMOAIm1sSmwudTnKstjx1Z5CtPHeHLTxxi37ElQswRl5M5RZwntGNMO8apx0nESKq0kGr4KNJJnzjJhtF15LUGMSb5HSd65auUwHxjMflMWfd7F98wqcppUiJ2blPYH5011nQeppqM8zHjpSXPsWXPttJSyzR5Pk2ZlWRGEPWIhNRXRyVZcbuPW9U8WKdeh7UKjJPLsvH+XguYfHXRgBrH2RE8MV/zxFLLtJ/GmIi3NVEi5gapSaQ6qUl0BTAhadRI7VN2vhEDmkrnOBGIStt6fFSicZwYWh4/vMw39r/CN/Yd5ukTQ2K2k3zqJoq8n/ZX0iL1CtQr6HiZWA3RtkZi6NordC2aJmlb69Tf1Uddf4CLVM83Z3AROYEudFFTyOKEQRGsChmCjak1YFAIWcmiOl5YGPOdF0/zXx4/zQ8OVRxZgiqAM5bCBpx4DKHLJU0cDNrZoCZXYvJVzPW/X53c3okJ7oZAd1JXjKATqELrI9YacgeZekw7xNJiDHixVFKwqD1+8tIC3933Cj96+ijPHVtkpXEUU9vpDbaR5QOiOoJPAegET9vUNNWYtqqI3oOSYmEnFcw6g8lq2J2mAAcNXb5pl852LUO7RshhY7DDukUQ4MzQ86XnFvjKMyf44YtnePnMkGHjEWOxYtALSOlRPFF01R7VSjL4BgvRJV/sFq49XPG7IiLkZYkxAuoRaXDiic0Y4xym32NoSp4+OeIvH3qObzz5CvuOLXO6cjSuj7cl46DUPiLGUZQDnCQponWNjsfE0RhfNeBDWhHoYlvtJOy0y83SlAStMSChq6R3rRNUIXTJ6j52OaWqaQ8+KSYoMLIFx+1uvv7SAp975Hm+sf8Iz58bsxQdDRltSD1i0ta8S4XrLFGpkGigTQU7qYB24xfZwjWBN4SgBiH6AL4F9at+kMYYTlfw4xfP8F+/+Qjfe+4oLyxULLkeTM9Av0frK5rxEk07Qo1SlCnLwtAlRrct1DU6GtGOx4S6RUNIFfJMVxXPKKarsSt0UlPB6MUtEa89rPV10diVI10nORMEXAb9WarZW3hu3OcvnznP//O7L/L5/Wc4ETOiK8hoMfUQmght6h4usYXYIgRMV1K0xdNuVYy/JnHFCaqqNI1fzeIgCCoZoZzh0HzDN584yF8/9CQPv3SShQh1lhNyBy4CIzBjKDzkgcCYUbNMJGVeGOlKhLQeqgodDfHjIbGuwLdI14Ldiqa8zHXJLpOgenPVguo3kuzSUNUuAzSNyb/YBU/pZO+oLYQlyDIW8u08U8/y1aPCf37yHJ9/8izPnxlReZ/2mNFBdGiraNVAVWPqhkwjOUKBwV0HS9dbEVd+tqoiMRBVCZLh3YChHXBkWfnBM0f52k+e44fPH+fYGGKWYXKbKn5IC3EEjMFFjFUinratCeJSC3ozacEANC1UY6hXiNUK2gzBN5josV3Fu4n9Y8LSlI965U9507jIcHSJsfaf1/3ePV9XlN4QQFeIzQo1jlG5ixPuJh45Z/nco4f50pMHefzoeRYqCDZLBcxMV7khgg0BEyOZKgVCvkXQaxJXfLaKCIUVvA9U0TLEcGIEDz13kq898RKPHjrL8ZEwslNYsTiBTCKITzshbbvsf1AsSI6XjChZSgIXm6y2IUDbQD1G62XieAmtK2hbJIR1dXySxIkiRBHC9TAPJ9rHmvi/yPpriGTaQDNKFR3yEnozLMeCR44v8aUDp/nrA+f43tEhpytYVmgzgaKHyfKk4awrUHbFJ8IWrgiu+H0RUu8g7wNLlefw+cDDL5zlr3+wj0deOsOZtsD3t+NtD9dGbBtwIVIgiO2y/hsltgboIfksSEbE4dWgarAITpIUkdCg9ZAwWkbHFVrViaQxrE7p1SC79a6Mq4GN0vJSg3Xuj0nF/W6khPc0QlTaNlKWGYNcyfwijM5CbIjTO3gxbOMvX/b8p0dP8PChE7w433I+QmUgFAWaZRNHaDeu4nXZwqviihMUFHxDv99nYVjxg8ee5r/8zTf4yfNHWQoFPpsiSAmSUdocqkC7UhGrQCE5ZT6FtX3QAmKBUqaq7RiIKefTIGTOURiD04D4KkmSpia2bddeoet03X2lNeXw2sda5YJ10nNj8IBxkE9RN56wcpZifIopFsgKDy5nUWY5ws38cN7yhe89xA+eeZaXz62wqNBg8M7QGKUl4jUSrnX/01sUdm5u7o//6I/+CLqJsRETP5xoRHyTTPUSiRJpCDQaMSJYNVBHfB1Y6fV59OgCX3rsZb769DH2nQ8s5XO0rg8iWAK5BFoirRGis6i1RLFJFZ3IPtFJgGpXxiNZajFd8odJaquarmxl3RXC7pK7UwBA1/tlsiFVMH6tk/gkYmeNvJMA34uvxc+ETa8N3XfRV1lQVhPA06VJubKpqn3Apk7gsSuvEj1NUE42PQ6eiywsKU4HbOtZZjKHCeBDlRqhGqX1QgypZ4yRVJxsNUh4UmgMupIpby4mV0Kiv2QkkZVI62oiegNFEl1Ggk7ISWdBRFzHl1S3NjU3isSYqqIjQhOFHx9d4hv7DvHdA4fZf2Ke88HSZn28sQQioi1GPTVKsAZ1DrUuKVsxWS2TLzOCBEznEjAdOWM3gkgqwCVdMawQoK4J1Zh2NMRXY9S364wvadKv1yahm+TaXZF0pCPzJVTQn3ZcimyXxCX+9lIjKiZGBCEagxeLVyF2jXZNbDGxJkQ4F+d4cTnjoYNLfPmpI3xt/zn2HWsYaY6REucN0kSigkgK+ggx0rYtvm0BQcXgVfBxs+exhZ8Jmn68JkHXQxFa46gpqINBWyXzkRIwUam8Z6GpObK8wucfeprv7T/Iy6fmGdYNaEBig2iScG1UGn2dN7qzYK7tySZSdsInwTmb5E/bEuuaOK6IdY14v5ayFiNqYiL5OndGmvis+jHkqsTrXnkkQ1lAioyjTcU3Dh3mPz+2j79+5iDPLiijtsQ007imhzU51loE0/V5UtoAXg1eHK1keLZqHL2Z2DRBI8KKQOMAm2M8MGrAgzUF52vPY0dP8IXH9vPlxw/z+NFFTo0UbzMyJzhpsCRVSq3gX4cKuSp/RNaiabrnE20Ygcy6pBV3flLG3WhqTNtifEgNibpoIzWd0eiCr9L17Vx/6DqGQckl0oiyrIaTtfLQ2SFfeP4kf/X4QZ462rBUG3AZmQHfKG3tsVjKsk9R9vCaYn1bAbU3ypW5PrBpgoIikuZ2piGVwrQlSMHZGh49usKf/+Ql/ufv7eOYHzAudsHULrLeDNYZNDSo1t1+ErB28ywQWbOVpB/rX7xAopqJW0I1RTJ1UUeMhkg1xrRtKtRrOzV6EhYonYrbRQRovNaNJhtidV9lQERNILYesh5suxVm7+DQqOBLTx7hvz72Al89POLlcadgMNmfK6jHaIvEBkIDXWWLLbx52DRBDcpAamyzBO0o1V11BfMV/OCFRb701DG+eXCFw9UUZHNQzEI2QG1GiIr3LcFPmtcmVXPT27JJPd1VDfRC9wPSdS5RBSOISx2mEZKvtBoTx0MYj5C66vSB2EUcTUICuw+CbnJf8A2uW0SglZiuWcygLTFtnyb0OdHkPHRuyJ+8eIg/feYYz7yyRG0gZo6A4Ksx4+UFMlr6LpLFCvX1xo/YwhuITRNUiGRxSCEtxhoayTi2At9/aZkvP36I7z13hiMrDga3dsakrhVfkOS/FJtILbJmCNkk1oLE1xNz4sRfI6onghWss9isqyYQPdRVCg2sx0g9Rpoa6VReGzUJ08nFmOjPm/96Vw/rv+urjJRn2sm9NuIqj6sVozlj1+flBr53ZpHPP3+ELz3xIo8frzjtYWQtjXUEFCMRayI5HnfNN7O6sbBpgoImNSfLqFzJoWHkey/P8xcPP8d3nznKofM10IfebOr30YyhaVLRaXHgSrAFSLamlm4GF0nMi6Xn5Fjo9rfiDGJN8gaoJpL6FtoWbWt0ZQSjCuoGaT0mpnZ+k7eE7u+uZUxsWpcZQNd3Q5HQYkKDU4+V1MO0jo5h63j6XM1f7T/GXz11mB8drTk0ghXbg/40AQtRU7UHu2UkejOxaYIqQtSMSgsOLnm+++JJ/uuP9vPVfQd5ZbnB2JxcDPlwiakwIvPjlHmigpgCcYPUI0SSZLMTRmwWnYrbPdnwvHvdWdRAkC7QXCaiUUAUUY+2DSyvEJdX0HGFNEmSmslslo6mr+e7XcMQFSQkgqqL0IvQj0TXEpsaGjA6hbKDJ4cDPrfvFH/yo+f4xoHTvLQUGLkeIwqqIAR1KUBiC28aNk1QMMR8hpfPjPj2ky/ylUee5scvn2Q+OPLBNFN5Qc+PyJfPMmsjA6MUogiCkhHVdVFlKYjA/DQS6iJSbnhqTarWroE46dxt0nFrJWl6IcBwBFVNrCq0aSFETFxXnUHkqjjj3whoUDSVW4BSaPKWkRlR25qizJgiZ3pJKcMM3PUBztlt/ODls3zh4af52iPPcODYIrV1xKxPIxn1VlbamwoDsCjCWIRQeRi14JMEqsRT0yLRY1r48fGMr+47z7eeOsazr5zDA1PTJYhn7FeoQk3IHfNRGBlL60zaA8UmdYEmJlapJcRUDmU9JiFuMlFbTWr0k2gzIc96ZXSyc0y/6ySCQbua6tKt+MYSU+Ru5/Mc4UyNCSNCtUSoR2S2U9/UgGZAgfEgrSI+JXsnYWySmq45hBxCdrFe+WaMdVfhtQamS2JXutKeFryD4AgYGqtUWaBlSFafxmXCiD77z8AX9y/yX358ku8+P+b4Cni1YCMjztH6JmV5+1S5YURgyHLKRmrjG5cBrt3C2V2DzlCNrgYqd0b5TYxrHRMFkBafrKyTHpSa9mRGLa03zFeRQ0tjvvbEMb534DQHTow4V0FwBThHq5EmRlpr0bxkpELThZ/RmetRn66qJFLFywQCXDDJ1j1LKdfrxkQlRTpymfUVuEBS5SK61oACOBMwfkwYL+GHi/jREtpUKQsGQYwjczmFySiswxmDUV3tD2M6l1P6zItJ8WaNiw5cYkyUAWESmCVINIgagkIrSuMUT4MOF1Odp3KaUbadQ6OCh15e5EuPH+IHz53jxTOB5dricEQDFTAO4D0UKpTRpWQkLhej9jNgQszJD00WfFVJJL3BYAD6y0NsM8Y7T9NTsBFaJfeGUZXxzLmKLz9/lL997FmePXqO862lyaYYU7DSgseBK8D2iLboZs+bjws/dl1YXPeqiGCMkBkDwaNtDc2IOFpiNH+admUB5ytKWnICxhqyPCPLslQZMHiirzGxJZeGwtQ4UoG06x0RwUdD4yFmJW5mO3GwjeNj5bvPvsIXH3+Jrz93kmdOBdrhDBXKSrZA5c4ifhG7othhD9oeyxZW7JYufCVgAAYIWWgJ0tBKoDURX0eqMRyfV7757En+H9/4CU8cPseJMYztgJBPEyRPahMOpCBiaVKtzauD9XvUdaogaEdOg4jFYyiKkm2zM0z1CqhXCCcO4c8fpazO0mvmsaNzjMYVbfCpgZO1KbiCSIwNEmpMHGF1vPaZ1zGMMdi8gKCEJlJFS+X6LNkBr4wMP3hlgb/ef5QvPHWSx460HFoYE6mZsi05I1hcSsH7OVQSGVJt/Igt/BRIikhoyHNHIYJvGpbHDVXp+MnxIf/5+4/z5997mpfOC3YwiykGBGtpY1xXc6jLKwx1CrG7agzdQNLVQ2uumYDQtjnjWBLUIdFT+CFTruLDd0zz6XffzG++axcf3FOgvqGpGprWE8QhZR/KKaLNaFTxca2W7PUOQXEExElKmq9WCPUYyj5uz20MBzt4ZqHhc08f5P/68NM8fjyyMF8SRl0O7+4MppSVpmbQRnZutW26IkiFq//dvyL4iFWHs1MMteQHL5/jz3+8j28++wqvLClZsQNrXaoG5+sUURJbMBGRmPIyY0x7zk36UFYrHlwJdBlll3rLVIuo27/aDO3vJPpAqEeUOua2GcsH77mJX//IO/nEO/fywE19ZnPllB+gsWVc1UQfU+v4okz7WpUucMKmIIzrHTEg7ZiyyDCZJWiXYiaKLTLUGZoQWWlbjjc1p0+OMFXOdD5Df1ASshG1WSY3UHZVjq7kPnR1oxICai1nhvDkfM3jSy3Tfgojinc1KhG72XSzy0/Rqw47Nzf3x//y3/4bQhCIPYa1Zd+JFf7kh0/yty+8wrER4GbIYolKi48pI0UkYq1iTMSEFmLACeTO0m7yzlxpgqZ81mQKmhiC0z1YuxMqFrUDqFboS83dO0o+8rY9fOp99/Cxd9zO/TdNcUsvMpUbQv9maEYsLy8yHI9Tk6OsSFaXToVWzCXzaK83SIzY2JBnDmcESKU/0dBpSMokErdtIudGjqUqY+gt0UR6pWe6iJQ2A+mu0RW8LG9pgv6zz34WlZKFseGJw4v81Y8P8OVnDnPGOyhmyaTED8dEF1Ai1gi5MxSZQYiE4NEQMcbiXEGzSeK9EQSVicRMB9Ijk/ja1E+UasiUqXnb7j4fv/82Pvm+e/nI22/j9rmCadNQ0jKVZ+zYnuO8px4us1JVDENMgRakKvmTFLUbgJ9YIzhnuoy81D9GREEjsfXpuknns4kOHezgVA1Hl5ZZGo2YyXJ29wcYk9FaRzDmijYPfksT9J/8w3+Bdzk/PrzI//rtn/An332COHsrg2178LXSLi1CBuIcxqR+J8YlnTKqENQQxREkTxX4Nlk+440gKJ06a7qmSpO7oBpThoqvmF45zoN3bOOXHryTT773Hj54z83snsrIaIkhgHH0ipxbC8NcHukXFmMtbVCWq5bgu2YprPPyXOcQ69C8T+0jvg0EFayxGDGEEJMLWw2lzZguSiqU1jkWvXJ6oeLUqSFRexTT00TrQVt6m4w62owG8pYm6P/53/wf+eqPnuVPf/QYDx1fYDzYjfcFYRjIACkNwXqiKYhACJ629bRtwItBsj7YEnCo19TtZxN4IwgqklLOEleTRFVNBaCJkbm+4+++5xZ+5xc/wC++9228fc8Usxk4bYkKDZbWlFgBM36FXb2CXbt305vdzjAIZ5eG1G2q+1s4g7OCv4KncbUQVYheUmBHlmOsQaMSugbAxmRYm46DR9oxWWxxtmCsPQ4uBB5/6RjVaJHbt+XcuW2A3YQFbTUw5TJ4SxP0N//FZ/ncd5/gxy+fYUGnCG46VSSgwdpUcsRrSOqNandmyUCCTKJvuk0ZsTvxiWh5jbH+vV5lGKCU1HowFbDuSpwgEBQbAmUMDPDM6DI2BMQ4ohQ0OEKAwig7e8JdOws+du9u/vUv3c87b9/BzTMFAwd2EsJgUnFsu2pUysDkDJxjmzNst0rRjhgurbBcw8hN4csZCOOUQSMWE2NqSeFDl8qWaiopASvugqioS/1L532VoJMQm9SHdXJ/RNI+WyU1B/bBpk5ypELiIXpa37DiKxaicHAoDFvlzkFAXIaKTX9P0riMEYSAiCdEaLxJ0wi6+haeqIEUP70u4kxAYota1xG04vGlJnU3k4DPqkTQkG04sUvgKl7mTUEBJBH0PZ/5V/zto89y8HyDdzN4MmKoUz0gk0p4xZjosjqVJDXNlQnRujq0yTCzmX8TXEzK9UMUMo3Eri4Ok0ZJpC9lVckEnIBoi5quji6piZCLLdtcw7tvn+EX3nk7v/zgnXzsru1MF5Z80sYQWQ0hNMas5oeqyRC1GFWmLcwVlsJZxm1ksTUstpaohixPV0ZDJHbt/MSkfR2SesOgIObyE0fWSYs3EwJd/5b15NxwO9AuYifrkh5Mt09tUVpUlOVoODaC5ZUh/XYRiil6vSL1Eo7gNIAmAqoRIhkak8YTVYkEtKuLLJOibhcRNOPMUJMEXW6ZDtMY4zsJeqMUDUsX3c7Nzf3xjo//fZ46eJKzI6Xt1FgxisSkyqkYIqnZ7JXFJqdiBDWpz+faFE7WGbWGKBYvjpEZEFwfr4KJnimpubloec+ekl961+186n138747ZslX949ry8SkONrkuHahq8nYFBFjyHNHORhgezO0UVhZXmZleZGyKNEQaGNMa5U1aFepkG4xErrFZRPY5FW5KhBJbSKMpP43aQ/eGeAiqYKiGFaGY46eOod3Awb9AVPO0DceozWENhUgkwKxhtyQjFHBo1ERLM64Lu45rZZdqahU1c9mG1TcToJ2BN20intNYx1BF+/5NEfOj1nypnORRAa5IXZ9PqPJuirvkxtyBcZmIQImQ8R2q7VHY3LrpPcxRBzBlGj/FkIbcRLp+xVm2nN85O45/sVvfZxPvet27pwR+tSoukTCjpQTC+8FhBWhZVKtU4GANYapnrB9hyMzPXS8xHD+HMdOLWKMw+U5wXWTIyjqHNY6ckkNeeMmz/taJihR0dCm8qYa07UxklpAGoOxKUFhGDOOjnJOLqywvLjA9qmSXdM5rq0wZY6qo45Jry1sg5GIUYM1Ga5TiSX5CFACKiQN7q1I0CN7fomltstWiAoamCodvqmS8cDm3b5vrVr7mwcByVGNxBDQ0KRIFyEFDpjUEiKpXBk0y7jhae7bbvn7f+e9/MNf+SD37SjYngWyMKatxth86gJyrn7SumwaFaHR1ITJ0KaMnOixklEaYSq37BqUTGWWQydXsCb13vTWQJZBnkFMZTBdNFgMvlPdXgvd1uOahWhMASqqyTLOZBG16X50BPW2RyhmqaIwv7jMwcOHWR5V7LnjjpRtFIXcGjLTIjpOgfwmR1a3L9C2qU2iWO22V29Rgs7f+6t4Juk6af8xKCxtUxMQ1OZdzlKqhXtFsOlJ2GWpTJzmpBxPay0iaQeJArGlNz7HTW7MJ95+M7/9c/fzqQf3cu/uAdMu4qsx3geyoo/YHDaQkw0ERQSPYCViNCBxUk8p4kzGwAk7Bjm7ZmbJpnZBqFgeLVOFllgWUPa76oItMSrWGLxcnqDweq7Nmw8ryQduumLgmu5IehRBlWQxV0CSRrYwrFmohdPLgePnh0zNzDHdc52BrqWJbdfSw4KuWosIMYKbBKS+hQk6+NDv49uWNiQLrAjkmaFtm2SYsZ3V9EoSFDY5Eydm+G4aWINzLt2ztsG0LXn0TEvLPW6BX3jgVn7j5+7nEw/cwR3bM8pYY2LAByWaApv3O//o2h50PTHXExShM5jEVQPY5Cs7Y+hnwtzAMLerwOEYV0OGdUXjU39P/CSQIflk4w1AUCNgbbJ4RyBoR0btDG0duYgeQoNxGUEdK95yuoJzw4ambrEa6eWGPO86r0lq7yGaDINJQ5Lk7hEBTDJRvhUJ+t7f/WcsLy5QNTVqXGeMAR88YlKLeVXtOjRfSVx+JgqQ2y7R2hqMzVJMcOOJoxUGoWFXIbx9R49fuW+G3/r4g3zgnpu4ZQoKArGtCFGxWQ/JSgJCNimi9SrknIxkkkr9XYwxqbmT7Vb4mEZuDNN9mB30yayhqmrOzy+ysjgCm5GVJVmWoWgKnbsc1i0C1yIU8DGgIqnbwKoWkox4xqRqiiZ68timZHlbghe8ZDRZwUsvH2R5eRlcQa8/RS93mE4jShfWI6IYl45FNUQk9Xt9KxL0D/7Vv+PokUMsLI8QVxJNTuOTamZscjvEGJMEuaK4/BtagX5GagUvrlO3HWFckddj7pgpef/em/m197+d//a3PsT2Qph2idSiinUO53KCTxbWFJ64RsyUgrZBek4ujyZ/KCZVJUxOGZvcJQoxBELbkPkRO2ZLts1OIVKwuDji7MIy1uVkZYnkligxdR2/HK51gsYIre8SBTorK0ndddZiDBiUnjMMMsvK4jJUY2T7LHm/x+j8OZZHNaeHLSdHUDXCnDU4l1EUkFmDNU3a8xsBsfjkpcKatyhB//m/+x/Z//QBTi0M0WxAMDmxrru9XiKoRv8GNL+9/Ew0ouS01G1A1QB5cnwHz+6e5YP33Mavf/hBPvWBW9hmWvq562oP+WTQ6D7DGoMzSSKu+lE7bCQnJMkgbVgtu+IRmqi0SmcUSdLCOcHaZZxYXJaR9fqUU7sJtse5lTELoxGtRnAOvQEImshoIM8wWZa2QHSSVCPq06LVjCvGo5apqT6utF31igVsZjFFn7H0ODY0zJ89T3H+KFmes2NuijKLoGNaX6U4fVOsrgPJrfwWJOj/+D98lsX5JRZXhsxXNcs+JGuuM5AZnATUj4mafHopyoYkEXyLGIezGWCJ3T72spNMNRlRrJALZDFi2hanntwZJFMiLRpraiLiUkVA07RM+Zp37Ojzmx+8k1//4B4+dG/BnpmIxaXE6m4PqdLVNFr1p3VfagNB12OVrOlJ54xPrxnAiaRIo+5lMQY1BY2mAthzueGmnrAjgzAeMWxgmZIgFufPkLmUNK7qUt0jW6Rr5lswAWMnTr9rFBONVpPLReIkTrfbh67+h86IZNNeNca0WCZV1na+dahq4dSS5chixTAoRT9j0C9wNpV5bZoGI+m+BlWsKmosZ1eEJ+YjTy4GtvsBDvAyBiKW1KD4NcdlJ+jVxjqC/p/+7WdxWUmjytmlIaeXVlCXQZ6DQAwtMfiUmItgrcF2s1Z96mr2/2/v3J/kOq77/jndfV/z3l28QeJBAiQoiqTEl0UplijRkkuSHVspR45deVVeUkVMKvk5v+hvSiVVcewqy+VU4kSOpMiWJdmyLUsWJREEFvuYnbn3dvfJD31nMViAxMICSaw4X1TvzJ07mHun535vnz59zvmKsYBJWQ+GpR/qTSCpTKYAEiImpNA4ESWQpAmTNIOBaMFHytByuhKeeWjMLz19jl965iGeOdfnVD/gqFHp3fzsjpx0IWbL7ZaR8s2wf8tOm6bzYO6Ts2sRaLFEDdg4p2dq1jLleFVQFX1qcWzVga3ZHGwgDaIOazIMJqmHiUKWLm6NHrmveSD3F8KCjImgd/yZRZI9apIUYlRFxKb5adf/i7d4Y9kMjte2d9jamRKD4oyjcjm9Igf1OPFJS0csNnqicbwxhW9cb/m/N2r69QCMJ2Rz1IDRu0dsPfD8XCbov/3Cq4wmPbLeiLmPXL+xTdA0Pws+Ej2JnLa7cIzBWocYSa7wTotTJOlxHgbGGAb9IW1bE5oGD0ieE62lrRvwEUyGcxX9mcHt7XKmF3jh8jqf/fAlPvHseS5McgYCeciAwaHVsw9F0ENCUBweR4uoh5B0a0b9HmsbJdb1mO9dZ3P7Btv2OMwjKoIziqMl1LvkmaEocoKCNgFZ9PPPA7quXh6zUmhlF/abRUKvoW5nbN3YYfONPfa2ldwOWB/1qYocKw0qAcRh/ZxgUizu1zf3+OqNPfK6JDqP74WkLOAP0X+Hu1TeRSwR9N/8839GnhesrxUc2zhB7gxvXL3KztYubTSQ9cH2UuKuD2iIBAEVk+JMJZHWmVR79rC+XvEBr51uiLEEK0RjwaXgA2nB7rUMtlsuH+/z8tNn+MwLD/Pyk+s8XNYMbCALFkL6QdQertfvJ0HRAH4PMZrM0xgIbcC6goEzjCvLet7gm5pv/jSnnIwJoSHsbeNjzfr6iKZtmd/YRsnoDcf48HbVrHyHsdTNB43Kxba3NTHbIWKZ7Tmu3xCuX1d2dyLG5AwHGVUvVbVXVUy9hxfYnME3d1q+MW2pfJ/oInWZIo6y9s2nMEcHSwT9D1/8AvV8hsWyMXKcPXGCtq65vrnN7l5DE1PVvsJ1I2Zn4nQC8+AcmTOAEnzbBdEvDnHnhkJoffoEZ7uWIoKcCkWIZHXLMHqevzDkkx96jE+98CgfvDBhzdbIfBvxCiZPI7ukWIrb5hpv0u4fNAUwmJRl4yVlehifSpcOXOTUyHFsMmQ79PHbP2W+t4N3DqohM7WEVsAV5MYhMdD1ys8BFuvJyaRd9Pp+76sQ1ac1U3rYYo2sGNNEwxvbW/zt6z9mr50jvT7VYEjPGCwRZ3M2d5VvXp/xja05ozDGWKWxLWgk727YRxtLBP13r36J3AhWI5kYRj3DxtoxVGF3OmdnZ48QAkZSZos4h9jOgxcVsd1CfPTEZo6x2f4d8s2aEaHMsu5i7OoYWQttje5uMVTP+WGfZx89w2defphnnzjNIycHrOcWGxXxKUYXZ1FnCPbwofz3l6DpG0U1zMXhTYZxRRdPCsZ4qiyyXjnOjPrYepO9esZOEBqpQHqQ97BZThaSHENwhwuqf+Cx1M2L3335ZQGMOggl2lgwFskNwXl22ik/3d7kRuO50TiQnI0yY2hy1OZsTpVvXN3ja29MGbYjjBG89Qgkq+puuJ+XwNuC1GN2Mpl8+dUvfQmcxXQLzA7L2thRVWuA0tQz2vku0+kcUchdRpYVKCZ5coVuJImo94jtvGh3IOZ+E8HlGV4jqskNaEODnW0xjnOuHBvy0pXzvPLcJV74wJDTk4K+tWQRTMzAlGAd6hRPS6TFcnfnwP0lJ+nbREsrltakrB8jgrOL7J8U0VDawCP9yLg0NFG4PoefzgApUyEz3+JCgyHif14Eijpv6W3E7AwEAWzMyEOP1ndpaK4lupZWWmbes9UYfrIrTPdaithgosGWObu15Vs3PF/fnDNuRzgjBNcVOYt37z/Z//OgYomg//qLX8SaThEMiE2DkLE2dqyP1xjk0O5t8eNrU9QHjFjEuFSo0QcIocvtlZvRJHeBAk1MYr5OwPmGot5lnYanTo35+Psv8MlnL/HClTGjfE7VRWOqN6kkvkluwFTtvwUCTsrbTNmD7W1BSGoR2tERUu6jJS20g0kB5rLF2Y018mrIvBW2d+ds1w2hqaGdI6LY3P1cVGhY2LSpx5f/ctNDo6R825ij4onSgNSo+GRRuYo6FlzfUX56fZvN61eZz1uywRpztfzFzPFne4FxO8YYaG1LRLF69+vvSBH0n/zrL6DG4rqwPiOGrc1rVHnBqYnjzLERwyxybV7R1p75vKZuFbWWKLarzyOItWTOJbN3/xB3blEjzHbBGEqBoUROF47nzp/kV158H5967hLvf3jA0DTUu7uUWUEuGYjgY6pJa0xXe0gtNrpuqeddQLcalJYvI7FNwkyGtPwUrQWbI9ISPWysjTl3fMLEClf/5i+ZT7coehUxy5i18e27kbyTWCao8KbrjkE9rdTYElyeYnnVCwSLoUyVsMWxt7fHX/z0dd64tskcZepLvu8t3/OOsRYEVWZSEyVg9e5z0CNF0C/8h/+ItUkvJbQeDZ5Br8IZJfqawrScPrEGa4+xN/dcu7HDzl6NZCVZ0SOQ5qKLuMzDBNSLEbTKoZ4Tm5ozgz4vXXmUX/3wB3nx8VOcmziKsA2zHcrsFJYsxWcaj1iPddppjRjEG0RtSrh5NxAUaIlaY6SltEJhLcZmRIRGYYawFy24klKENSecHmScHlfM6j1+sjNlKxgoemnx/4gjWSxL28s76QZRVTRroZwSTSCowYQM4wuktWiTwgYzp4ReCUWPq9de58buFjd2av5y5vmrFkZhQBs8dVajRnGHiSRailt5MLFE0H/36qs4AaNdyRIRjHPdN0gxllVRMhkbhoXBaMOsnrE1nVI3bWeOGCCgviXbr6gXiXhC9ESNqDiMFAgF4gW7+WPODQteuniKV546z8tPPswHLgw5OYTSgcaWNoLNeylSoBt+93MDF2ar6SIJDuslut/owopS1orFSHJ40DmKFk2tIxODjYE8egbGcqw/YFANiWqYzmZMZ7u4zODUUuDIMWQSgRlB607dqwIpMdreZpkcbO8qlu7T+0kvpBNTUlL8/puCSXWHu3xk8Ih6jHiEADGV/tSoTDVjV3rMbA+bVRTiaGkQKxhJFlx3oaQ+uBMZ90f1B7Wlv3YymXz533/p32J0Ia+X5pGpxEQy0YxYDMIoV9b6Gb0yw8fA9a1tNneTmWozl1KDQqpbExJdO6GxlLImxkE0BA/Wt1zKp7x46QwvP/Mov/i+czzxUJ+1Mi3goz4lt5kufK8jASQiLAiKvMvk7PophRSmMLb9E+ouDCMp6D/dYyIaU9mPTIRBWTAY9MBmtO2Mnek213an9IshhpIYIESPzSNBWjQIUILJkXgI/ZOODO8KDuTb3oL961CSZGRcFJ6LaVIv3aqBxLSM5VskeLA5Xgp81iMr+4zKHpiIJ2JMqlyRCmgtlnbS9ZJ+jMVvdZMEDyoWjjQ7mUy+/KUvfeng/tsgKK7dY1CVDPp9yrIixMh0OqNuPW0QVBzYvEuEluQgsXlSPjM2pavFBhNrJj34lWcf4rn3X+DpS2e4cLJgXIL4ORpqVEMaya1Ld0XSyL78eNSgqqg0qNaAx1jFZA7jDNFZ8jKjiYE//8FVBoN1fMzYbSIeJeuVKeqxaShQKgvtYdPXHngsiNxNkTQ9l07aMe1KU6g0AgtZXlBUFXmZpDiCakqNFO5A0CPRCbdASN/5nggqWmOJTKqCk+sDzp4+TeEsW5vbvHFtk7A7T0EDwx4UFZJVKRHXB9jehfkWgzJy7lSfZ584xT//+JO8/+JJzq47hhZyGpwEnBWsGGJUYojYrgLCUSaoqGI0gHii8USTguOtQG4dg75jY9Rj1KuYS87W9V22p4GQ9zD9MU0M+LqmwFP4GvE1Tdcvb4kHvau6uWh63iW4dzu62/zNN77XCLoYQV999dVbliLerIGB2qMxklvHuLScOXGMnIiEBh9qCA2x3YPpLuxNcbMZRVMzkJbzazkvXj7JJ194lF9+8TLPHO+zVggVERdbTPBdpkkGkmHICNHislREav/kj2CHgyCakpoXFxkCqVKuUmDoW+HYsOLcwyfYeeMas7ommAxvc+KsBYU8zzGhpW4aYl4dPMjtOBJdtQi670bQxWs3N/ZLgb5nCXp3GLSTdxAFo4FMIuOeZX3U4+S4x4lhzrEKjg9KjmXCyUw4Nyh436l1Xrh4ig8/fpKPXDnF8xc3uHKsYhA8pQgZKXEFFehc7OCS08XY/eywmzeKI4qQ0tOSPIbFYFL19ZhKfeQIfSeslzDMDc7CrG7Y2p3R1BGyErGOKEIUgx5GWuEodJculuUW8kwsmb03tyW+dwi6uGnJ+fPn9dvf/vbBvbdBEWpJKxk2kBTNtEFchpeca7s1P7q2xY+u3mCrKdje3qOtPZkrOD4ec2p9wPpQWB8qo0opMwiNI3Pd+qWkKPuUvmb31/chOS6PZB8vIwJNCmhobdq0KFkIyXsJHZsC0U/ZlIKv/XjG73/3Gn/wvS2++zpMpdclSguCTxKQd0EK5HiX8FZOogU05ZSmOkRJQSCZut1zSdsSAsbHlHoqhmowZLS2Tn88BrE0IWKcQwTU+zsSdD92/CigS+WT8+fP63e+852Du2+DArOOMxlgI7DkRVQR2ghNgCAFdQ2tV6wIVQ5V3hVoC3X3/xS1g5umc2fy7bfuoEoXjHPUEYAaQg6LbCjX3exIcR6pc2MLe9ehV7Kpjj95veEPvn2d3/1/1/jO1chO3od+HzIw852DR7kNR4GgJizWfVPa4p0ISgjY9yBBD704IWn1Deu7i80ArgSXs1c3TPf20NAwKAx9PMf6kTPrwok1ZdDzqO7h/S6RCK4P+QjJHGqFRlvmocETU9VFA2qUQEPj9w6eytGEUTTzBEm1ZGXfrO82LLQGGpdB7zj13pyRmfHi2ZLPPXuaz1xZ58l1y3EXkHYK8+nBIxxJLDy1+63j0KKSfHrT0vP3ELRb+jwkFAl7ZDLDUuN9y8wH5mowvRHZYIKUfbxYjFOwHs8eDTvMmOKzQKxyQlnhraONhqAtUQImF1xpwEVaauq4i9cdsHOy4hBLCd2XeaAhClmL2BZo0/186ZQbYIayC2w1BtNfQ/DY5hoPFQ2/+qFL/P2X3s+l4xVF2IP654OgLJFyhdtxDwQlpXcZB8ZiugRtJ6lahxMhLRN3xYtDig6R4LAxNRMlZbwoqOh+5I0Vi104TbA4yTEUXSsPnsUd8eA7AgQhw+LIUonmNK/uYhqsQAHkGpPUAaCxRGJJz1kurMEnHq/49ccHfPqE55F8TswmxCZg44y+qSltJIohmqRwnYWG3M+66UM3hXgLpJq096t15uWdDrqwHLopzMLKj7pwEy2KqHemXidIpUSM6YqYo6mCoBFUY3pkSahq0Q6MzkelQbpA7oGgktY0JVU7MMaSdSrKtmum64RU7d0g6rCak2mB0wwTJTkE8FiTFLn3o4KQjqAOJzm2CwlMM96fBwjguluQwZLmSPsEBQqEUsG5NMIiBWIqrMmoDDyyAR+7NOazj63zCycroKHoZTgB37YEn/Rj2Fc8F5x1SxbiQbIs5nsdU+5rWw6k6wi7uPj2j5mOu+DizRSL7q925TliIigdKdGIkpIKREjPTfo+qreScvE1byHqEWr3QNDDQbpas4dpK9wOI4JzOdZmGGOxJhVoM0Bp4czxAU9fuciHr5zhhd51rmwU5FnFrHbUc8XEgLS7aKhpXYkvRzd/8IMXrx48+goPGt4Wlhwk4p3ag2+SvjsQkZT2h0mxy8alYF4NOGBcwYVTJZ/6wMP8p09f4cz8NXp4qEZATrt5jVFlKYoMH6CexVQcUcF2j2/WVnjw8LYQdIWfDdrNyWAR2N2ZdW0NrSeLyoki8qHTGf/qkx/khZMZx3Ubm0WKjePstkIwNn1KqG+b37xZW+HBw4qgDxi6JUBi0CTAtE9SxYimwt7SUtrAKIPnHxrwj557iE8/PuJCr8XEiJQjvAdDS54lyciFvXJwjrO8b4UHDyuCPmC4OV8UVBdV5rsi3MYkz6WkOk5tEDbylpcvDfjcMyf4+KURJ4uADYEMpa8tlda3+2/epK3w4OFtIehCsfpubYXbIZJy31O+vNBl6QJJC1U7DU6vMCfD4llzMz5yvuI3nnuIjz8y4Hi8wYYNlDEQ53Xykh6irfDg4W0h6Ao/G/bnhaYL4Q1QB6XVVD5lHiMtkBWOYJM8R585T68Fvvixi/yLD53leHsNv1djyrVUqOBACwe2VwR9MPG2EHSRdXK3tsLt0KjE9mZxcDFgnCStTOswrsBkKRAhxEArOcH2Mc6x5moec2/w2ceG/NpHnuH0mYfZmuotJLxltFxNQh94vC0EXeHvDhFJyQFLwT+LQJBFc2LJjSGXNNdMElQ5mIqyGPDIsSGfuNTjt580fPThFmaeXHJysdgQMH6KZRdhCrQYl5Pl1R35enCeqhyIM3iThioak8NrEfi9v734oLj4sO5mtOiDO3mW9w+cHqX7v7J8QlFT3ujyOUYlxkiISfV8v91hyvVOtcNBUQ0rgj5wEBCb6hl1m3Ruov1mSUprSfAxdFeiRaWCbECvcDx+zPGZJyp+4+kxV04OWachn9dYH7FdCZnFBeCiphTCA4OqLk7gdoretWn33zQuEVUXUUELcqa2f8wDpEzk69r+aXQk7Uqi3ELa5fdygBjx4PYSid/Btv817tJEFCTJh6xwFLH0gy+eR02jhQL9quTMyZO89MR5vvjhh3i6nDGYbWNbg9o1gqwBIzLNcXszdGfrttFzn5sr3DdodzO5a6OLyjv4ASscDaSQyi4CWpLQsAq03icZBSA3lkcmOZ8/H/mXv3COj108wQiDv15D00fydSQ4pA7Y1qfP5eZt/CBhWexb4e2HpmiyFUGPNDqPj6RaR8ZajDO0bU09nxGDJw9z1tjko1dO8KsfepSPXF5nvWxgdg2dbjNvIz7rQzXaNy/3ibkwOVekfMeh0SAxXxH06EJATXJ+aPLUYjqimnTnNSjWAIWjyj1PP1zw2Q+c4NNPjjjf30Kmr0GYUducPdsVIFs4aJZGz1umoSv8zDhozd6pxWgxsVgR9Eij+zFDVIKmLFKVlCNpu1xdjCOUfeZ+zolK+cjFkl9/ZoNPXi64NJ6Tu3lKII9JWnJxQdxC0iUP6wrvDDRCJnZF0KMOEdPlNCtBA20IhOhBIxIjHmFbSoKx5NScrVo+9HDB555/mF9++hSXjxmMmULcu2XuSUdSViR9V6DRU7jVMsvRhoCxgnUWMUKIig+eELrKAiHgm5Z63tLvD6isw8xnDGl54eJJ/sFLT/BLj63z4nHlVHWzANxi9Fx+viLp/UFy4t6+Nnpbk5peOVsR9KgiBqWpU/kYAMFgrSPPM6qqoCwKXOYoM8u4zLBBUyWMYkCR9ajE8uj6kFfe9zCfvLzGE5OkDbsi4IMBoaHM6hVBjypEOgG1RXQRkCHkWDJxmC7ZW8RRYLGLN1oD1iIKI4GnNko+e+U4v/bUCZ45WZC3u9RNiydLVR3aGXk7pcwsZP0UDJHKLu7HDaYaRF192xCQ4JEYUkjhm7B+MSInx9OBNy05pEQWfxJCV48orRAKMYJGQbDoIgNo//PeqrH//vvRlr9sem3Z6bN03GghptpUVgyKoZWM2la0bkBLRt14zhWeD03aFUGPKsQILkuV1GUpwmhR3Wk59shgkh6rKFFi8vgquOA5lgvvOzngY5eP8anLI95/LGPsIhIDMYIRg0VTnqlqusgWF5xK56i6GWYnRIwu3rt8wjcfhKVwPrqQxu5J4uaigm13PNK6LyixI+g+ESKoJmU5MB1ZFjeQu7U7pPT8HVuqw3WTrAfJu3iMZERKjBryGMnV4zT5DNoIbRQijoujgg8dX3lx33NYTlJYPBcRTvYdn7w85vMvXuAXzhSMdZdmPkerNdpizHS6SzZ7nVK3O84shrkFpdK1ijGIsylc8WeCdub7AaI/qFgEAC1G/qV/y/vVOKK1BN9i/S5DdpmwQ7/dxOxdw2nDaNjjzMl1zp4Yrwj6XsRyNtHicVLAC6csv/Xccf7hB0/wwqmckTTULdS2D9ZSxill2O6CdhdRDDcDbdM/ISI31SwOAaUbhbu2fKEfHIgfVCy+PfsWwe2ZW4qSi6ekpm12mTYNNRkx6+GynIFtOVfN+eCG530nMk6NVsss7ykcTPG77SISGJmGlx/p8xvPneYTT2ywXniY16jJIS+TvKR0mgSmUyc2nToxoBpTPHC8B2YtyHjwhaVNPSpMhWSW75vtt+6x7ZSivUFRVbB+nuuD0/wgTPjRTkBmN3huvMs/edzz0dNKz9xcl17hPYaD5IwmQ6WApuahfuTjl4Z87pmTfOzyhEk/kWNPK2pKJCYnkBC7MGBJKtbLV+Q98WmJmqr7hNzXabm3D3tXsMzFdN7dWWu3vdhvLZqVeMnZaYTtPQghst7LefLMkJfO5Lw43uN0NiUXvyLoew0HR9HFax7YAloyMMrZofKL5yt+/anjfOzSOqcHGaqOeWuQTo7exIDt9EOsJNHlVFK1q6F0D0gX84KItw2pRwBLCbwdKW/eZBYMFhpTskufeRNg5w3W66s8OdjjlUf6fOaps3zw3DpjE8A3iK7Szd6TODh6igheYRaAqgRroZ1xMpvyyqOW337hJH/v4hqnK4vzHqsBGyM2pAJlJibPbaqbb3DGYu+BoAty3srHJbIeAfN2f97ZjaMpD/amqS+kft5rYXsvUPo5j2XXeWX9Or95oeEfP5nzmUuOhyYDagY03hG4B/nBFX6+0YTArG3olSWOQLN7A0JLMVpnVwq+8ucNv/enr/FH37/O96eRqJEYF6oMqZhZqs+S1NCjQHuQXMr+8ovs74roIqZQ6couhCTCq3oz01sjJrapXnBUeuNjTDaOUw2GtFGweYYPiRD2DlbC2w1jJKmnd9UbUoJ4R1xzU21BZzMmOue5syUfPue4siGc7hkGRUZeFEmzR8EHUFahfit0yE3D2N5gb+cq0wCxt4Yp+rC9yWBvkw+fdnzumdN89LFT9MucKivIjMVo0uOMjSe0Hm0D2hHlZ8Z9+Ih3DstLKomc+2bu4qYEfPjiiP/4sdP85tNjXnqo5JFJxnrPUTqLi2C9YlqPjYEoFjuZTL786quv3nqsFd572PdyZBhX4IzFIGnUM0Ke54xKy1plGTuDTneZTlsazfBZRms9So0xDmcrhCxF/cT04dYYjEi6aGNIczPpPMCaZJMWyyy3OobSBC4FQdAt+ENW9il7fbK8IGpKXo9dnaJDjTpiANuN4jedXOn8IohirQETUQkYZ8E6WhXaqISoGKNYoxg8Vj0WRW1JY/vMNQeFifE81p/z8omGTz/U8qlzjg+eyjnbFyY5lM5gJSnMJ0NCEW56yVcm7gq3Yfmuf/D5vFVeu9Hye9+8yu/8+Q5/shm5ruAzj9BCdFhKlIyAJ4bQeXrTDSDEAN6nm4F16UXfdgRdmLgLs1ZRjQgpjBANSeQsRnqTDSYbJ6j6Q1oFm+WdiRuxC5P5LSBiQRwxBBDtnFsQYyCEgBhwzhKJtDFSuAxE8E1KRkDAZkk3MsaItB4bFJNViM0ojHIs81weeJ49HnjxJFwaQ1XkBNPl3t4FIiuCrnAHvBk5AaJG5lH5cVvwn7+2zX/54x/yZ69NoRqSjyu26y28n4LNqPIx3idZxBhDIt5ifpjEPdMk1jfvAkFTeKACIrrv3VbVREDSuQYcQS2FNhRa42gwBoLLmWUlN0zJVC1mVjOaT9kwMy6WU66sK0+d7nPlzISHjg3ILdRAEaCvqbzMW2HhvFuZuCu8KZaXZBbPjXgKU1OWJaO1Amv6zHYC11+vCT7D9B1tWYPO8bUQNclUJFtZsNbinMMiaAgQlmohwYKl+1vJ5Fs4lzpPrypZ2btp4gLGWmJnHptD+IhEkqSbMWkpJMbFeaZzNOJQFTJxlGKJTUNomhTt7Api5pirsDuvqWe7VGHG4wPlFy/0+dz7x3z60ZwXN1oeymcUBKKraLtchSzcXTV+38O+GkFXuBMOjpyL5yYEpG3YtZ5pOeCHW47//Wc1v/u/fsyf/HjK1lCZDuYQG9h1GOvSrGoxKBlDZgyESGgbgkZwKdXtnRxBF5H6Ikmw23ekcdaRZTkilhACxs9xsSG6HiHrU6swrz1+dgMbNjkzhDMbFU9sVDy9XvHwesXFibDmPH3m6cNVqCWnJcMiZJ123VthIdG5IugKd8QyMZdfM95ADSHfYlbMmVHx2lafr31X+e9ff50//ulVfsQUdVBqjhiHj0LrYxKUUZIosUaIgYASbOf/fAcJqhpRiYgYVCHGRBprLM5lqAoheNAaMS0tFdEOEOMoYmAUdzmb7fDMCcP7Tvd4bMNxpm/JihIxgghYSfrwFo8JNfgGTIba3sHTuQ0Li2VF0BXeFHciqXiBBigDc35IawOBY1xvxvzPb8N//ur3+NqPr3K9bXFZTsTQqqONXcpVBEFxGjFEoiitvPMEjTES1CcVc5uin0S65RFVgo+EGAgOYi7EuqWP4Uy/4JFxyeWJ5fJAuTQRHho6JnmDMw3qSvaCxYuAvZmrW9JAmAEZekgnESuCrnDPCKnGGBm08hM822AyIifYin2+8qc1v/u1v+SP//on/GjuaRWC7WGKPjYrQQzRt2hbI6FFDQSTxCveWYIqPkaMGPLckeUOEcX7hvl8Ttt5ln1RIrljLe7yWNXy/PGC58+OeN+JPsd7iYAxQNsG0Jqq19ufRQeN+JDyb511yXHdtcPiUEtGK6ywgAp4A3ttQM0xcnMG5/vI9DonzJxPvb/gN188y0cvH2Nc5uSqKXY3Ks458qJAnCWgeCLhDqP0OwFjHJmrQC0hJGmIqBEfPG2YY2ygP8w4W7Y8l+/yucsTvviRC/zT50/z8sOWM26LbH6DGBq8A6ksrkzkFBSjnoxA5aC0hgjMfKQO9/Z9V17cFe4JKi3B7qGuJHhDaHJcdBQZGDsjiy1rfUcxXOMqG0SEWROpQ4r39VGTNzR4jANrLfFmDM5iGF0+4tvixXW2wLmCtvWE4IkEQvC07Rzv5/T7BesbEz56tsdvnS/4hbN9Lo9gbMGqTx6vDHCK0uDUk3lNTic1tCl8gYjBCDgChTRkoocaF1dz0BX+Toi0eGpUe0RvIEAmAWdrkBYflCA5b8xzvv5aw//57g/5w+++zp9vKpv00aIPJoKfITpD1QC9m+ujMXSez7RuKhKwKLKkTIYRhqMxw7V1yuGIYC3eGNqgGFVKEYIKEQNi01w6eiS25BLJLTgRQoTNeWQaHSbP6ZeGE1XDhWrGUxuBS+uGx8cV56t+MoMtiAY0epC4r0IXidhosDgQSxTDojDLIlU2vRI6cibxqsNgRdAV7gkxRrz3t6yRLrC8NOMIqG/55o+m/M53NvnKX+/xJ9cim6GAIgNpwO8mJWEGXahRml8SPMRulJKI1W6M7Tyrxlp6gz798ZhqOMKUJbWmqbHFUIjFt56oKULICGiMxJDC8TJncHGOtFNqKYnZgOGg4uw454kNeG695tnJLheLXbA9Wia3ftE7wBiDtfcyuzwcVgRd4Z4QY0yhcG9C0H3Pb/QIgVAO+c4m/M43r/PfvvHXfP0HV6lNAf0+4gwSIrbVlA3SBTXEGFMx7thNelXBCZKD1i0g5GWf4XDEYDgmL3sgJpVbsQ5vDDrbxfkphYlkzqK2YKoZ27FkrhklNafMLqcGwuU1y+PHDJfWHWeHjrWeJbcWEciiUsa7BxYsslXuN1YEXeGeoJ3E4VsRNL0nEFVxZcUe8BdX4Q//7DV+9xvf449/cJ0dO4DRMTJjsDubGAJGA4a01OExtGR4k4NkYAKYPfARbEbZGzEaThhUIzLJCD4SfaDFE7NImTl6hSWzhhBh1gS268CcHHUFlzZKXjoN56vA0+M5T4wajpcNWAVbMZMxO0kWmVG3RvpWWET+3G+sCLrCPWFBwDtdjMsjaASCQjOfY21GKxk/3G746l9d479+4/t89SczrrYFmAKjYLUh03a/BGWISqMWbyvUVaANtFtpDlf1GYzWGA7X6Fc9rFpC44ltIHOeogc1BdNomDZK2zRkseZ4Gbl0vOT8Rp+nTlR84JgwcrCRe8a2QaTtZo6WaEpaydKM8RCe5jv1x/2AnD9/Xr/1rW+9LfbzCu8dLM8/gX1HSZjtkkWPs4Y5BT/YE/7H3+zwO3/6Gn/0/WtcnVoo1yG2ZNKSa4vEluBbmhAJkiGuQKJHmz3UZmT9Eb3JhGo4oawqjAgSIiZGnFHECjstbDfJ3zTIIg8PlQ8cE547JTy2LlzsCydzAy7rsmpsEv1WRaLHkFLOEJtG8HcJdjKZfPnzn/88g8Hg4L4VVjg0Do4gqcICFAYsLeJrMiL9fo/Jeh9xJe18j625Zxp7oEpEUHFEY1OSS0geXYsnC4G8FVxWklcDXH+AKUrUGnznITUm0Khht3WgyiSHS+uWF84UvHyx4uXzOc8fh0f7NWNTp3HeSud5telTJG3vF7yUrlLEuwQ7mUy+/Pzzz/PII48c3LfCCvcEEbk5knbrmVY0kcB7QoxYl9ErHONhybFeTtTID65Nie2M6FuiCoFEGKKCRDIJZFFwUpL3RhRra+SDEabM8UTaeobWU2hmeK8IBRfXCv7euYrPXCr47KOOj501PD7wjPIIrcdrhtgBYpLlKMQuLE8wIgQRvFhU3l2VazuZTL5cVRWvvPLKwX0rrHBHvNUcdPGYyuWmokVpbT7HZBXGOgzCwMGF9Zy1ytLMpvR0RlPPmfmAqgWbg3U4ZymcxRUV0h/jxmPceILpVagI6ltsPWNMZCMzPHGsx8cvDvj4+ZxPnBOeW/NcKKYUupfWIaXEZ0N8VhFs0q8xUZFQQ2j21yoXJvoiPO/dgpw/f14BvvKVr3Dq1KmD+1dY4TYsiHiQpMteXJGIEPBBQBxiLEa6YmFhjoQ5Ip4breWb14U/+s7f8vvfvca3rgauthW4PlhHbjyV8eRVDzc6Qcwc3mV4Itp6Ml9zzCqPrQ+5eKzHc+vwwuQNJv2CQWnJbFcKU9J5eHHMO+blJu2KUTEaMaJpPisASoykSkPdKPtu4P8D5VsGa2djvo4AAAAASUVORK5CYII=;" parent="1" vertex="1">
          <mxGeometry x="-280" y="260" width="51.1" height="50" as="geometry" />
        </mxCell>
        <mxCell id="Q2nGS0bZSRsdVv5VAE-j-11" value="&lt;b&gt;Dockerfiles&lt;/b&gt;" style="text;html=1;align=center;verticalAlign=middle;resizable=0;points=[];autosize=1;strokeColor=none;fillColor=none;" parent="1" vertex="1">
          <mxGeometry x="-300" y="310" width="90" height="30" as="geometry" />
        </mxCell>
        <mxCell id="Q2nGS0bZSRsdVv5VAE-j-30" style="edgeStyle=orthogonalEdgeStyle;rounded=0;orthogonalLoop=1;jettySize=auto;html=1;flowAnimation=1;" parent="1" edge="1">
          <mxGeometry relative="1" as="geometry">
            <mxPoint x="-250.00000000000006" y="75" as="sourcePoint" />
            <mxPoint x="139.45" y="230" as="targetPoint" />
            <Array as="points">
              <mxPoint x="-250" y="70" />
              <mxPoint x="140" y="70" />
            </Array>
          </mxGeometry>
        </mxCell>
        <mxCell id="Q2nGS0bZSRsdVv5VAE-j-12" value="" style="verticalLabelPosition=bottom;html=1;verticalAlign=top;align=center;strokeColor=none;fillColor=#00BEF2;shape=mxgraph.azure.github_code;pointerEvents=1;" parent="1" vertex="1">
          <mxGeometry x="-294.45" y="40" width="80" height="70" as="geometry" />
        </mxCell>
        <mxCell id="Q2nGS0bZSRsdVv5VAE-j-13" style="edgeStyle=orthogonalEdgeStyle;rounded=0;orthogonalLoop=1;jettySize=auto;html=1;entryX=0.5;entryY=1;entryDx=0;entryDy=0;entryPerimeter=0;flowAnimation=1;" parent="1" source="Q2nGS0bZSRsdVv5VAE-j-10" target="Q2nGS0bZSRsdVv5VAE-j-12" edge="1">
          <mxGeometry relative="1" as="geometry" />
        </mxCell>
        <mxCell id="Q2nGS0bZSRsdVv5VAE-j-14" value="" style="rounded=0;whiteSpace=wrap;html=1;fillColor=#d5e8d4;strokeColor=#82b366;" parent="1" vertex="1">
          <mxGeometry x="80" y="230" width="210" height="150" as="geometry" />
        </mxCell>
        <mxCell id="Q2nGS0bZSRsdVv5VAE-j-15" value="&lt;b&gt;WorkStation&lt;/b&gt;" style="text;html=1;align=center;verticalAlign=middle;resizable=0;points=[];autosize=1;strokeColor=none;fillColor=none;" parent="1" vertex="1">
          <mxGeometry x="130" y="230" width="90" height="30" as="geometry" />
        </mxCell>
        <mxCell id="Q2nGS0bZSRsdVv5VAE-j-16" style="edgeStyle=orthogonalEdgeStyle;rounded=0;orthogonalLoop=1;jettySize=auto;html=1;entryX=0.147;entryY=0.019;entryDx=0;entryDy=0;entryPerimeter=0;flowAnimation=1;" parent="1" edge="1">
          <mxGeometry relative="1" as="geometry">
            <mxPoint x="-228.90000000000003" y="72.15" as="sourcePoint" />
            <mxPoint x="96.41999999999989" y="230.00000000000003" as="targetPoint" />
            <Array as="points">
              <mxPoint x="-229" y="70" />
              <mxPoint x="96" y="70" />
            </Array>
          </mxGeometry>
        </mxCell>
        <mxCell id="Q2nGS0bZSRsdVv5VAE-j-19" style="edgeStyle=orthogonalEdgeStyle;rounded=0;orthogonalLoop=1;jettySize=auto;html=1;flowAnimation=1;" parent="1" source="Q2nGS0bZSRsdVv5VAE-j-17" target="Q2nGS0bZSRsdVv5VAE-j-18" edge="1">
          <mxGeometry relative="1" as="geometry" />
        </mxCell>
        <mxCell id="Q2nGS0bZSRsdVv5VAE-j-17" value="" style="shape=image;html=1;verticalAlign=top;verticalLabelPosition=bottom;labelBackgroundColor=#ffffff;imageAspect=0;aspect=fixed;image=https://cdn1.iconfinder.com/data/icons/unicons-line-vol-3/24/docker-128.png" parent="1" vertex="1">
          <mxGeometry x="90" y="240" width="60" height="60" as="geometry" />
        </mxCell>
        <mxCell id="Q2nGS0bZSRsdVv5VAE-j-20" style="edgeStyle=orthogonalEdgeStyle;rounded=0;orthogonalLoop=1;jettySize=auto;html=1;flowAnimation=1;" parent="1" source="Q2nGS0bZSRsdVv5VAE-j-18" edge="1">
          <mxGeometry relative="1" as="geometry">
            <mxPoint x="560" y="180" as="targetPoint" />
          </mxGeometry>
        </mxCell>
        <mxCell id="Q2nGS0bZSRsdVv5VAE-j-18" value="" style="image;sketch=0;aspect=fixed;html=1;points=[];align=center;fontSize=12;image=img/lib/mscae/Docker.svg;" parent="1" vertex="1">
          <mxGeometry x="160" y="40" width="109.76" height="90" as="geometry" />
        </mxCell>
        <mxCell id="Q2nGS0bZSRsdVv5VAE-j-21" value="&lt;b&gt;pull images&lt;/b&gt;" style="text;html=1;align=center;verticalAlign=middle;resizable=0;points=[];autosize=1;strokeColor=none;fillColor=none;" parent="1" vertex="1">
          <mxGeometry x="335" y="60" width="90" height="30" as="geometry" />
        </mxCell>
        <mxCell id="Q2nGS0bZSRsdVv5VAE-j-26" style="edgeStyle=orthogonalEdgeStyle;rounded=0;orthogonalLoop=1;jettySize=auto;html=1;" parent="1" source="Q2nGS0bZSRsdVv5VAE-j-22" target="Q2nGS0bZSRsdVv5VAE-j-1" edge="1">
          <mxGeometry relative="1" as="geometry" />
        </mxCell>
        <mxCell id="Q2nGS0bZSRsdVv5VAE-j-22" value="&lt;b&gt;eksctl&lt;/b&gt;" style="ellipse;whiteSpace=wrap;html=1;fillColor=#f8cecc;strokeColor=#b85450;" parent="1" vertex="1">
          <mxGeometry x="220" y="315" width="70" height="50" as="geometry" />
        </mxCell>
        <mxCell id="Q2nGS0bZSRsdVv5VAE-j-25" style="edgeStyle=orthogonalEdgeStyle;rounded=0;orthogonalLoop=1;jettySize=auto;html=1;" parent="1" source="Q2nGS0bZSRsdVv5VAE-j-23" target="Q2nGS0bZSRsdVv5VAE-j-1" edge="1">
          <mxGeometry relative="1" as="geometry" />
        </mxCell>
        <mxCell id="Q2nGS0bZSRsdVv5VAE-j-23" value="&lt;b&gt;kubectl&lt;/b&gt;" style="ellipse;whiteSpace=wrap;html=1;fillColor=#ffe6cc;strokeColor=#d79b00;" parent="1" vertex="1">
          <mxGeometry x="220" y="230" width="70" height="50" as="geometry" />
        </mxCell>
        <mxCell id="Q2nGS0bZSRsdVv5VAE-j-24" value="&lt;b&gt;aws configure&lt;/b&gt;" style="ellipse;whiteSpace=wrap;html=1;fillColor=#dae8fc;strokeColor=#6c8ebf;" parent="1" vertex="1">
          <mxGeometry x="80" y="315" width="110" height="60" as="geometry" />
        </mxCell>
        <mxCell id="Q2nGS0bZSRsdVv5VAE-j-27" value="" style="shape=image;verticalLabelPosition=bottom;labelBackgroundColor=default;verticalAlign=top;aspect=fixed;imageAspect=0;image=data:image/png,iVBORw0KGgoAAAANSUhEUgAAAOgAAADjCAYAAACPbli7AAAAAXNSR0IArs4c6QAAAARnQU1BAACxjwv8YQUAAAAJcEhZcwAADsMAAA7DAcdvqGQAAJIrSURBVHhe7P1XmGTHlecJ/o6ZXeHuoVICSIiEIgiCAtRFUayuIkuwdHWxurenWnwtZrp7p9i9Pbvf9L71V/vQ77v7tN+smOnZnerqrmIJsqiLmgQJgpCZABIyBVKrkO5+hZmdfbDrEZGRCWSATCAF4p+fhYdfz3D3e6/97Rw7Uvbu3at0+A//4T/wh3/4h5OnW9jCTw1VCBFCGzDiyZyAAWKgGjdEFbK8ZLG17Duzwg+eP8R3j5zkwChyJhTgcxgCUrKtP0N/bkCzzZGVJaZ0IB58TeYrtlnYu22W2+Zm+MCU8HNFRZFZepmhcEJmwIqCRlQhqmIFxAoIIAYEIuk1VJDJMIKYjWf35kEmBP3MZz7Df/yP/3Hj61vYwk8F1bVhNCASExmAxkeaaAiS8cODy/xP3znECyfO8spyTW172N6AnnVkw2Wmq2Vm1WNmc6qbZ9DegDAzR+jPElyPGHKkEXoB+sDtA3jHTS33bs947w7YW9TMMgLfghdivg3vHKKQhSotGsakR4T0ixACxAjGCNZ2X/wqYJWg3/72t7n55ps3vr6FLfxUCAG8hzwHUYi+QREkz6iAE0tw4NBx/uapE/zp/hExOsSVmCxDJeL9Cr49A7JAZitMO0DrW3CzM5S37GZw0w6K6SmMBaqWrK7JfWBsYVTCHf3I+7cFPjCnvHPOsLefMeUKoKAJQARDi2oEAsYoxlrEOMCgGLTTLc3V4yd2bm7ujz/zmc/wu7/7uxtf28IWLgmdzNzXgCooirMCqgQVWusYGzhRwUMvnOOrjx7gh0fPcHaqR97PyS3QNMRqSPAVmgGDnNgvCGFANpwiLwcM5ubIZwbE3DBmzFJcoslq4ozSDiwjMcyPK44u1hxZiRyvcxZin1YKokbwFWIEk2dgHMa6VTVWSCqvkNTfxM3Ln6/IG8NiOzc398d/9Ed/xN13373xtS1s4SKo6qYIiiTNURI/CcYwUji6DD85tMK3nnmFhw+d5dCoJfYEJaBthTRjbGwpjaHISlQtoQKCIKVQm5ratHgTMM6QZRZnLSIWxGIQckAlZ6w9zjYFx1eEV5ZaTg1rht7TOEFsQWYgmqTGilhkQkQFVQGdkG4T5/sGkdTOzc398b//9/+eqampja9tYQuXxGYIqkSUiJHE1JGHo4stj718hq898RI/PjLP0aYgmBLaluiV4FvAYy1YZ7DWoHWgHXmQiE41xGoRXw9RYJCVzOXTTNk+zjukFlyjDKJQ2gEuK2i0YLGOnFqpODGsOOeFkzGj8dCrIUSDc2ANWBGESIwBjYKmjWnShzeBN4KgsnfvXn366aex1m58bQtbuAiqSgyhkymvJmEUHxp8aOj3pmjVcejMEj86cJSvPnmQ77x8nvNmDmZvAdcnH1WIU4Kr8FJBHEPwEBXEAhbjlayt8K1SFNNs23kT23beTG9uDu8sjUaiKBaDC5agkYZIdJZoDdEJLYG6rWl8zfvtkN+Zbrh1+wx33jTLLTMlMzlkRDS0BDWI2E6IKqDpbFVRFBBEBO1IaUUwk82qklSHDUh/9foge/fu1QMHDmw8voUtrErKCySDdgJFFYwQBXxUQmzIM4MlEkODiR6MwdsZnjxV8bV9x/jG06+w7+gCy+JwZR81QlBQLAIoATSuG6QP02RoIijqA9ZmTO3czuyemxns3IG3hlC3FGIwYvBrmirI2iPdOSnKct5Q92r2howPmj4fGwz40By8bRtID8gbKp2n0gI1cxQGnK+J9ZjoWxSL6Q3QvMADJZDHlaQzRwcmWyOpgDfgFSyQvQ6WbhF0C5fEejX2ItUtgm9bRBRjDYgSYwCbpEqn3DIOhicPneGbzxzjhwfnee5cy7nW4V2OsYIRRTUS4oQ9E2Imn+XqMRRRSQQNAWMcUzu2M3PrTQx278AbQ6haSjFYsbQXSfSLYUUSUWLASGA2i+zpwb3TlnfOGN45l3NbaSldSzQtmAxPRoyWqAYBrIVMIm1bYQScyyAKUaVbEZL7RiaLhHZu19dB0Kvogt3C9YL1ZFUgkGaOlYDQINogsUGj4slpKDheZXz3lSFffPoo33jmKM+cGrKoBdqfA1MQAwQ1IG79R702JE184VV0xVX18/IoGpheFox3nMewLwb+djzkc+fO819OLPA3xyq+dVJ5cSlS+ZpGA1GSuqwda2zwSKzJY4VTCGR442itpbaGxka8BCIeow1GGyRdvU1ji6BbuAivZQSKCi1gMgMOwENo0BgI4hgpnKng8WMrfO7Jw3zzxTMcWPDMU9IWU5AXiV0hokGT6rpJrEmfdezUNbV1IqU2g1oii8ZTGQFTYhnQ+ClOjkueWDB8/nTN/3xihc+dqHjkHDy/LJxvlNYHrK/I2iWsH6ZohqwEWyLrbElpJ6AEAkoL2kJsIW4RdAtXABN3ykayRsCv0iFA9EkNNY5gHKfH8OSREV9/6hBfeeogLyx5xr1ZmJqFPE9+SCKI4mIDob3g/TcL6Yw0Py2qvmVhV0HVE8oAOyvLLeMe25s52jDHAV/yjRr+fyeV/+kZ+OuDgX1nK5bHQ/I4wpkaTATJqU2fqAbTKK5VMgIOjyFiEAwOyCBmoOaCa/tq13mCrT3oFi7Aq00WkUSIQJKgfryC9TV5ZjF5QWV6nPbw0IElvvPECzx85BQvRkvUtGcjCojBGktpBBsaYlvRRKFxZfqQy+xBJUL0HmsyBju3MbPnJga7dtAaIdQtJWkP6jfBW8kFyRTfRKgViQaRFLSgmaM1SitK04BtIjebEe/uDXnf9sC7d2Tcva3PtplpPIIHpiOYqkqLlolEZ1DnEDIUg+nWMwVUwgWLy+T3Sy04WwTdwiomxNz4OCFn94Sgyni4gnMukVMMx1bgJwfP871njvLYi8d4ZeipZmZo2zbpxSo4MTgBox4TAqKRViyV2RxBNSj4gLGXMBKtI+hmjESqHtUaYyzWZFhxCBbUpK8bko7gs4LWAeOafrPMTa5l78By7/ace3bk3DpXsH1gucnCVOhiCJk8ChFHJEuB+J3KamVNzd1Izo0k3SLoFlaxnpjrpegFk0cVQqAJES0KRgqHl+AnB8/w7X2HeObEEseXGoZYtFcQ2zZZTK3FiqDe09RjiOCcJdqMZmIoeg2CpnkfwcdE0J3bmbn1Zga7dxI6N0uP5LtsJ3/7Gpi4dKwxODFIVGJUNKSMFjEGYyxkjmCFqlYaD05hykR2upbbBy33zCm3zVjuniu4fVDSt8KUhUIDEkIynKmllYxgwQlk6i+SoK9G0K096BYuwKXU2/UQjUgMFHlBE+HoAjzywim+/tgL/PilkxwdBsb5FLEYEBsFtRhxGOmyRFTwOLzJqUxJK9nGj7g0dC09RrUzCIl0ht1k2RUxm3ZhOFNQuiksOT4I4xAZ+ZaxNrTGE20kuojGMVIt4KgoigzpFSy7HofbnEfPBb55tOaLh0Z88cgy3zq9yOPLFUcbWFaLikHUI3GEyApia5D2ogVw4/P12JKgW1iDKlG1y+JYc1ikyd+RQCPEiErOy8vKd549ylefeJGHD51myfRhZge1ZEQfIQYsEEOD+hY0ItZh85IgLqms6pMlWOk2aRMibpCgoUswbQO4jOldO5i77RYGu3cQrCXWLT2xCIZ6E5bSIjjyJmMsDSuZp84VCkPmDAVCVnmkSoYeteB9TMEJxqHi8Co0MRBFEGuZ0TPcZs9y/65tfOSm7TwwW7Inh2kahJqQGaIxyVjUZKsmaRHBiKwF52+puFu4JDTxBI34zOAFWhRfNwyyglyBqiGijHoFz59r+PJTx/nbZ8/w1Kkho+DIZ6YpqfCjeZq2xedTnUNkTUKkiSiApCVAO98NADH9/wlBu0dVTVZbFWg90u1BZ2+7ORHUdQTFgmyOoOn9uqAo0RTS13EjvZYWCukuzfq/TN/9wiVsjKGJMK0Nt7qGB+YsD+7Kec/ukrtnYE4qRMdQW2hKGiv4LMM6RybJIIymS+ElINKFD17w2Vt46yLGJOWsYFEktFjf0MssMSor44ZaHIuas+/4Mt/bf4ifPH+EV84v05BB0aOpa0bjMYKS566bwmvqKCKoTI52M3ITBp0JOqGz6gVd9aGue5tNarjpG0iKIRTAaCKJiSCxWziQLgJ3/Uh/PQmlT0OZVsdOelhyTgfDY8OKr55Z5C+PnOMrh5d57CQcOz9FXQ/AOYyzqARabbsgCE2BRwI5Fte5Y7YIugXohGdlIhhF8OS+Jm9r8hgxRmiznFMtPHl6mW88e5LvPn2EA0fPsjKuyZwhc0Azwtc10WSYrLPMXjFM/IUXHFn9bcLQtWNvLhyBAk/pBOMcy63l5YXAw8fGfPXQmC8eVb50uuTHy44TrbJiM6LLsSb9rVHfJQgEYoydv3jLSLSFDmrAZxaPh9giGnAhQuvBwNjB02eX+dozR/jagTM8enyF48PAOCjSOeZTmQIhmIzwekL4fip0ROwYmzTSieR789EYz9jWBIk4HDaUtFWfMys99s/nfP2c4XNnlT8/PearZ1Z4cjlwrhFCm+GCS37iGPB4RtrQdCGBW3vQtxhezVroRagBaVcYxIlH3RCkYKnMeeJU5Es/3sc397/CCytT3QqvGFGMTYYSrCOS/KQpp/Lye0G0cxDCZfagIFHAB8TYtAe99Sb6N+0kOkuoOiORGOpNuFmuNLxRgoALQhYFlzyeeAy1gSGRGiUL59gjC7x/+w5+fscc757O2TsQZntAHmlFqQi4KORqtgj6VsN6X+d6eJOMQoQxjCp6tsCU08y38O3nTvKFxw/w9KlFDo8yFv02TL8kk4g2I0I7RkQoej2iWCofUN9J1MthswSdpJz5uErQFKiwc9VIVGIQk3JD32yUZDh1jLRlmZbKQbSGzFpKtRRByVplIQSGoWVXbNkrNfcMAvfdVPKOW6d52+4eO4B+TOcdtlTctzYm/jdVRX2L+iFGLNKfYdif5kgD3z+0yFeefIlHXj7L4cXIWErIHBHFayAIqLEElKppqNvk59u0Q/J1QCfcXTM9TY5esDe9Gmg0MtKAF8FaRyFCETxZU+GaIblWlFnLtqLPtnKWWOzkkJ3ju77gz5dq/uTkPF86usDh8y0sC7SpgMIWQd9CWC8910tQVcXEQO49BqG1OUfG8L2DC/zVEy/wyLFFztFnLH2aIGBaaIeEdkzQiFqLGkfwgdi2iEbMFZ5Z677tmk1o8utVJifACM88Na0J9I1hR7Ts8sJcE8nblhBaxsYTaSkj5AZiOeBcMcdzoc9DC4FvH19h39mG+XpNq7jCl3EL1zo2qrYTsjogB4jCqVHgxy+f5m+eeI6vP3OEw5Ul9HcQsynwgSyugB+Cr0EDKgasA+OSs50UZ3vFcRETL5SiFx57cxElEq1HxJNppFAoseSpCAttFEYBRmGRJp5GwhKDAFOxQNpp5oc9nj8Pjyx6fjiC4z697xZB3wKYTNlVT95EknauC0hhclhLE5QnDrzElx96hO/se4EztTCyfZaqiPcmxa76EYVpsXYixlLtIFOWuDxL0TfRX+Q9/Gnxan+vTM6lCxxYz9M3GXNiuQ3HICrjWHNGGk5lgfnS0eQlmfQZ1AVFHmF2AQ1nyc6fZe5sy+7FjKnxgIVxxsPnV/jzk+d4bGmUSjJtGYlubDQaGGvLLHnKE6tqogTiTJ8awDcMoqE2Ofs8fO/RZ/jeEy/x/KkR86HEuxlqb9Eg5C5HnDLSla5Y1sSRD9DFxU4IC+teS+y5gDur0rCLEAJUU6hfiuLZEOqnXZhNGxFrmNq+Y12wvCM0nj4OMUKtnfh5LXShi1cKk4UorRGazr37ACHVPBEFYyIWTQkvaohi8EArgaARIxFn4Dd2W/7RHVNbEvRGhqpisGRSMm5j0pdKh3EGHY3J2pZMHJWxPD8/4os/OcZ3nz7NsydqzlY5rRkQXYEXxRtPdC3RpdIfirmQgOsCCVKczSan/wWs7Yi6/tAFuIoi8jLQbtvY6SOJsBPLcyfaVRSiQaJDxBGtEI2iJk4CrfAYxkE4tlxzcH60RdAbFRPV1QKlQothmEFbCOoMWavkbUbdWA6cXeSbB47wjceO8/TRhrN1j8rN0GQDKuMIJhJtS2UrWmk2ftQWXgcUJWqKFEq3aELpRGsDGBHODGueW9gi6A2HjRZaiWACuMzgiYzxqeKAS2U6nj895Kv7DvM3Tx7k2WNDTo0zxtkcoZjFuzL93+5NIi0tm1Aft/CqUCCkOvqdDWBtj52kaCLpuSZwYLndIuiNiFXfpmra14WGvvFkvkKrhnEwLBeGp5bhLx4/zOd+fIRHD6/QZBYGPeygh2aWoCHVDBJJBaTVkLaJ69//0uNii+sW6O5N1NhJ0i6LBrraRWsSdFkcR0KKR9rCDYKNJFFV2jBm3JwCP6KvlhmZYsnnfPtYzf/toX38l31HeWF5AL2bMPkQsctEf55Qn4N6EXyLiMNKidMSG9/oGNsbG0pq+TJxQqmuGc+S9EwjZn2WbG+LoDcyVFMKk+25tMvRHudWDA+/eJ4/eWg/X3n+OMfanMrO4skxtkW0gjACP4ZYYwkUYnFY8Ibou7Inlxlb8vNV0BWxnhB13eFkVJo82oxa8y2C3mjQTrWcSFAxDrJpRj7n2FLkh4cX+Pr+V/je/qMsLAUoBmA1VUcnQ0hVCaykIl9WBDQSY0xRQ1uq68+ERM6UFwtp47nK0y7mOD0afDBbBL2RsJGcaWQ0cYqXlw1fO3iGv372CD88eI7lkaWUAQMNoEvAmBhnUJ1GZBprB4gtiAhVaGi1QW3oilVv4adGMtemH+uSz1eXPe3ka1BiG7cIeqPg0pJNCNGyPITHji3yl/te5OsvHeNU67hl153MeENz9gQ5S/RmcsZVn6YZEMKAoD2COnyIEBowHgqQYpP+zZ8KlzqHNbz2q9cHJgW3RUBlUjqlI+b6rYEqxLgVSXStQlUvKiA1Oa6qBDHUkgSaA2LbQvDkRQFqGNWpds/BEfzJM+d54rlDPHP0DGfHipcemCyVOJFAlgvGGup2XaiApEdlEsq3po5dci24FDbzHyebsYnkWJdmtnoM0vMYoU2t6qd2pEii/u6dBGsJlacUixFDe/FluyReT9uJNxupeNtWyZPrFjEEQtvdQI1YSdEow/GYxdrT5I4Xzgz5xqMH+M6+A+w7fIyzKxVBLKbI0NxCZsAaQoi0jQcJqARUUn+y1fW8C+ubcPWNw6u9+frjl/g/Ew6vfrmJHvkaY7VK2LU5pDuTLYJeh1BVRCNZaKGusL5BosdHT6OWFePYf7LhG/sP8839L3PoxFnODUe0CmoNaiQFpknqkaIa0M3Er27hTccWQa9RXEq9pSNnUn2UnolIUyGhIQRPo9DmJcfG8KXHXuDzTx7kyVMVw2gIrgd5gRpD9A1UI/ANxkScA7PVYP2axBZBr2FMyHhJxID4hqxf0LYeLw7605xs4C++/xR/+/Qhnjrbclr6mP4MbmoW6Q1ADDQ11OPUvNaAdQY7ad++hWsKWwS9zjAhrYiBLAcsOthGVQx49kzDn37zMb748NMcXolU/TlCNmA4rPFVmyq5G5t6dJYFlHkqqek9Tbul4l6L2CLodYSJNFVVIoK6gqWYcSYKDx9e4XMPPcvXnjjEOR2wQk4UmwipprOMdtXxjIBNFk/FEIJ0bbO3cK1hi6DXGSYStFVY9HDOCw+9cJ6/evh5vvbUKxwcZtTFHGS91M05NNiiAOMQwBBTQnSMRB8TOcWB2WQToy28qdgi6HWE9XvSNkROVy3Pnlzk8w89yZcfe5Hnl6CZ3sMo5mAsEhvEVxTOpd6cClYVEyP4AK1PHdlNAVmx8eO2cA1gi6DXOlZtN2vGIlVoVTg3bvivX/pbfvjMy5z1OfR242MO0RBXlnGxYSqD0fISfjQktg1Whcw6xNiumrkAFnnDK8Fv4afB64gkigRW0s0kS8YJLOoVGyfzKAUXLpiAWEuXQ0GMDdK2WAK5AWNTO/SoZXLKdi6Fja6FibTYePxGxKr7xANjw7BQmlIQAjkjiuEIm03Tuj4HFhu+8cIZ/vSxM5w5v8DiuKYKQsB2QQUKpNKXRgxBNQUDrWsUuyqNxay7vlewEt864/MFuS264UUE6RoFCZMoohRJpHT1iSblQjRAGxCTMbN9B3N79tDbtRNvLG3TUuCwNtXovTyu8YybLuzvdUhQwZJjyFKxowgxaIontAJW0rtJpDABpzUaa0KoUQWT5UhWEl1JIKMNctmolPUT6kbBa7lOVLuOWyVEExEChkAWBGtKsD1eWqj5znNH+Nq+F3nx1DILjcGbAmMdVlKflBSEAFEFr3rBIrj+80Uk1cPTSWfrjjtXYlxwYhuOv9b/XY9LvTYJMO9eW69gXO7trke8LoLiS8TnmOCw0abkUgPRQmOUSlKH4l6o6Puawje4EDAKisNLTis5jSlp5cLuVzcaES+HVyNpsJGqqImMycYNgzFkbQ/PFM+dG/GN517hq/tf5onDZ/DeE0LqoyJiMNZirUUmVaM1ruu9eZ1j3WlsnClKF8674fiNgM0TVFMD5IkWJJ3QtEBUTxNr6tjQaAttjcRIhiHruh63PtK2gSYk0W1tUq1uRCm5WVyKpEECFSsQKvImYn2O95aXFgNfeOol/urR53n40CLzY0sIqVWdqiICxhiMscmNwmTGXvwZ1zVeRUwql2DuDYDNE5TkTktq7OSAB19hmgoXA0WW0cv7YHppuB6SFTjnyHKLk0gWKrIwpqB5SxJz/TlvPH8RQUOL90sMsoysP8A7eG4F/urZg/xvP3mG7794muVminJqzyo5N+6mJilNq0HuNwCEdRUH1k/BifTs7F1XcBd9TWDTBFWBkIEXCKGBZhn8CGiTCV8KRHNaLEf8FM8NHU/PB15chDNNahDrsoxepmRxCNV59I1oD3Ad4FJaw+SYU0OvcRjTZ0XgoVMt/+nR/fzJU8/x/Figv4sy207e5phOldUYCSGsjknz12Ql2vQtvqaxSsxLSE9eXbBe99i0FVdJhck1eoyvcfjUE1IyllvL6WHgzHLL+SpyrIVRVdM0DZkIc4Ocm6czbu7DzQPYUSiZKFFm4DXU3LeSFRcgJssbGlrOtz0ePTni68+/wtdfOMgL80uQTZPFWbJxjrYen4/S362Totq1mV9/TS+lSr+ZuOjzL3ieqsFe0oqrqQQ2nTVXOiuuMRmDHTuYvTVZcWtrqduWXBwZtvuby2Gj3nGNobPivi6CNhoheCwpyFpNxpK3vHS+Zt/xFZ47ucyJ5YbzAlXj8W3Aokxnws4S7pzNeOCWWe7bM8tts30GIaxOpMlkEpHVGzp5nEiKGwEbJ+t6EsUY8UEY1oYfHDzLV148zg9eOcMLiyNiAFdMk8cCP4z4tsGVySI7IaiSrOpIMhrdaAQ1GtA2YDuCzuzZQ++mnVTW0jSpSn4mFrPx8y6JG42gqjTjgDGKzQzBGha98MJCzfcPnudHhxd55mzD6VoJWqEYEJd6O8VI4Ufc0oN37pnj/ffcxoN7Z/lwv8V1WRTribrxht4oBNXOxTE5v/ULU4ypMNfCKPLE8Zo/e2Qf3z5yjmONQ90URRQy3xKMMCJZZ3OSqyqS/JyJoN2HSfdDEgWuJjbez5+GoKZrkai+k6DbdzBz6x7Km5IEbZoWJ478BiPo5me+AlXEtBaJllEtHDyzxHeeeZmv7j/It48tcsj3GE3fSu36NG5AU25jPHUzy9O3cbbYw4HhgO8ervmznxzjzx8+RuPXqsStn7wbJ/KNAO0k5MTy+mrjxPwCn/vBj/ne84d4ZRiIboaBzFAuK26hwoQG+goDiHE92TvCT8io3Fhulg6TfifrlxylC4i6ASF79+7V7x84QF+hX3XRGlmETFkmEiPk0dGTDMIiwc3ySgM/OQVff+4U3z94lKNjT2N6kM2ALaBZSKugWBCDQVANmBjIBHJrmMoN794e+OTdO/il2wa8c8pgooeY4Xsl3nZ73rZmxhep8I7Q7YTbdJesIWDxJPNy8TrWmysFjRFfe7Iiv9i8OFmjNTXN8Qq+rTF2RGBMq4HoeuB2cmoMP3nqDF979Hm+Nz9maVwzjhA1+ZvFB4yAZBZ1hiiChk6FXf02a+iWPehk1JsNpZOEsPYN1rc56F6KVlBrIPguWCKkESOox0nAGYheaYcerQLF9Bw37bwFe/tulncN2Hm+xudCta3A2JxyeP2HLU76txiArCs8laKBHARLrQ4hwxmLI0A7xDvLkeUxjx8Z8qMXz/LEsQWOj4VG8pQNERVpmm6FE4xGjHpEPQYFY2jFMIzCuTqw/2zLt15e4OsvLfPIWWVZpyDLME0DVYVpa5x1tJNvLXSkd0n4q11VAq6WRVhEcHbdhNCOkOulv6ZlP2bgcsEo5OrouwFGBrx4eoWvP3aErz19kKfOrnCuijRkGLGpVR0BdRBdUvgkKKbzJ1+KnEwuVffv6mH9irX27IIRFXyEqoHaA5Ys71OWPZxxxKC0rSeooGUP8pyGwLgeMazHtEbY3t/GXDED3lDXV2cevBHQyeyeaVfItYEMQg6Vs4RoyXH0yMgM1OJ5fmh4+JVFvvvcK/z4xVc4tjgkOofkORiB2KK+WbstF+x/JtNlckSovbD/VMMXXx7zFy83fP+8crqNqI4pw4gyNDiF2tZULtJaCNbgTU6QHpEcEx3OO5x/86UnkKzQmUknvErO1RdX/w8mAi1RGow4rJmFsI3TZww/euIo33zsOR555RQnfCTESeysSSF8LsO6DGMsKkJUJV7jqqsw8cVewFFYXb869TwoNCE9qsFohtUc0RyNDmKOxAKlAJeDBbUeXEAyRawly/o4HSB1Ds3qjbiuh3bXygCID0DAi1IZiC5J1bwF44Uay1k1fP/4iG8ePMcPDp/lmTNLnGuVkOWIsynEKLZJTb1gP5TGhLDdZomowrgVjlY5D58VPn9whT975jQPHTvPea9Q5FibIa0HU6PSElBaOl+sSb5Z6VrsXd02M0liThrQrp4ndKuUAVEMI5pmjJqSVgsOnxO++8QJvv3kMZ4+WXFkDIttIp9C2h5Yi7UOax1ik54fu1621zTWzYH1UjwpFms2BtGI04jLSlzWQ6OlGnvGw5bgLdb0yN0UBgd1jaNl17Tjjpun2b1zgFhlablitNxifU4u5SWm+/U3IC30aVabGZACTyTiMdqSdd1I6wAHVxzfPVHxxedO8YPjQ14aO4bZDPSm0awgqkL0GCKZNRdIzdWfaz+gixgcegvZgCAFh+ZH/M0zh/nfnniFbx5veKXp09oSQ0ZPAyWeHI/duCBLt8zYdFpvPhQl4kODhtBd3gvPM3RRdy629LIeTZbxwjJ8+enj/K/f38+jp0YM8x1IuQOi6yTPmlV79TnrLL8XXIRrDxMJOrFSs27irRr/OveQWEPRKzF5joZO3W0jkvVxeT9ta0Yj8sWzvHNbn19+9x188r13ce+ts0Q/5MzCeVaqMS7LKPJ89fOuZ6xGTe3du1f3PXWAmIOnRcMi+WhMnm8DM8WBFfjKoQU+/+xLPHO+ZRxyWumhtgeZBVODr8BHrFoyMlrZuA9YJ0G7maUKobWQCdZ4NDZobJiWyDu39/mFO7bzidu38e6dBbvNIuQ52LTnjKQ6OiKKGDAmdYQSrsbNSQRFtWvlblbPMcSIJ5W6zFGMrwmu5NETNV/e9wpf3X+YZ04Oad001hYYNah6gq1hQkbWyKid+pym9WTCX5uYkHNVle2+u6xKzm4SmGT7iNGs5aeKgDXkRjHtEJoRO2LN+2d7fPrj7+Ge99xJZTO+cOIMf3LoFLct30ZvMM2oUFpaMr9x/l2HUEVjV/d4ZKAK6WAphjx3xBB4+tQyX3/hLF998Rw/OaMsVkJDnshpXMrKb5pUot4kVc53pv/V0U0lnayckwGQGUwYkvklCqkRl7GkU/zorPClF5f4/LOn+fbL5zmxYhnWGRoyQDDa4LRCQ4WPNZW2VFcpCjOdXUREk7wMHrxPkkAMOIMK1CLUdckjzy/ypUef5+sHDrJvfkidl8Q8wwM2xrTErG4DIGgkxDSianIndK9fy5jc77Xd1Hqh3/0mAkZSjHdbp16kk1L5YYhfPsWUrnDvzpJPvWsv/80nHuQ337WX9+7MuDWHnvdoG8l7Ja60BBnj43j1U653TJb7BK84D8ZMMXLbeHIp8PkXjvL5Zw/x2MklWjsNtgcmT38WAvjuoqJpQsHFBF1H1CRrUiKuEsF4hECMnhAjKhZcD6Xg+eXAtw7P8xfPnuAHx2r2nwscHwl1TAYZayKWlMOoaglXrauPEgjpfGIgek9oWzQm6Q7QAGeGykMnlL945EW+9sRBnj+5gpccXAaiuEwR26Ygj3U9O9J+M0ULxU7odKW/Nn6RawudIShJ/DUkybr2OOmH2YlXhEgea3rtCnNxmQd2Fnzynbfxmx95B594/z3ctCtnOjaUbUumDrQgUOC9QqwRbdaEwHU90vWyc3Nzf/xv/vf/mCK2OHKGIeP5JcffvHyGzz9/gkfPrFBrjuvPgkYMthMbAbRNTXVEu5QCC9GkiuXrbsv6VXTyXFCcNAQRAhlBUwlJMYJzEImcbTzHVhpG45ZhNJjCMigtU1lSdA0GQwmmRMRwNcpeKZGgXWZOgOgDGsG5HHVCo7AwHPH08fP86f6zfOvJFzl0fkhjSrJ8itAZ6IocvFTUvgbJoYsSSpduQsgJKbsJfQ1DNzBz/RmsGo86ojoBVBAVstDSCzW7XeCdN83wqXfdyacevIf33LWNmSnBacO4GrPY5uxbsTw8D4N2GqOK2hVAEb3+6ysJaRtgAIrmKM6MMUE4dMLzVw8f4s+eOsG+JkdndkCR4RfPYEKLCYFMlcIIuXMpDC92jW1iF5ywugJ0jxsXh47gJqykkEC3DcrdmGzAdBjSq09hdQWmplmZ3sMXnjnKV148yaMnFjmyVLHSxLRX0QxL0RXD2niKbw4EwXTBGCazuMzhrE0+ZWB5ecTR48d55Nnn+JMfPcVx08dN30xJn2y5YcZDL3rG4wWasAy5R7s0svQBnTq73tiy/vVrFcq6m/1qEKxCHqBvLLZp0JUVZoi86/Y9/N1f+Ci/+XPv5X23zDBwsKANOEV6BVI4An287+MMlNZQqsO91sddh0ixuPse4Xw74MenA197cZ6vv3SK01JQ24y6qqEN5MWA1o9W10GRiWScNNmZNKQxm6ptIyhGGiI2qbYIohGLRzWkuq/iUsU5N4sdLbDXtXx414BP3nsTH7tnwM1TkOEJfoWAx5VzKfYXg/jua0y+klV8V/zVbUod1tUyIFHT/nqismqnIKwaUwPETAnUqG9x3mDsgPMtfOvQmC888wLffeEoJ1ccRkz6XjF1L7PdHjUQCZqqIyTH0bWLzSjXEhtsrMn604y8SXq+cVBkOK1x9TKlCaibYVF3wOkjFLrEe2+b4RffeQc/f//t3H/LLNtKyyADb5SKlqk2UruSF87Bfzo04v91dJ472lvJXaTOl2kJmLBZY+G1y2bRpIgagCpO8ezpFR45coYnTi9wrFaWPcTYzW4xRI2rqUwqa72vkp2pi+gR6d553ar/KiPts2zijwaMeiAQECIuva/GtM8dN2BKFmLJ/vMNX3zuOH/51Cl+cqLiTANqcwpjMaHFakwTyKwzqHYqlItgwuUXj1Uo3WLULUidDSh2bzGZqGohtB6aiIkZjZQcHynffO48X33yBR55/jQn5wPGODTFBRGMEkznghGDYLE45BonJ0yk42sP4wqkN81oeQx1A4WDwkA7xtdjxFiCGppqTD4+x445x8ffcRuf/sDb+OR77uR9d27nlilLjwbtDEiWFHQr3d5cNWAkpAAQ9WmPfsFNf61xPUASQY/WwmOHT/PEweMcnx8SjEPbhtbXWKMYq/hmdBl15fVDVS4Ya6xKE1awSBTM8iIDAYqSYwo/OHOeP3/2Rb504AiPnxhyri4xZht54zCtEtqahorGNbSuARMgRGgE02ySAAoadbXqnQCicdXfa1YdVZHKNIgGspATmpJjS5FvvXySP39iP9999mVOnV0hjw7Q7hKuXcf0W5rVV/bqXl0Ek9HY6RRIKkKmLWUY4dohuQZELENvMKHmvt4Sn3r7dn7vo/fxqffexTtvnWV7CVZrDD7lgXZlXZis8Rs/8AaFATgwgp8cX2LfiQVOjVqiKzpx0eJMxEknya4kFFTt6kAtqAN1CGvDiWNnJoivWGoq5qNwloInlzxfev4kX33mOI8dHXGqAiQjtkLd1LShRmgRmhR/FDz4Sfzu5aFAO+khC6AR0YAzEWM6/UM9UVsa6uRkN45TS8oPXzjDnz1ygG+8eIzDS2NqdeSmt4Gc3RRTOiv3jQX1EZqIbN+FLXu09Zh2tEIhSj+zEDxODHfMlfzqfdP83ntv4VfedQvv3lOwo/RIGEGowaYeNNa5CyKSLhSGNy5dDcBTZ5UXV+C0z6hMiWYp7tFa6cICul6SV3QaSbL4xkQanViANQXuTYa1jsG2klE7wg9HQA6zt8L0Hbw4D19//hSf23+Erx0ac6qFeXHEYkCR5WR4nKYemhojKZWmI8QlxoVfT3CZS/c+hjTQZPyRCARiaGm9pySnxXBoCN968Sife/hpvv30K6zUOUzdRDa7k1jk64g4sWCm7zLppkyXZHAjQEQRG7ChIYSILaYpZ3bhygELZ05jhud53+3b+YOPv5O/97H7+YW338xtPU+pDbRjYl0lg6PNwTmC6Wr+ytr16WzBnWS9Ma7bRti5ubk/9h/7BxyaH7FIgeY91Njkj5KIdnVuMC4Zc67khZhkF3fvmRbDDeFhEqlkTC0GXAm2DxQQkrunFjjTNBxaWuDM2bOEssdgUDLtMmylhMVh2tflBb6wtIbU+mADNoalSff1DJN1KXbxxp7WB9qgqeWfK0EcTx5d5PNPPM+XnnmZp04MqXWAy+YwLqeWFOFC9KvkTLraxrU/PbuSy+Abgc3MgEI8Ax1SrQxx5YCsN0vjlfHiAjsK+OUH7+LX33cnf+e+Xdy3q8900WVNaQrwEFeiWUkwhnHsalpJKpKu1nJuBE8uNjyxXDETpjEGgm2JgNmklnQtQwBRSQRdfO/vMF9HGpOjkiX1w0QylOBbfACXpSDkK4vOsLSOnGsP6fdApKUCm4HNcWqxrSI+IBZaJ6ygnGpqFpaWWPFCDI5cSgY2ozQFkud4K1QGPEq2LtJ8QsqNj5q0WlbbZko6GlRpMQRXEp1jpRH2v7jMNw8c4msvHOaJk0sseEfhZihMkayzNCBtytjYsBCwui9di7G98tf5ymIzBHWxJvcrWJsMfvVoDPWQW6czPv2Be/mdD97DB28bcPuUYboskBjRGJNZxDiwGVEET+daF3AoNkC0hrNjeHLhQoJ626I3GEENwNK4wXfGV4jQttjgMTGiQZL6aS4sNH0lIKKrYy1VfqJyhpQdgnZ7U0lNa7VC4hATxygh5YbaklYGHPZTfPfgPF/c9wp/+8JZnlmBxX5GlWe0KPgxLlZAUi3XP14ETcFS6IUzUk1GzHo0xjBfwzPHF/mzH73Itw+c4vmzTUoAEEdrFJW2i2xpILYd87rP694zqbaXULGvc0SxRJOTZxZTLTLVnuWBbZHffv8d/P7P3ceH9s5y57Rl2qaiACEKQQ2h21RNUu5Mt9lJlEsqbreOdc83fPANBgNQ9rtaBNFjYsCgmBBSJINYMDkB14WYXSEIiMQLRqqMHUhyLiQCqgK95I/wNa2OiG5MzMco41SbVzOsnYFyD4eXHN85OM9fHzjGFw/P8+gQjrepG1gvtAx8fRE5L7kHVZLES/8BoseHCDZDBeZHkWcOHedvH3+WP3/6Ffafbmn8ALHTYCwtFSuuAtfS05a87c7lAn6uC+hYHTcGgutR93bh1TArFT93a8E//PBt/PNP3M1HbnXM6picgLUOH0DFIiZDkVQWJtRIaHEoeUdSYYP4vujAjQcDsGvHNrLMIDFZbPuZxcaUneFcjnUlUc3Gv/0ZMXFTrMrzbsJOPKypX4ioUjY5hWaIFTAtXoYEN0aKpIKa2qMLDc0oww5uZqnczqPzQ/7zo0/x//3BE+w/dY42RhzSZe1fXoKKgbxYFXPUTcuoqpksI0dOnuEb33+Yz3/7Ic5P7WTFTKNtQeGTYYuBJfYCjanJmjG9urqIhImba6S9kRBiRhWmCG7Ax9/3Dv7Zr32QP/zoXt49VzGji0wVArZg1BrqpgUBawVnBEckI2IlYLTGhCFGk+bzVoOdm5v749/67X/LmcUFjvsxwRmacoqiccy0hpKItxWtXV7XhfkCMbDul86qtpF7lxwb7ZXdK6s5kCa1eUdQk5oKpZKSNvnWYobELvdUBIwibUuQmMqDWKGKgXOLy5xfXGbkIe9vZ2ZuNhkjTNpvWkkRvYLp1ohAwBPVY+IaoZzNCa7PmQBf3X+aP3vkZb51eJlXwoCoBtEWxRNNZ+0OadtpvSFKhjc50aRIItOtR2sxHRN7ZCLsVeGrCGJTJ24JikSwUXBicTYjStelO6SwztxZXPSI1ogNmMIQidC0EISbXM3Hti3w2+/azW++dy8P3radbWWGDYpIBpIjGIwVcmdwZs14JsamfajY1RI3Kq6LTx0DOWcreGJhzOOLkSk8ogWNa4gErG4mUuzaRpJZ3R70w3f3mfHLMBwDfXB9hqEiZDWtNDQxgKZUr/TXE3O3TIRwh5SnslmkkPm1sZHCE8JGianrF4KoRdQhmlq7q3aFmk3EaIOlxYpBbEEjPU6OHU+erPjmS0v8zfPzfOuYZ8XmtJJhvSBt6jaNBLyNBCsYLE4FTEVoVlANeGdZaOGHT5/ibx95gScPLXCq6uHtNkzwyScqoQsSTzWDTGfhCGIJ1mK6gIeJIF1bqC48flUGnZrfLRirafcxVSNMmkZKDzM2EtqGoBZ1A7yU+KqB4RKl1tzZV37u1il+/cHb+dS77+Cdt+1g5yAnk9QVL+XMGaTr7+PshJyTuZWi11JspekW5ck8m4RDkrQtNSh+3alMXrwxYADu3Qv37c65zfWwdY5pLNE1zNslFuyYVh2E2XVW1yTljJg06Vav7urdviowxmMIWAUrOcZM4d02TjZ9Hj/j+dIL5/jc/uM8PL/M0WVP09jkronKWBpW8NSQLIneoDTUJrAYlUOLLQ+/eJav/vgAj79wmjOLkRB7IL0LznljFsfG59csFAgRQbomTIkQIQa8b8D7JEGNkpuIAl4dXntpUQ8W6hF3lS2/fNcUv/P+O/noe9/BPbfuYLZIJXSMpsiP1W3FZB3ewqvCzs3N/fF//2//IWV/O+14wMI5TxVa4qCi1XmCcWC2QTMNdpxu4CoxJ5ZfWZuknWR4s6+8oBhiksRiU3UFKYhS4LEseeFEFTm2PGJ+/gS59tlRDJhLWW6smArfdWsrWoXaMzIVoZjmlSXP954+yhd+9CwPv3iGk2PLSiyIJu8uwFoFhLXv00mDddiUkU1S+4arAk0Nf410RdCIhEmQhqbIbSNKjIEsHxBakxyURpjrW24rWz5x6xR/8MF7+cX33MHclKNvSEYe9Zjgk7Zgug7fHUE3c7ZpdimiDUrZqbgVjy9FphUMPbxrUSJWr0bi4ZWFsM4P+q8/+w/YOb2bnYNp1Buef+UlRjKCbXMgJTQZRW8WYdz14knOulVNo1N/ZHWSbuaSX2EIqDEoNgX5qyBYjDFEY8FZMIZx4znwwnHqNgNbYsuSrBCyXCiAnIBpGzQqo2Ibp4eWbz95hL9+6Gm+vf8VzsceMrONaG3Kh6XuqimsW5i607+QpLJhO/AquFoEFUBMEpKrqrimcqaajA9GhCgOtQWqjp6z5H7EdFjk3pnAP/ql9/MPf+mDvO/mOXoSMVawGjG+wUaPGIO4CTnT1mTy0ZfDW5qg//Jf/0tyFaaLjKmBwUvDyZWKUSiAEuNsKklC7Cb+xFcZU+UAUuqUIUnWzvP+5kIManurqWsaA4QGQoWh6aRcC0Yosrs4NWo5uDjPydEiapSbyj7brCVDECcMXc7RFcsXvnOArzz8HPtPrLDspiEviUbBebB1IujEKLHeP7f6PP2+ts++HFbVkjcVactiUU0V7pGu56jQZY0otiMopsegyJganuUOu8zfuXuGP/w77+YT77iNm0vomSRVjQmY6HFCaio82Vd2237tyjJu5nTf0gT97/7FZyks5LaiXwa275wjhoKzZ4bU45bMBNBhioPtsjxSJb902cxkT4qkVfYqEDRN/lVvWUrq0hbRFktLJoGMrsGOvZ3l6DndrnByvExV1cyGjFnbR41jPnhemB/xnScqvvPYc+w/dp55b9HBNOQOQgVagWlwFmJME0LWGHrJ55uVoJuasVcYRtK+M8bk3sII1hiMAYkRg+KkW2hCpFcv8M5Z+JX7d/Ib79vLz92zkx09g9XEOCsk/7ay2mEgGX0kLaDdorC2TXptvKUJ+q/+1f9AkUWsGVNmgZtnZ5ntzbByboXh8jJ1OwYbCVp2eXiTxjZpEq66CborfVUsaUqqUD7JNDGdx1IizgqZMTgEEwyhLmh7Fmxkpak5vzgirCjOTTHv4aX5FX70wlG+8J3nOLZcsRShtq7LrLAQm5TdI0pmMkJcM+tvJOXac7mmCZoWWEuMnTrrDNaadDejT5UPjCHHk4dlHrypz6cfuI1PvesO3n37Nub6gqhHxRC7uJ9UFX+9FTbNGBAQk1pZbPJU39IE/ez/4d+QCtBFClF6eG4aFMz2+jRtw7nhmBE5VbCrBZPTZj9Z/JIal1wsV4WcpDVZfIu1ydKISWoaxqCuxJgC0RL1QrN8ht5UhpY5MQgrK4EzI1gIGQfnx+w/cpZHnjvCY/ueQ+amMb2ChoA2o9QQV0wX8GQwdD7CC77LpUh6jRMUQWJqyIQVbGYxViB6YutxQJk5duQt754d8Y9/5aP88nvv5ba5QUq2N2CKZDRbraejE7U2qfdR06OxE8V/XWmKy+AtTdB/+t/9c6xztLVHqxbnDCU1u7dNsfuOnTS9W/jh068QxHUEFIwRrCTfHh09Jx26UoT55S/6lYQFpiVirRCsdrVq0ysqPbyWNKEAFW6aWSFUI9phRQwOym2s5FO8vDDkwNGzHDq2yPzimNquUIWaYBXjJPlih0MwGb18BqsFzTjCJOJoHYQ1oqXla6KGXw7dxu/Nhmoq5SJgM4vLLCJC9C3e12RAWWR8+N5d/LtP388DN29n9yCnVwqS5zQmp44BiZ6CFmdArEuXYJIA0P2eTk9Ts2LVZDS6DN6qBJW9e/fqY/uexBiDdnuNIkuGljoaFurI0fkhTxw5zf99/zKnxhnj0KOVHGMDmVtBqQjRELSP0sfoOF3SiTCdSN0Ne1M1aS/y2ticH1E6lUpNKv+ZPHVrr4Ck6gxECmnwQfEqRAxMcg1DwASPVcX6Bjs6T11VxNanJj90+25jEZOcOhFBsnx1AqWHLmuFtI+Troxm6NTH9VjvmukOdGU7Vg9sEDDrn1z+wkiU1LfGCd4EAm1S/U0E50AN+JQZMCUB9RZrpwh5yQiPNguYuMwv7NnFr957Nz9/303cd4cldxmZ6QjYXW/VNH8Mmlw164inkx/rlYtVf+jlF6SUt+BxcUhglgPn4X85NM//+0jDrQGcbqcuh0QJZO0mEjs6y/s1i3XJAuQuw4rBGouxGQFHxGEFZmzg3mnhF+/axu++aw8fvnnAbueRpiIEQc0AKJFoUk2gWHUL5VrWQZqenfKrKdIm3ZzNXaTJ/7zc8GJSFywVRE03UjEy0QDiUYnU6vDiUJOiWUTTyi+iaGYJRUbolUh/Cin7aFagJsNIhjMZokoMqSqZtclqncqhdATW7gLT9f3U2LkrLvzGaVpueK501+dSv6fnnSDacPzSw4jB5Tk+BoJvVxcYbJZ8mK1iNTXKisFispLWCFU1xFYr3NR3fPrtd/I7H7iXT77rZu7fM8V0UVBYg5GUzC+p9BuuC15BLHqR2p94eOFa8zo2od0pXYTJuUI36yZz7jKjK/N5rY7JlTJAikc1XfAB3aTojmcuoyhKdk4P+Mzbb+bX7p7hwV2wIxtDU1NXJdFvw4Q+1ntMM98RMl2u1cuv6Ue6nl0R5slr1yBUoMkssSyQXg8pC8gzgp0sAiBq0nY3eEyImBiQGLoaOqnHZSQQYhqXO+PVq9Ndq9XjGzWP17O4GfC5ppzUELA4BrbPlPZwlSGrDb1Y0DPT+DDFWArG2mBkzF1Tym/s3c0//dA7+LV33cYdexym99YMWr9aWF3mJkRaS73qSGoMeZ4xXRY8OA2/eteAT943xXv3CNM6gvNj4rDExWkcluBXENW1WM51uJCcm5tgVwtqDKEsYWqATA+QqT5aFgTnUkVCNcSgqI9JLY4eqwGrIfVFnZSJ0ZQ+l2r5rbu+2l2DDeSb4PIkveDpq8JrS90sJ4NMllG6gixm2MoglWC8warDSImYPr6qII65Z2fGr71jD3/4/rv4zXu2cfeM0stXUDva+BFbeAMxiQtazfZaVdO6PdfkNaMK1Zh7Zg1/5/5pfuPBbfz8nY6bXE0xGuHrSONK4vQsRlIx/9X37LDh6bUNMWivIJYF2uuhgz7a7yNlH/ICjEWD4puU2C4xIDGlx6Wd7WQv1mlxG1erxNB0PV6FbZcj6aYQA4QRFIYiL0AtbR3xasj7A6QsWNGa+fE52vosU2bMx26f4w8/dD//+Offyc/ftx1jRoTxOdpmmObEasbRq48tXBkY1q3qRgRrU3icSDK9xRgJIeCjgi2JErilF/n4XSV/+KGb+LvvnuVtMzW2XcSHAP05FHn1Pfj6jcA1DAVi7EIHjSW6DClK7GBANjWTiOoKwBBUCV3WR+yiq1Q1GcW6Tl5mw/VIT9eTtHva/c2EtOnXtQDzjRrO5WCMwRYFGULwLVXb0BCJhUWmHL5sCSwBZ7hlapHfetfN/Pcffzd/7517ece2DLKWxtbUeYFzsxQy2PgRW3gD0UnQFAG0NpKCmiRgmiyqSpMLjQgFkb258JFbC3717QM+fnfG3dsjIk1KWZu0gugMGqQP6UYnUq7xVVaV1By11ZQ7rkK0DilL3NQ0bnoa+n0oC4IRgpHUWFhT3aIQY/IprjccbfyMyc9O3b1I7b9IrV17vllhaoEiAj4QoxKt4J1S6ZhhdQ6jy8zMRh64e4bf+vCt/P777+AX927jzmkhsy2tVlRFqpQoTCG+uEhavtrYws+Odaa2S4g26chLuuCpy7zBkdHDssvAe25x/OL9M3z8ngH3TQUYLaSkXp1MTE270QkpzbpxDYtRiQp1TC4In3IYI4ZoHZQ5djDATk/BYABFgeYZWNfFmqZgfY2gMbl3ViPDNyDJwjUCX0S8jQc2Pr8MNCqx8cQQwQqSW9Qp2q4g4/PcWng+evs2fu+9d/P3fu7tfOSeHezoB6CCWOFRDAWWAvEWbS99Hlt4Y/DaoS2TjP8uJtPFJQoRbJhCx1PoOGN7aXn/XVN86u2zfOq2nPeUnow1cq7pb530JIV5pbjMaxeiYFtSn5UuOZwIXpVWDLHIkEEfMzWN7fcxvR4UJWRFIioWosXE9PcmdhUJXoVgynrV9dVJqRsk6WWhmiodWAvOpUD/2JDTcucg5xO37uQz99/NH7zjHj5yyw52DQyNqxhLRW0iucuZwlGGrm1Gl9myhTcHiSWTzmSr82M13SBlr3Sqb25GWO+RxqAxwxV9irzHzlJ4YIflU3fO8dv37SHr9q+s7p+4kKTXtvAEwCCU6iglo5As1daNCm3AR08LaOYwvZxs0Mf1+tiyhDxLAQA2pVWJsav5s68Pr07S1wOXZ0zNzlEOBinOdjSEtmHP3DS/9K538DsPvptfv+tO3pGV2LNLKJFxllOVA3zex3oDNUiIZLmQlZeP+tnClUOKxf03n10jzsSuu3G/aCT1rZQ8SVSX/N3GgMHQdxk3D3rcur2PZlAvnmJlZZE2guQ9QtsCkTwzOGcI3uPGFglpgRACYpLVE+nUwmDQYFJWxAYlfOOAbhJvYqzu9V5jzitKtIq3SiCisr7QUtqfa1c/yItBjUMmdXTQVKTa10RfE0ONRo+6LttmshDGicM8SezJ7ynmLkVeSfolPb+A46lFuvoapUFdRLKIwaPjhqJRZrXEMs289mnbCCvzzPpF3rfD8rsP3s5nPno/D+yZpuc8USukzFFjscaSY8jokreNdDd6Usn76kAQTAhgc84O4YnzDU8utsy0O7BAayoiEbsueeH6RleT6CKpdgE5J8clVXQXi9guOq67WQahNJZt/YK7tvf57bfP8em37+Y9N80ymzkI4PIBBks7rvDDIdmkSDGCqiYDRkwt+CbZMl3M3jrJfoXHq6FTJoJJhbNj9yWS8SNFJ03eQ0ltEqPJ0azA5AUmLyHLIXNgJZFduwZOXdEticm6K104VxrJ8jsZaUFZi9ZJxF3nX40pvxXpFro6ok1IxdacpbXJD0o9pNeOeNu2kl97z938g088yG++/27u210ylTU4V2MK0DxDVbABMpUudWwdMS9YIN58CJK2GhOodDch6+5Hd+NuBHTncUXWw4npP8ZILvCB7Y7feOAOPvWOu3ngpl1MG0dBhlOD1oE4rnEhIFmKEVXTLQRduJyuWoCTL/HaRiJIkjAWyXJc2SPrD3DlAFMOICtTlTrvu/6FqYSIMKkJvFbAW0w670TG7tw1/UiRvx15JWXsGOfIJSfzGWZskNZhs4KmtCzmNUPOcYs/yXt3wq+953Z+92Pv5pc/eC9v3zNDXxpMGONoces6IE8ssFuW2KuPn5mgE2JOhtXUk+P9uwo+df82PvnAHTywc4pstEDW1AzynF45wEeDZBac6RoSkSb7RDqt06yvbUgin8nAZkiWY4uSrD9FNphNBC164PK0rw9dOGDswgE1FehOVfITAbt37TCRpBcKMDECuUWEtA3wGY4BuZ3CuJxgA8iIzCzy3sEKf/fBPfz+h+7hQ3tn2Gkb8jAmMy1lzyISaZomve8WKa8p/EwEvZQDPYYI1RgJY962DT75NviNd0zz/u0123Qe8RWNLWjL7ajpPPhWUjK07chqLdYItlOlr2kIq/p+FEMUl9o3ZiWUfaScgnIK8h7WZpjOFRM1EkMgeE8ILTEGYuzaXXTSU5KfpiuWMgmmX9tLWyD4QCvgyx7aH9AYoRouUdQjdvccv3L/HfzL3/o4v/LuO7h/e8EO25LHitg2hNaniqNFL0UVbYKcr8uCvIWfGT8TQS+FgFDRI4ilAO7swafuEv7ZJ27nI3cUZO08fmkZ3IAYGzT6bkJK+jqS8hARTZJFUyX4axfdPq2T/iGmwg5BDGod5AVS9pBesvSaokiZJNK5XWIAH9DgO4ImA9GEhOuDRSZqPyTDWqzqJGEzIWSemmV8fY7SL/HgbI8/uPdO/vC97+Ij77iT2+b6FNLiRCnyHjYrGXtYriPjaAmS2sa/WqDB+sV4C28efmaCrt+viAhqLONihspmQMOsLHHfdMMn7urxa++6iZ+7ZweDgcB4AfFtKsXoY+qDEqUzDHUGoxgIkwZK1yhWpdrkUSMhRnxUPKDWIFmOKfuYwRTS60OR+q9ibKfSTyKOJhFYk5hevaSVrMtixU0Sk30F9XkI55jqNXzwzm38xgN38Pv338XP79lJ6ZRBYSicRVWpGk/jwWQ9xPXw0dKEZATbwrWFn4mgG8kpIhhjkSInIGhMLQxL49nlPB+75yZ+7wP38iv3bmdHOE9PlSJCHlNbOQldWF2MSeXT1ILh2kYnBSeq6YSkGggaiSLgLJLn0B+s5piuBjW4PHVoIwVCaOiMQCm+cM2qOyGrJpIaDJkrsQi0QwjL3Nzz/Pzd2/ndD9/Hpx+8kw/unWbXAIKvEaPYPDXAan0gKuRZTi/PycSma/8qe9D125gtvLn4mQjKOnJOqpFbIwwErG9SjQMzAO3RjCN7egWfftsc/+Q9t/BbewxzmaVvLaWx5HR1viZSZOJOMJ3Kd61CFYJPSd+ia4XrurKkEZK1y1lCWRKLEnp96A1gQlRXIOJSxNEkJFBXf6w+T+7QZDBSBLU5zivbNPLe6R6/dfce/tGH38HvffA+3nHnFMV0hKKmPyi6Ox0pCsf0oM+gLHAKmSp9C323NhVei6RbeHPxMxOUDRLUipKFFQZWyExGi6OWATbfQd4oO6qGT+wQ/vUn7mNbf8BUVlLajNy4JA20m+BiOtfFFfmKbxiSvza5TgwTe9f6XNiISkyJ08ahWYbkBbYo08gKnMuwxqUmTkryea6qtqmwSgqx645JxMfAeGUITcu9M3N8+r6389984H381jtu57YSMlNR2SVGdogY7YqGpGRyE30n8dtUnbCtIDSXJOZGbBH1zcUVnf0iE8d2agtvJs1XU3E9NIUdUeSGu7YV/F8+cRO///aM22fGVIxoJIdsNybOQAOEmsy1lC4jtxYjdDkfacKrAZUkqVRjt0ikrmhv6rAppE+76nVK6tAlxiHiECwxCNFHQkjNbXEZUvQwvT6UPUJR4Msc7yy0FWE8xLYthQq5CrEJqAomy4jWIGHILfE0v3r/Dv7+L72bX/3Y27h37yzOKGiDRChjTl97YIrUEQ7XNTzugvqlK33i8uQiuoRxaHJf149rHROD1nU9UHRSk+jKQtIkkCRFjKaeKaBdkkfyefZy4aN3lfziPTP8/B3TPLAto9ARrJwjRo8temTZAA1JsqbQuk6lhE6STKKdJpPmzZ88ItJVTU+fvSpfLpjQqURKyvJJ6mnKPnBInkFZpFEUkDt8bCim+9giw3tPU9VkYslVMHWDbVpumyr4zQdv4dPvv42Pv+sm3nZ7j5lpRaVKW4NJm0a65jOYzkq+roC0dIW9JjGbr4HriaA3BLrtzGvflTcSoljXcP+ukk/fvYvfu3M7H5pukeooxIXU+0RmCfUUMaQgCO0MJBe8zerEuXqnsnmshaKppPA5dRbyDClLpN+DfgkzA0K/x9hA4xti2+B8SzYasq31PDAzwy8/cC9/75Pv4uMP7OLOHYZpF3BSpwLj1tCKozIZ1TXvSN7Ca+GqzWrViI8r7HINH91Z8pl7t/EH98/xvt2BjHm0WqZtBBNnCCGiXQzrOhG1+tN0bScuUhOuoZGsu6snn3aXAtHatC/tFZh+D7d9O9nte/HjESyvAJA5ISydI184wwd2TfOPPvo+/ttPPchH793Fvdscs2ZEpstIrBCjpJB5oemqIW3h+sVVIygKWgnSBnIz5p65yK/ev4N/8uF7+MVbp9llGkw1RsWs1tO9sKhiN9Enqu81jvStpdMA0veOCEGEaA3ROWKeE11BMFMw2AnbdmEGPUrj2d0PfPpDd/NPf+1B/t6HdvPuHeAIhLahqWp87VNXbCwmJcfhurGF6xdXjaBGLFPZdlw5jbdQm5pd08Kvv/1O/u7b7+bDO6bYmTcYM0S7tCvTuXMgBTMQFQ0hjRhXyXotDtK2tLvgHVE7jV1XfxVitGjdY2r3XfTnbma6P83e227md37tE/zvfufn+fD9s9xUzJPV56lCj1YHqExj7DTGDCBmSBtwPlBG2EQJ5y1cw7hqBBUEpxCdSwnCucP1SvbMZuxxGdt8Td+vUGQVrCdoV34FJj7T9Sy4dofCBY8XvBwFgiRPSLTk0sdoCZKT9abZtvtmbrtnLzffvoPBTIYpGrCeFoOaHHElYjtLrTfQRkwbMD6kCK0tXLe4agRVVYKH1kM0OdFNM5aCo+eUlw4f5eTx4zTL8+ShvrDw1iTxZd28m+RSX9tI5NSLyLmOoF4gptZ9o9GYVoVYDFiRjJfOLvPi2SFnvKV2M4RiKi1anXE2AG2ANiixawF4HVyULVwGV4+gRFpdwVcrOJ+qtB+fj/z1j5/mrx7bz+OvHOf8/DL+3DLRh1QkejX0bfVN0t7OJH/kRXrlNTYubP8wIekk/rgb3jNuFvFaI4Me46zgubMrfP7Hz/KFxw7z2El4ue1xXvvkocbGFrzHty21r2kIxDxPRcycvR7y9bbwGrhqBDVGKQYt06UyCMri8SHf+cFT/H++9m1+cOIs57I+dchZPnyG4EPX3yQZV5iYiTr3ipHUCvHahnaxuhOSAmLo+pJjVTBRsEbI+qlWZuMrxmJop3ZSDfbwzSeO87988XG+8ugyJ5ahYIFCF3FxCeKQSI1mBs2ExsBIoNrScK9rpJpEn/3sxuOXhHYTa6OzenJ81a0gULceH0muViMEL0iMOAIm1sSmwudTnKstjx1Z5CtPHeHLTxxi37ElQswRl5M5RZwntGNMO8apx0nESKq0kGr4KNJJnzjJhtF15LUGMSb5HSd65auUwHxjMflMWfd7F98wqcppUiJ2blPYH5011nQeppqM8zHjpSXPsWXPttJSyzR5Pk2ZlWRGEPWIhNRXRyVZcbuPW9U8WKdeh7UKjJPLsvH+XguYfHXRgBrH2RE8MV/zxFLLtJ/GmIi3NVEi5gapSaQ6qUl0BTAhadRI7VN2vhEDmkrnOBGIStt6fFSicZwYWh4/vMw39r/CN/Yd5ukTQ2K2k3zqJoq8n/ZX0iL1CtQr6HiZWA3RtkZi6NordC2aJmlb69Tf1Uddf4CLVM83Z3AROYEudFFTyOKEQRGsChmCjak1YFAIWcmiOl5YGPOdF0/zXx4/zQ8OVRxZgiqAM5bCBpx4DKHLJU0cDNrZoCZXYvJVzPW/X53c3okJ7oZAd1JXjKATqELrI9YacgeZekw7xNJiDHixVFKwqD1+8tIC3933Cj96+ijPHVtkpXEUU9vpDbaR5QOiOoJPAegET9vUNNWYtqqI3oOSYmEnFcw6g8lq2J2mAAcNXb5pl852LUO7RshhY7DDukUQ4MzQ86XnFvjKMyf44YtnePnMkGHjEWOxYtALSOlRPFF01R7VSjL4BgvRJV/sFq49XPG7IiLkZYkxAuoRaXDiic0Y4xym32NoSp4+OeIvH3qObzz5CvuOLXO6cjSuj7cl46DUPiLGUZQDnCQponWNjsfE0RhfNeBDWhHoYlvtJOy0y83SlAStMSChq6R3rRNUIXTJ6j52OaWqaQ8+KSYoMLIFx+1uvv7SAp975Hm+sf8Iz58bsxQdDRltSD1i0ta8S4XrLFGpkGigTQU7qYB24xfZwjWBN4SgBiH6AL4F9at+kMYYTlfw4xfP8F+/+Qjfe+4oLyxULLkeTM9Av0frK5rxEk07Qo1SlCnLwtAlRrct1DU6GtGOx4S6RUNIFfJMVxXPKKarsSt0UlPB6MUtEa89rPV10diVI10nORMEXAb9WarZW3hu3OcvnznP//O7L/L5/Wc4ETOiK8hoMfUQmght6h4usYXYIgRMV1K0xdNuVYy/JnHFCaqqNI1fzeIgCCoZoZzh0HzDN584yF8/9CQPv3SShQh1lhNyBy4CIzBjKDzkgcCYUbNMJGVeGOlKhLQeqgodDfHjIbGuwLdI14Ldiqa8zHXJLpOgenPVguo3kuzSUNUuAzSNyb/YBU/pZO+oLYQlyDIW8u08U8/y1aPCf37yHJ9/8izPnxlReZ/2mNFBdGiraNVAVWPqhkwjOUKBwV0HS9dbEVd+tqoiMRBVCZLh3YChHXBkWfnBM0f52k+e44fPH+fYGGKWYXKbKn5IC3EEjMFFjFUinratCeJSC3ozacEANC1UY6hXiNUK2gzBN5josV3Fu4n9Y8LSlI965U9507jIcHSJsfaf1/3ePV9XlN4QQFeIzQo1jlG5ixPuJh45Z/nco4f50pMHefzoeRYqCDZLBcxMV7khgg0BEyOZKgVCvkXQaxJXfLaKCIUVvA9U0TLEcGIEDz13kq898RKPHjrL8ZEwslNYsTiBTCKITzshbbvsf1AsSI6XjChZSgIXm6y2IUDbQD1G62XieAmtK2hbJIR1dXySxIkiRBHC9TAPJ9rHmvi/yPpriGTaQDNKFR3yEnozLMeCR44v8aUDp/nrA+f43tEhpytYVmgzgaKHyfKk4awrUHbFJ8IWrgiu+H0RUu8g7wNLlefw+cDDL5zlr3+wj0deOsOZtsD3t+NtD9dGbBtwIVIgiO2y/hsltgboIfksSEbE4dWgarAITpIUkdCg9ZAwWkbHFVrViaQxrE7p1SC79a6Mq4GN0vJSg3Xuj0nF/W6khPc0QlTaNlKWGYNcyfwijM5CbIjTO3gxbOMvX/b8p0dP8PChE7w433I+QmUgFAWaZRNHaDeu4nXZwqviihMUFHxDv99nYVjxg8ee5r/8zTf4yfNHWQoFPpsiSAmSUdocqkC7UhGrQCE5ZT6FtX3QAmKBUqaq7RiIKefTIGTOURiD04D4KkmSpia2bddeoet03X2lNeXw2sda5YJ10nNj8IBxkE9RN56wcpZifIopFsgKDy5nUWY5ws38cN7yhe89xA+eeZaXz62wqNBg8M7QGKUl4jUSrnX/01sUdm5u7o//6I/+CLqJsRETP5xoRHyTTPUSiRJpCDQaMSJYNVBHfB1Y6fV59OgCX3rsZb769DH2nQ8s5XO0rg8iWAK5BFoirRGis6i1RLFJFZ3IPtFJgGpXxiNZajFd8odJaquarmxl3RXC7pK7UwBA1/tlsiFVMH6tk/gkYmeNvJMA34uvxc+ETa8N3XfRV1lQVhPA06VJubKpqn3Apk7gsSuvEj1NUE42PQ6eiywsKU4HbOtZZjKHCeBDlRqhGqX1QgypZ4yRVJxsNUh4UmgMupIpby4mV0Kiv2QkkZVI62oiegNFEl1Ggk7ISWdBRFzHl1S3NjU3isSYqqIjQhOFHx9d4hv7DvHdA4fZf2Ke88HSZn28sQQioi1GPTVKsAZ1DrUuKVsxWS2TLzOCBEznEjAdOWM3gkgqwCVdMawQoK4J1Zh2NMRXY9S364wvadKv1yahm+TaXZF0pCPzJVTQn3ZcimyXxCX+9lIjKiZGBCEagxeLVyF2jXZNbDGxJkQ4F+d4cTnjoYNLfPmpI3xt/zn2HWsYaY6REucN0kSigkgK+ggx0rYtvm0BQcXgVfBxs+exhZ8Jmn68JkHXQxFa46gpqINBWyXzkRIwUam8Z6GpObK8wucfeprv7T/Iy6fmGdYNaEBig2iScG1UGn2dN7qzYK7tySZSdsInwTmb5E/bEuuaOK6IdY14v5ayFiNqYiL5OndGmvis+jHkqsTrXnkkQ1lAioyjTcU3Dh3mPz+2j79+5iDPLiijtsQ007imhzU51loE0/V5UtoAXg1eHK1keLZqHL2Z2DRBI8KKQOMAm2M8MGrAgzUF52vPY0dP8IXH9vPlxw/z+NFFTo0UbzMyJzhpsCRVSq3gX4cKuSp/RNaiabrnE20Ygcy6pBV3flLG3WhqTNtifEgNibpoIzWd0eiCr9L17Vx/6DqGQckl0oiyrIaTtfLQ2SFfeP4kf/X4QZ462rBUG3AZmQHfKG3tsVjKsk9R9vCaYn1bAbU3ypW5PrBpgoIikuZ2piGVwrQlSMHZGh49usKf/+Ql/ufv7eOYHzAudsHULrLeDNYZNDSo1t1+ErB28ywQWbOVpB/rX7xAopqJW0I1RTJ1UUeMhkg1xrRtKtRrOzV6EhYonYrbRQRovNaNJhtidV9lQERNILYesh5suxVm7+DQqOBLTx7hvz72Al89POLlcadgMNmfK6jHaIvEBkIDXWWLLbx52DRBDcpAamyzBO0o1V11BfMV/OCFRb701DG+eXCFw9UUZHNQzEI2QG1GiIr3LcFPmtcmVXPT27JJPd1VDfRC9wPSdS5RBSOISx2mEZKvtBoTx0MYj5C66vSB2EUcTUICuw+CbnJf8A2uW0SglZiuWcygLTFtnyb0OdHkPHRuyJ+8eIg/feYYz7yyRG0gZo6A4Ksx4+UFMlr6LpLFCvX1xo/YwhuITRNUiGRxSCEtxhoayTi2At9/aZkvP36I7z13hiMrDga3dsakrhVfkOS/FJtILbJmCNkk1oLE1xNz4sRfI6onghWss9isqyYQPdRVCg2sx0g9Rpoa6VReGzUJ08nFmOjPm/96Vw/rv+urjJRn2sm9NuIqj6sVozlj1+flBr53ZpHPP3+ELz3xIo8frzjtYWQtjXUEFCMRayI5HnfNN7O6sbBpgoImNSfLqFzJoWHkey/P8xcPP8d3nznKofM10IfebOr30YyhaVLRaXHgSrAFSLamlm4GF0nMi6Xn5Fjo9rfiDGJN8gaoJpL6FtoWbWt0ZQSjCuoGaT0mpnZ+k7eE7u+uZUxsWpcZQNd3Q5HQYkKDU4+V1MO0jo5h63j6XM1f7T/GXz11mB8drTk0ghXbg/40AQtRU7UHu2UkejOxaYIqQtSMSgsOLnm+++JJ/uuP9vPVfQd5ZbnB2JxcDPlwiakwIvPjlHmigpgCcYPUI0SSZLMTRmwWnYrbPdnwvHvdWdRAkC7QXCaiUUAUUY+2DSyvEJdX0HGFNEmSmslslo6mr+e7XcMQFSQkgqqL0IvQj0TXEpsaGjA6hbKDJ4cDPrfvFH/yo+f4xoHTvLQUGLkeIwqqIAR1KUBiC28aNk1QMMR8hpfPjPj2ky/ylUee5scvn2Q+OPLBNFN5Qc+PyJfPMmsjA6MUogiCkhHVdVFlKYjA/DQS6iJSbnhqTarWroE46dxt0nFrJWl6IcBwBFVNrCq0aSFETFxXnUHkqjjj3whoUDSVW4BSaPKWkRlR25qizJgiZ3pJKcMM3PUBztlt/ODls3zh4af52iPPcODYIrV1xKxPIxn1VlbamwoDsCjCWIRQeRi14JMEqsRT0yLRY1r48fGMr+47z7eeOsazr5zDA1PTJYhn7FeoQk3IHfNRGBlL60zaA8UmdYEmJlapJcRUDmU9JiFuMlFbTWr0k2gzIc96ZXSyc0y/6ySCQbua6tKt+MYSU+Ru5/Mc4UyNCSNCtUSoR2S2U9/UgGZAgfEgrSI+JXsnYWySmq45hBxCdrFe+WaMdVfhtQamS2JXutKeFryD4AgYGqtUWaBlSFafxmXCiD77z8AX9y/yX358ku8+P+b4Cni1YCMjztH6JmV5+1S5YURgyHLKRmrjG5cBrt3C2V2DzlCNrgYqd0b5TYxrHRMFkBafrKyTHpSa9mRGLa03zFeRQ0tjvvbEMb534DQHTow4V0FwBThHq5EmRlpr0bxkpELThZ/RmetRn66qJFLFywQCXDDJ1j1LKdfrxkQlRTpymfUVuEBS5SK61oACOBMwfkwYL+GHi/jREtpUKQsGQYwjczmFySiswxmDUV3tD2M6l1P6zItJ8WaNiw5cYkyUAWESmCVINIgagkIrSuMUT4MOF1Odp3KaUbadQ6OCh15e5EuPH+IHz53jxTOB5dricEQDFTAO4D0UKpTRpWQkLhej9jNgQszJD00WfFVJJL3BYAD6y0NsM8Y7T9NTsBFaJfeGUZXxzLmKLz9/lL997FmePXqO862lyaYYU7DSgseBK8D2iLboZs+bjws/dl1YXPeqiGCMkBkDwaNtDc2IOFpiNH+admUB5ytKWnICxhqyPCPLslQZMHiirzGxJZeGwtQ4UoG06x0RwUdD4yFmJW5mO3GwjeNj5bvPvsIXH3+Jrz93kmdOBdrhDBXKSrZA5c4ifhG7othhD9oeyxZW7JYufCVgAAYIWWgJ0tBKoDURX0eqMRyfV7757En+H9/4CU8cPseJMYztgJBPEyRPahMOpCBiaVKtzauD9XvUdaogaEdOg4jFYyiKkm2zM0z1CqhXCCcO4c8fpazO0mvmsaNzjMYVbfCpgZO1KbiCSIwNEmpMHGF1vPaZ1zGMMdi8gKCEJlJFS+X6LNkBr4wMP3hlgb/ef5QvPHWSx460HFoYE6mZsi05I1hcSsH7OVQSGVJt/Igt/BRIikhoyHNHIYJvGpbHDVXp+MnxIf/5+4/z5997mpfOC3YwiykGBGtpY1xXc6jLKwx1CrG7agzdQNLVQ2uumYDQtjnjWBLUIdFT+CFTruLDd0zz6XffzG++axcf3FOgvqGpGprWE8QhZR/KKaLNaFTxca2W7PUOQXEExElKmq9WCPUYyj5uz20MBzt4ZqHhc08f5P/68NM8fjyyMF8SRl0O7+4MppSVpmbQRnZutW26IkiFq//dvyL4iFWHs1MMteQHL5/jz3+8j28++wqvLClZsQNrXaoG5+sUURJbMBGRmPIyY0x7zk36UFYrHlwJdBlll3rLVIuo27/aDO3vJPpAqEeUOua2GcsH77mJX//IO/nEO/fywE19ZnPllB+gsWVc1UQfU+v4okz7WpUucMKmIIzrHTEg7ZiyyDCZJWiXYiaKLTLUGZoQWWlbjjc1p0+OMFXOdD5Df1ASshG1WSY3UHZVjq7kPnR1oxICai1nhvDkfM3jSy3Tfgojinc1KhG72XSzy0/Rqw47Nzf3x//y3/4bQhCIPYa1Zd+JFf7kh0/yty+8wrER4GbIYolKi48pI0UkYq1iTMSEFmLACeTO0m7yzlxpgqZ81mQKmhiC0z1YuxMqFrUDqFboS83dO0o+8rY9fOp99/Cxd9zO/TdNcUsvMpUbQv9maEYsLy8yHI9Tk6OsSFaXToVWzCXzaK83SIzY2JBnDmcESKU/0dBpSMokErdtIudGjqUqY+gt0UR6pWe6iJQ2A+mu0RW8LG9pgv6zz34WlZKFseGJw4v81Y8P8OVnDnPGOyhmyaTED8dEF1Ai1gi5MxSZQYiE4NEQMcbiXEGzSeK9EQSVicRMB9Ijk/ja1E+UasiUqXnb7j4fv/82Pvm+e/nI22/j9rmCadNQ0jKVZ+zYnuO8px4us1JVDENMgRakKvmTFLUbgJ9YIzhnuoy81D9GREEjsfXpuknns4kOHezgVA1Hl5ZZGo2YyXJ29wcYk9FaRzDmijYPfksT9J/8w3+Bdzk/PrzI//rtn/An332COHsrg2178LXSLi1CBuIcxqR+J8YlnTKqENQQxREkTxX4Nlk+440gKJ06a7qmSpO7oBpThoqvmF45zoN3bOOXHryTT773Hj54z83snsrIaIkhgHH0ipxbC8NcHukXFmMtbVCWq5bgu2YprPPyXOcQ69C8T+0jvg0EFayxGDGEEJMLWw2lzZguSiqU1jkWvXJ6oeLUqSFRexTT00TrQVt6m4w62owG8pYm6P/53/wf+eqPnuVPf/QYDx1fYDzYjfcFYRjIACkNwXqiKYhACJ629bRtwItBsj7YEnCo19TtZxN4IwgqklLOEleTRFVNBaCJkbm+4+++5xZ+5xc/wC++9228fc8Usxk4bYkKDZbWlFgBM36FXb2CXbt305vdzjAIZ5eG1G2q+1s4g7OCv4KncbUQVYheUmBHlmOsQaMSugbAxmRYm46DR9oxWWxxtmCsPQ4uBB5/6RjVaJHbt+XcuW2A3YQFbTUw5TJ4SxP0N//FZ/ncd5/gxy+fYUGnCG46VSSgwdpUcsRrSOqNandmyUCCTKJvuk0ZsTvxiWh5jbH+vV5lGKCU1HowFbDuSpwgEBQbAmUMDPDM6DI2BMQ4ohQ0OEKAwig7e8JdOws+du9u/vUv3c87b9/BzTMFAwd2EsJgUnFsu2pUysDkDJxjmzNst0rRjhgurbBcw8hN4csZCOOUQSMWE2NqSeFDl8qWaiopASvugqioS/1L532VoJMQm9SHdXJ/RNI+WyU1B/bBpk5ypELiIXpa37DiKxaicHAoDFvlzkFAXIaKTX9P0riMEYSAiCdEaLxJ0wi6+haeqIEUP70u4kxAYota1xG04vGlJnU3k4DPqkTQkG04sUvgKl7mTUEBJBH0PZ/5V/zto89y8HyDdzN4MmKoUz0gk0p4xZjosjqVJDXNlQnRujq0yTCzmX8TXEzK9UMUMo3Eri4Ok0ZJpC9lVckEnIBoi5quji6piZCLLdtcw7tvn+EX3nk7v/zgnXzsru1MF5Z80sYQWQ0hNMas5oeqyRC1GFWmLcwVlsJZxm1ksTUstpaohixPV0ZDJHbt/MSkfR2SesOgIObyE0fWSYs3EwJd/5b15NxwO9AuYifrkh5Mt09tUVpUlOVoODaC5ZUh/XYRiil6vSL1Eo7gNIAmAqoRIhkak8YTVYkEtKuLLJOibhcRNOPMUJMEXW6ZDtMY4zsJeqMUDUsX3c7Nzf3xjo//fZ46eJKzI6Xt1FgxisSkyqkYIqnZ7JXFJqdiBDWpz+faFE7WGbWGKBYvjpEZEFwfr4KJnimpubloec+ekl961+186n138747ZslX949ry8SkONrkuHahq8nYFBFjyHNHORhgezO0UVhZXmZleZGyKNEQaGNMa5U1aFepkG4xErrFZRPY5FW5KhBJbSKMpP43aQ/eGeAiqYKiGFaGY46eOod3Awb9AVPO0DceozWENhUgkwKxhtyQjFHBo1ERLM64Lu45rZZdqahU1c9mG1TcToJ2BN20intNYx1BF+/5NEfOj1nypnORRAa5IXZ9PqPJuirvkxtyBcZmIQImQ8R2q7VHY3LrpPcxRBzBlGj/FkIbcRLp+xVm2nN85O45/sVvfZxPvet27pwR+tSoukTCjpQTC+8FhBWhZVKtU4GANYapnrB9hyMzPXS8xHD+HMdOLWKMw+U5wXWTIyjqHNY6ckkNeeMmz/taJihR0dCm8qYa07UxklpAGoOxKUFhGDOOjnJOLqywvLjA9qmSXdM5rq0wZY6qo45Jry1sg5GIUYM1Ga5TiSX5CFACKiQN7q1I0CN7fomltstWiAoamCodvqmS8cDm3b5vrVr7mwcByVGNxBDQ0KRIFyEFDpjUEiKpXBk0y7jhae7bbvn7f+e9/MNf+SD37SjYngWyMKatxth86gJyrn7SumwaFaHR1ITJ0KaMnOixklEaYSq37BqUTGWWQydXsCb13vTWQJZBnkFMZTBdNFgMvlPdXgvd1uOahWhMASqqyTLOZBG16X50BPW2RyhmqaIwv7jMwcOHWR5V7LnjjpRtFIXcGjLTIjpOgfwmR1a3L9C2qU2iWO22V29Rgs7f+6t4Juk6af8xKCxtUxMQ1OZdzlKqhXtFsOlJ2GWpTJzmpBxPay0iaQeJArGlNz7HTW7MJ95+M7/9c/fzqQf3cu/uAdMu4qsx3geyoo/YHDaQkw0ERQSPYCViNCBxUk8p4kzGwAk7Bjm7ZmbJpnZBqFgeLVOFllgWUPa76oItMSrWGLxcnqDweq7Nmw8ryQduumLgmu5IehRBlWQxV0CSRrYwrFmohdPLgePnh0zNzDHdc52BrqWJbdfSw4KuWosIMYKbBKS+hQk6+NDv49uWNiQLrAjkmaFtm2SYsZ3V9EoSFDY5Eydm+G4aWINzLt2ztsG0LXn0TEvLPW6BX3jgVn7j5+7nEw/cwR3bM8pYY2LAByWaApv3O//o2h50PTHXExShM5jEVQPY5Cs7Y+hnwtzAMLerwOEYV0OGdUXjU39P/CSQIflk4w1AUCNgbbJ4RyBoR0btDG0duYgeQoNxGUEdK95yuoJzw4ambrEa6eWGPO86r0lq7yGaDINJQ5Lk7hEBTDJRvhUJ+t7f/WcsLy5QNTVqXGeMAR88YlKLeVXtOjRfSVx+JgqQ2y7R2hqMzVJMcOOJoxUGoWFXIbx9R49fuW+G3/r4g3zgnpu4ZQoKArGtCFGxWQ/JSgJCNimi9SrknIxkkkr9XYwxqbmT7Vb4mEZuDNN9mB30yayhqmrOzy+ysjgCm5GVJVmWoWgKnbsc1i0C1yIU8DGgIqnbwKoWkox4xqRqiiZ68timZHlbghe8ZDRZwUsvH2R5eRlcQa8/RS93mE4jShfWI6IYl45FNUQk9Xt9KxL0D/7Vv+PokUMsLI8QVxJNTuOTamZscjvEGJMEuaK4/BtagX5GagUvrlO3HWFckddj7pgpef/em/m197+d//a3PsT2Qph2idSiinUO53KCTxbWFJ64RsyUgrZBek4ujyZ/KCZVJUxOGZvcJQoxBELbkPkRO2ZLts1OIVKwuDji7MIy1uVkZYnkligxdR2/HK51gsYIre8SBTorK0ndddZiDBiUnjMMMsvK4jJUY2T7LHm/x+j8OZZHNaeHLSdHUDXCnDU4l1EUkFmDNU3a8xsBsfjkpcKatyhB//m/+x/Z//QBTi0M0WxAMDmxrru9XiKoRv8GNL+9/Ew0ouS01G1A1QB5cnwHz+6e5YP33Mavf/hBPvWBW9hmWvq562oP+WTQ6D7DGoMzSSKu+lE7bCQnJMkgbVgtu+IRmqi0SmcUSdLCOcHaZZxYXJaR9fqUU7sJtse5lTELoxGtRnAOvQEImshoIM8wWZa2QHSSVCPq06LVjCvGo5apqT6utF31igVsZjFFn7H0ODY0zJ89T3H+KFmes2NuijKLoGNaX6U4fVOsrgPJrfwWJOj/+D98lsX5JRZXhsxXNcs+JGuuM5AZnATUj4mafHopyoYkEXyLGIezGWCJ3T72spNMNRlRrJALZDFi2hanntwZJFMiLRpraiLiUkVA07RM+Zp37Ojzmx+8k1//4B4+dG/BnpmIxaXE6m4PqdLVNFr1p3VfagNB12OVrOlJ54xPrxnAiaRIo+5lMQY1BY2mAthzueGmnrAjgzAeMWxgmZIgFufPkLmUNK7qUt0jW6Rr5lswAWMnTr9rFBONVpPLReIkTrfbh67+h86IZNNeNca0WCZV1na+dahq4dSS5chixTAoRT9j0C9wNpV5bZoGI+m+BlWsKmosZ1eEJ+YjTy4GtvsBDvAyBiKW1KD4NcdlJ+jVxjqC/p/+7WdxWUmjytmlIaeXVlCXQZ6DQAwtMfiUmItgrcF2s1Z96mr2/2/v3J/kOq77/jndfV/z3l28QeJBAiQoiqTEl0UplijRkkuSHVspR45deVVeUkVMKvk5v+hvSiVVcewqy+VU4kSOpMiWJdmyLUsWJREEFvuYnbn3dvfJD31nMViAxMICSaw4X1TvzJ07mHun535vnz59zvmKsYBJWQ+GpR/qTSCpTKYAEiImpNA4ESWQpAmTNIOBaMFHytByuhKeeWjMLz19jl965iGeOdfnVD/gqFHp3fzsjpx0IWbL7ZaR8s2wf8tOm6bzYO6Ts2sRaLFEDdg4p2dq1jLleFVQFX1qcWzVga3ZHGwgDaIOazIMJqmHiUKWLm6NHrmveSD3F8KCjImgd/yZRZI9apIUYlRFxKb5adf/i7d4Y9kMjte2d9jamRKD4oyjcjm9Igf1OPFJS0csNnqicbwxhW9cb/m/N2r69QCMJ2Rz1IDRu0dsPfD8XCbov/3Cq4wmPbLeiLmPXL+xTdA0Pws+Ej2JnLa7cIzBWocYSa7wTotTJOlxHgbGGAb9IW1bE5oGD0ieE62lrRvwEUyGcxX9mcHt7XKmF3jh8jqf/fAlPvHseS5McgYCeciAwaHVsw9F0ENCUBweR4uoh5B0a0b9HmsbJdb1mO9dZ3P7Btv2OMwjKoIziqMl1LvkmaEocoKCNgFZ9PPPA7quXh6zUmhlF/abRUKvoW5nbN3YYfONPfa2ldwOWB/1qYocKw0qAcRh/ZxgUizu1zf3+OqNPfK6JDqP74WkLOAP0X+Hu1TeRSwR9N/8839GnhesrxUc2zhB7gxvXL3KztYubTSQ9cH2UuKuD2iIBAEVk+JMJZHWmVR79rC+XvEBr51uiLEEK0RjwaXgA2nB7rUMtlsuH+/z8tNn+MwLD/Pyk+s8XNYMbCALFkL6QdQertfvJ0HRAH4PMZrM0xgIbcC6goEzjCvLet7gm5pv/jSnnIwJoSHsbeNjzfr6iKZtmd/YRsnoDcf48HbVrHyHsdTNB43Kxba3NTHbIWKZ7Tmu3xCuX1d2dyLG5AwHGVUvVbVXVUy9hxfYnME3d1q+MW2pfJ/oInWZIo6y9s2nMEcHSwT9D1/8AvV8hsWyMXKcPXGCtq65vrnN7l5DE1PVvsJ1I2Zn4nQC8+AcmTOAEnzbBdEvDnHnhkJoffoEZ7uWIoKcCkWIZHXLMHqevzDkkx96jE+98CgfvDBhzdbIfBvxCiZPI7ukWIrb5hpv0u4fNAUwmJRl4yVlehifSpcOXOTUyHFsMmQ79PHbP2W+t4N3DqohM7WEVsAV5MYhMdD1ys8BFuvJyaRd9Pp+76sQ1ac1U3rYYo2sGNNEwxvbW/zt6z9mr50jvT7VYEjPGCwRZ3M2d5VvXp/xja05ozDGWKWxLWgk727YRxtLBP13r36J3AhWI5kYRj3DxtoxVGF3OmdnZ48QAkZSZos4h9jOgxcVsd1CfPTEZo6x2f4d8s2aEaHMsu5i7OoYWQttje5uMVTP+WGfZx89w2defphnnzjNIycHrOcWGxXxKUYXZ1FnCPbwofz3l6DpG0U1zMXhTYZxRRdPCsZ4qiyyXjnOjPrYepO9esZOEBqpQHqQ97BZThaSHENwhwuqf+Cx1M2L3335ZQGMOggl2lgwFskNwXl22ik/3d7kRuO50TiQnI0yY2hy1OZsTpVvXN3ja29MGbYjjBG89Qgkq+puuJ+XwNuC1GN2Mpl8+dUvfQmcxXQLzA7L2thRVWuA0tQz2vku0+kcUchdRpYVKCZ5coVuJImo94jtvGh3IOZ+E8HlGV4jqskNaEODnW0xjnOuHBvy0pXzvPLcJV74wJDTk4K+tWQRTMzAlGAd6hRPS6TFcnfnwP0lJ+nbREsrltakrB8jgrOL7J8U0VDawCP9yLg0NFG4PoefzgApUyEz3+JCgyHif14Eijpv6W3E7AwEAWzMyEOP1ndpaK4lupZWWmbes9UYfrIrTPdaithgosGWObu15Vs3PF/fnDNuRzgjBNcVOYt37z/Z//OgYomg//qLX8SaThEMiE2DkLE2dqyP1xjk0O5t8eNrU9QHjFjEuFSo0QcIocvtlZvRJHeBAk1MYr5OwPmGot5lnYanTo35+Psv8MlnL/HClTGjfE7VRWOqN6kkvkluwFTtvwUCTsrbTNmD7W1BSGoR2tERUu6jJS20g0kB5rLF2Y018mrIvBW2d+ds1w2hqaGdI6LY3P1cVGhY2LSpx5f/ctNDo6R825ij4onSgNSo+GRRuYo6FlzfUX56fZvN61eZz1uywRpztfzFzPFne4FxO8YYaG1LRLF69+vvSBH0n/zrL6DG4rqwPiOGrc1rVHnBqYnjzLERwyxybV7R1p75vKZuFbWWKLarzyOItWTOJbN3/xB3blEjzHbBGEqBoUROF47nzp/kV158H5967hLvf3jA0DTUu7uUWUEuGYjgY6pJa0xXe0gtNrpuqeddQLcalJYvI7FNwkyGtPwUrQWbI9ISPWysjTl3fMLEClf/5i+ZT7coehUxy5i18e27kbyTWCao8KbrjkE9rdTYElyeYnnVCwSLoUyVsMWxt7fHX/z0dd64tskcZepLvu8t3/OOsRYEVWZSEyVg9e5z0CNF0C/8h/+ItUkvJbQeDZ5Br8IZJfqawrScPrEGa4+xN/dcu7HDzl6NZCVZ0SOQ5qKLuMzDBNSLEbTKoZ4Tm5ozgz4vXXmUX/3wB3nx8VOcmziKsA2zHcrsFJYsxWcaj1iPddppjRjEG0RtSrh5NxAUaIlaY6SltEJhLcZmRIRGYYawFy24klKENSecHmScHlfM6j1+sjNlKxgoemnx/4gjWSxL28s76QZRVTRroZwSTSCowYQM4wuktWiTwgYzp4ReCUWPq9de58buFjd2av5y5vmrFkZhQBs8dVajRnGHiSRailt5MLFE0H/36qs4AaNdyRIRjHPdN0gxllVRMhkbhoXBaMOsnrE1nVI3bWeOGCCgviXbr6gXiXhC9ESNqDiMFAgF4gW7+WPODQteuniKV546z8tPPswHLgw5OYTSgcaWNoLNeylSoBt+93MDF2ar6SIJDuslut/owopS1orFSHJ40DmKFk2tIxODjYE8egbGcqw/YFANiWqYzmZMZ7u4zODUUuDIMWQSgRlB607dqwIpMdreZpkcbO8qlu7T+0kvpBNTUlL8/puCSXWHu3xk8Ih6jHiEADGV/tSoTDVjV3rMbA+bVRTiaGkQKxhJFlx3oaQ+uBMZ90f1B7Wlv3YymXz533/p32J0Ia+X5pGpxEQy0YxYDMIoV9b6Gb0yw8fA9a1tNneTmWozl1KDQqpbExJdO6GxlLImxkE0BA/Wt1zKp7x46QwvP/Mov/i+czzxUJ+1Mi3goz4lt5kufK8jASQiLAiKvMvk7PophRSmMLb9E+ouDCMp6D/dYyIaU9mPTIRBWTAY9MBmtO2Mnek213an9IshhpIYIESPzSNBWjQIUILJkXgI/ZOODO8KDuTb3oL961CSZGRcFJ6LaVIv3aqBxLSM5VskeLA5Xgp81iMr+4zKHpiIJ2JMqlyRCmgtlnbS9ZJ+jMVvdZMEDyoWjjQ7mUy+/KUvfeng/tsgKK7dY1CVDPp9yrIixMh0OqNuPW0QVBzYvEuEluQgsXlSPjM2pavFBhNrJj34lWcf4rn3X+DpS2e4cLJgXIL4ORpqVEMaya1Ld0XSyL78eNSgqqg0qNaAx1jFZA7jDNFZ8jKjiYE//8FVBoN1fMzYbSIeJeuVKeqxaShQKgvtYdPXHngsiNxNkTQ9l07aMe1KU6g0AgtZXlBUFXmZpDiCakqNFO5A0CPRCbdASN/5nggqWmOJTKqCk+sDzp4+TeEsW5vbvHFtk7A7T0EDwx4UFZJVKRHXB9jehfkWgzJy7lSfZ584xT//+JO8/+JJzq47hhZyGpwEnBWsGGJUYojYrgLCUSaoqGI0gHii8USTguOtQG4dg75jY9Rj1KuYS87W9V22p4GQ9zD9MU0M+LqmwFP4GvE1Tdcvb4kHvau6uWh63iW4dzu62/zNN77XCLoYQV999dVbliLerIGB2qMxklvHuLScOXGMnIiEBh9qCA2x3YPpLuxNcbMZRVMzkJbzazkvXj7JJ194lF9+8TLPHO+zVggVERdbTPBdpkkGkmHICNHislREav/kj2CHgyCakpoXFxkCqVKuUmDoW+HYsOLcwyfYeeMas7ommAxvc+KsBYU8zzGhpW4aYl4dPMjtOBJdtQi670bQxWs3N/ZLgb5nCXp3GLSTdxAFo4FMIuOeZX3U4+S4x4lhzrEKjg9KjmXCyUw4Nyh436l1Xrh4ig8/fpKPXDnF8xc3uHKsYhA8pQgZKXEFFehc7OCS08XY/eywmzeKI4qQ0tOSPIbFYFL19ZhKfeQIfSeslzDMDc7CrG7Y2p3R1BGyErGOKEIUgx5GWuEodJculuUW8kwsmb03tyW+dwi6uGnJ+fPn9dvf/vbBvbdBEWpJKxk2kBTNtEFchpeca7s1P7q2xY+u3mCrKdje3qOtPZkrOD4ec2p9wPpQWB8qo0opMwiNI3Pd+qWkKPuUvmb31/chOS6PZB8vIwJNCmhobdq0KFkIyXsJHZsC0U/ZlIKv/XjG73/3Gn/wvS2++zpMpdclSguCTxKQd0EK5HiX8FZOogU05ZSmOkRJQSCZut1zSdsSAsbHlHoqhmowZLS2Tn88BrE0IWKcQwTU+zsSdD92/CigS+WT8+fP63e+852Du2+DArOOMxlgI7DkRVQR2ghNgCAFdQ2tV6wIVQ5V3hVoC3X3/xS1g5umc2fy7bfuoEoXjHPUEYAaQg6LbCjX3exIcR6pc2MLe9ehV7Kpjj95veEPvn2d3/1/1/jO1chO3od+HzIw852DR7kNR4GgJizWfVPa4p0ISgjY9yBBD704IWn1Deu7i80ArgSXs1c3TPf20NAwKAx9PMf6kTPrwok1ZdDzqO7h/S6RCK4P+QjJHGqFRlvmocETU9VFA2qUQEPj9w6eytGEUTTzBEm1ZGXfrO82LLQGGpdB7zj13pyRmfHi2ZLPPXuaz1xZ58l1y3EXkHYK8+nBIxxJLDy1+63j0KKSfHrT0vP3ELRb+jwkFAl7ZDLDUuN9y8wH5mowvRHZYIKUfbxYjFOwHs8eDTvMmOKzQKxyQlnhraONhqAtUQImF1xpwEVaauq4i9cdsHOy4hBLCd2XeaAhClmL2BZo0/186ZQbYIayC2w1BtNfQ/DY5hoPFQ2/+qFL/P2X3s+l4xVF2IP654OgLJFyhdtxDwQlpXcZB8ZiugRtJ6lahxMhLRN3xYtDig6R4LAxNRMlZbwoqOh+5I0Vi104TbA4yTEUXSsPnsUd8eA7AgQhw+LIUonmNK/uYhqsQAHkGpPUAaCxRGJJz1kurMEnHq/49ccHfPqE55F8TswmxCZg44y+qSltJIohmqRwnYWG3M+66UM3hXgLpJq096t15uWdDrqwHLopzMLKj7pwEy2KqHemXidIpUSM6YqYo6mCoBFUY3pkSahq0Q6MzkelQbpA7oGgktY0JVU7MMaSdSrKtmum64RU7d0g6rCak2mB0wwTJTkE8FiTFLn3o4KQjqAOJzm2CwlMM96fBwjguluQwZLmSPsEBQqEUsG5NMIiBWIqrMmoDDyyAR+7NOazj63zCycroKHoZTgB37YEn/Rj2Fc8F5x1SxbiQbIs5nsdU+5rWw6k6wi7uPj2j5mOu+DizRSL7q925TliIigdKdGIkpIKREjPTfo+qreScvE1byHqEWr3QNDDQbpas4dpK9wOI4JzOdZmGGOxJhVoM0Bp4czxAU9fuciHr5zhhd51rmwU5FnFrHbUc8XEgLS7aKhpXYkvRzd/8IMXrx48+goPGt4Wlhwk4p3ag2+SvjsQkZT2h0mxy8alYF4NOGBcwYVTJZ/6wMP8p09f4cz8NXp4qEZATrt5jVFlKYoMH6CexVQcUcF2j2/WVnjw8LYQdIWfDdrNyWAR2N2ZdW0NrSeLyoki8qHTGf/qkx/khZMZx3Ubm0WKjePstkIwNn1KqG+b37xZW+HBw4qgDxi6JUBi0CTAtE9SxYimwt7SUtrAKIPnHxrwj557iE8/PuJCr8XEiJQjvAdDS54lyciFvXJwjrO8b4UHDyuCPmC4OV8UVBdV5rsi3MYkz6WkOk5tEDbylpcvDfjcMyf4+KURJ4uADYEMpa8tlda3+2/epK3w4OFtIehCsfpubYXbIZJy31O+vNBl6QJJC1U7DU6vMCfD4llzMz5yvuI3nnuIjz8y4Hi8wYYNlDEQ53Xykh6irfDg4W0h6Ao/G/bnhaYL4Q1QB6XVVD5lHiMtkBWOYJM8R585T68Fvvixi/yLD53leHsNv1djyrVUqOBACwe2VwR9MPG2EHSRdXK3tsLt0KjE9mZxcDFgnCStTOswrsBkKRAhxEArOcH2Mc6x5moec2/w2ceG/NpHnuH0mYfZmuotJLxltFxNQh94vC0EXeHvDhFJyQFLwT+LQJBFc2LJjSGXNNdMElQ5mIqyGPDIsSGfuNTjt580fPThFmaeXHJysdgQMH6KZRdhCrQYl5Pl1R35enCeqhyIM3iThioak8NrEfi9v734oLj4sO5mtOiDO3mW9w+cHqX7v7J8QlFT3ujyOUYlxkiISfV8v91hyvVOtcNBUQ0rgj5wEBCb6hl1m3Ruov1mSUprSfAxdFeiRaWCbECvcDx+zPGZJyp+4+kxV04OWachn9dYH7FdCZnFBeCiphTCA4OqLk7gdoretWn33zQuEVUXUUELcqa2f8wDpEzk69r+aXQk7Uqi3ELa5fdygBjx4PYSid/Btv817tJEFCTJh6xwFLH0gy+eR02jhQL9quTMyZO89MR5vvjhh3i6nDGYbWNbg9o1gqwBIzLNcXszdGfrttFzn5sr3DdodzO5a6OLyjv4ASscDaSQyi4CWpLQsAq03icZBSA3lkcmOZ8/H/mXv3COj108wQiDv15D00fydSQ4pA7Y1qfP5eZt/CBhWexb4e2HpmiyFUGPNDqPj6RaR8ZajDO0bU09nxGDJw9z1tjko1dO8KsfepSPXF5nvWxgdg2dbjNvIz7rQzXaNy/3ibkwOVekfMeh0SAxXxH06EJATXJ+aPLUYjqimnTnNSjWAIWjyj1PP1zw2Q+c4NNPjjjf30Kmr0GYUducPdsVIFs4aJZGz1umoSv8zDhozd6pxWgxsVgR9Eij+zFDVIKmLFKVlCNpu1xdjCOUfeZ+zolK+cjFkl9/ZoNPXi64NJ6Tu3lKII9JWnJxQdxC0iUP6wrvDDRCJnZF0KMOEdPlNCtBA20IhOhBIxIjHmFbSoKx5NScrVo+9HDB555/mF9++hSXjxmMmULcu2XuSUdSViR9V6DRU7jVMsvRhoCxgnUWMUKIig+eELrKAiHgm5Z63tLvD6isw8xnDGl54eJJ/sFLT/BLj63z4nHlVHWzANxi9Fx+viLp/UFy4t6+Nnpbk5peOVsR9KgiBqWpU/kYAMFgrSPPM6qqoCwKXOYoM8u4zLBBUyWMYkCR9ajE8uj6kFfe9zCfvLzGE5OkDbsi4IMBoaHM6hVBjypEOgG1RXQRkCHkWDJxmC7ZW8RRYLGLN1oD1iIKI4GnNko+e+U4v/bUCZ45WZC3u9RNiydLVR3aGXk7pcwsZP0UDJHKLu7HDaYaRF192xCQ4JEYUkjhm7B+MSInx9OBNy05pEQWfxJCV48orRAKMYJGQbDoIgNo//PeqrH//vvRlr9sem3Z6bN03GghptpUVgyKoZWM2la0bkBLRt14zhWeD03aFUGPKsQILkuV1GUpwmhR3Wk59shgkh6rKFFi8vgquOA5lgvvOzngY5eP8anLI95/LGPsIhIDMYIRg0VTnqlqusgWF5xK56i6GWYnRIwu3rt8wjcfhKVwPrqQxu5J4uaigm13PNK6LyixI+g+ESKoJmU5MB1ZFjeQu7U7pPT8HVuqw3WTrAfJu3iMZERKjBryGMnV4zT5DNoIbRQijoujgg8dX3lx33NYTlJYPBcRTvYdn7w85vMvXuAXzhSMdZdmPkerNdpizHS6SzZ7nVK3O84shrkFpdK1ijGIsylc8WeCdub7AaI/qFgEAC1G/qV/y/vVOKK1BN9i/S5DdpmwQ7/dxOxdw2nDaNjjzMl1zp4Yrwj6XsRyNtHicVLAC6csv/Xccf7hB0/wwqmckTTULdS2D9ZSxill2O6CdhdRDDcDbdM/ISI31SwOAaUbhbu2fKEfHIgfVCy+PfsWwe2ZW4qSi6ekpm12mTYNNRkx6+GynIFtOVfN+eCG530nMk6NVsss7ykcTPG77SISGJmGlx/p8xvPneYTT2ywXniY16jJIS+TvKR0mgSmUyc2nToxoBpTPHC8B2YtyHjwhaVNPSpMhWSW75vtt+6x7ZSivUFRVbB+nuuD0/wgTPjRTkBmN3huvMs/edzz0dNKz9xcl17hPYaD5IwmQ6WApuahfuTjl4Z87pmTfOzyhEk/kWNPK2pKJCYnkBC7MGBJKtbLV+Q98WmJmqr7hNzXabm3D3tXsMzFdN7dWWu3vdhvLZqVeMnZaYTtPQghst7LefLMkJfO5Lw43uN0NiUXvyLoew0HR9HFax7YAloyMMrZofKL5yt+/anjfOzSOqcHGaqOeWuQTo7exIDt9EOsJNHlVFK1q6F0D0gX84KItw2pRwBLCbwdKW/eZBYMFhpTskufeRNg5w3W66s8OdjjlUf6fOaps3zw3DpjE8A3iK7Szd6TODh6igheYRaAqgRroZ1xMpvyyqOW337hJH/v4hqnK4vzHqsBGyM2pAJlJibPbaqbb3DGYu+BoAty3srHJbIeAfN2f97ZjaMpD/amqS+kft5rYXsvUPo5j2XXeWX9Or95oeEfP5nzmUuOhyYDagY03hG4B/nBFX6+0YTArG3olSWOQLN7A0JLMVpnVwq+8ucNv/enr/FH37/O96eRqJEYF6oMqZhZqs+S1NCjQHuQXMr+8ovs74roIqZQ6couhCTCq3oz01sjJrapXnBUeuNjTDaOUw2GtFGweYYPiRD2DlbC2w1jJKmnd9UbUoJ4R1xzU21BZzMmOue5syUfPue4siGc7hkGRUZeFEmzR8EHUFahfit0yE3D2N5gb+cq0wCxt4Yp+rC9yWBvkw+fdnzumdN89LFT9MucKivIjMVo0uOMjSe0Hm0D2hHlZ8Z9+Ih3DstLKomc+2bu4qYEfPjiiP/4sdP85tNjXnqo5JFJxnrPUTqLi2C9YlqPjYEoFjuZTL786quv3nqsFd572PdyZBhX4IzFIGnUM0Ke54xKy1plGTuDTneZTlsazfBZRms9So0xDmcrhCxF/cT04dYYjEi6aGNIczPpPMCaZJMWyyy3OobSBC4FQdAt+ENW9il7fbK8IGpKXo9dnaJDjTpiANuN4jedXOn8IohirQETUQkYZ8E6WhXaqISoGKNYoxg8Vj0WRW1JY/vMNQeFifE81p/z8omGTz/U8qlzjg+eyjnbFyY5lM5gJSnMJ0NCEW56yVcm7gq3Yfmuf/D5vFVeu9Hye9+8yu/8+Q5/shm5ruAzj9BCdFhKlIyAJ4bQeXrTDSDEAN6nm4F16UXfdgRdmLgLs1ZRjQgpjBANSeQsRnqTDSYbJ6j6Q1oFm+WdiRuxC5P5LSBiQRwxBBDtnFsQYyCEgBhwzhKJtDFSuAxE8E1KRkDAZkk3MsaItB4bFJNViM0ojHIs81weeJ49HnjxJFwaQ1XkBNPl3t4FIiuCrnAHvBk5AaJG5lH5cVvwn7+2zX/54x/yZ69NoRqSjyu26y28n4LNqPIx3idZxBhDIt5ifpjEPdMk1jfvAkFTeKACIrrv3VbVREDSuQYcQS2FNhRa42gwBoLLmWUlN0zJVC1mVjOaT9kwMy6WU66sK0+d7nPlzISHjg3ILdRAEaCvqbzMW2HhvFuZuCu8KZaXZBbPjXgKU1OWJaO1Amv6zHYC11+vCT7D9B1tWYPO8bUQNclUJFtZsNbinMMiaAgQlmohwYKl+1vJ5Fs4lzpPrypZ2btp4gLGWmJnHptD+IhEkqSbMWkpJMbFeaZzNOJQFTJxlGKJTUNomhTt7Api5pirsDuvqWe7VGHG4wPlFy/0+dz7x3z60ZwXN1oeymcUBKKraLtchSzcXTV+38O+GkFXuBMOjpyL5yYEpG3YtZ5pOeCHW47//Wc1v/u/fsyf/HjK1lCZDuYQG9h1GOvSrGoxKBlDZgyESGgbgkZwKdXtnRxBF5H6Ikmw23ekcdaRZTkilhACxs9xsSG6HiHrU6swrz1+dgMbNjkzhDMbFU9sVDy9XvHwesXFibDmPH3m6cNVqCWnJcMiZJ123VthIdG5IugKd8QyMZdfM95ADSHfYlbMmVHx2lafr31X+e9ff50//ulVfsQUdVBqjhiHj0LrYxKUUZIosUaIgYASbOf/fAcJqhpRiYgYVCHGRBprLM5lqAoheNAaMS0tFdEOEOMoYmAUdzmb7fDMCcP7Tvd4bMNxpm/JihIxgghYSfrwFo8JNfgGTIba3sHTuQ0Li2VF0BXeFHciqXiBBigDc35IawOBY1xvxvzPb8N//ur3+NqPr3K9bXFZTsTQqqONXcpVBEFxGjFEoiitvPMEjTES1CcVc5uin0S65RFVgo+EGAgOYi7EuqWP4Uy/4JFxyeWJ5fJAuTQRHho6JnmDMw3qSvaCxYuAvZmrW9JAmAEZekgnESuCrnDPCKnGGBm08hM822AyIifYin2+8qc1v/u1v+SP//on/GjuaRWC7WGKPjYrQQzRt2hbI6FFDQSTxCveWYIqPkaMGPLckeUOEcX7hvl8Ttt5ln1RIrljLe7yWNXy/PGC58+OeN+JPsd7iYAxQNsG0Jqq19ufRQeN+JDyb511yXHdtcPiUEtGK6ywgAp4A3ttQM0xcnMG5/vI9DonzJxPvb/gN188y0cvH2Nc5uSqKXY3Ks458qJAnCWgeCLhDqP0OwFjHJmrQC0hJGmIqBEfPG2YY2ygP8w4W7Y8l+/yucsTvviRC/zT50/z8sOWM26LbH6DGBq8A6ksrkzkFBSjnoxA5aC0hgjMfKQO9/Z9V17cFe4JKi3B7qGuJHhDaHJcdBQZGDsjiy1rfUcxXOMqG0SEWROpQ4r39VGTNzR4jANrLfFmDM5iGF0+4tvixXW2wLmCtvWE4IkEQvC07Rzv5/T7BesbEz56tsdvnS/4hbN9Lo9gbMGqTx6vDHCK0uDUk3lNTic1tCl8gYjBCDgChTRkoocaF1dz0BX+Toi0eGpUe0RvIEAmAWdrkBYflCA5b8xzvv5aw//57g/5w+++zp9vKpv00aIPJoKfITpD1QC9m+ujMXSez7RuKhKwKLKkTIYRhqMxw7V1yuGIYC3eGNqgGFVKEYIKEQNi01w6eiS25BLJLTgRQoTNeWQaHSbP6ZeGE1XDhWrGUxuBS+uGx8cV56t+MoMtiAY0epC4r0IXidhosDgQSxTDojDLIlU2vRI6cibxqsNgRdAV7gkxRrz3t6yRLrC8NOMIqG/55o+m/M53NvnKX+/xJ9cim6GAIgNpwO8mJWEGXahRml8SPMRulJKI1W6M7Tyrxlp6gz798ZhqOMKUJbWmqbHFUIjFt56oKULICGiMxJDC8TJncHGOtFNqKYnZgOGg4uw454kNeG695tnJLheLXbA9Wia3ftE7wBiDtfcyuzwcVgRd4Z4QY0yhcG9C0H3Pb/QIgVAO+c4m/M43r/PfvvHXfP0HV6lNAf0+4gwSIrbVlA3SBTXEGFMx7thNelXBCZKD1i0g5GWf4XDEYDgmL3sgJpVbsQ5vDDrbxfkphYlkzqK2YKoZ27FkrhklNafMLqcGwuU1y+PHDJfWHWeHjrWeJbcWEciiUsa7BxYsslXuN1YEXeGeoJ3E4VsRNL0nEFVxZcUe8BdX4Q//7DV+9xvf449/cJ0dO4DRMTJjsDubGAJGA4a01OExtGR4k4NkYAKYPfARbEbZGzEaThhUIzLJCD4SfaDFE7NImTl6hSWzhhBh1gS268CcHHUFlzZKXjoN56vA0+M5T4wajpcNWAVbMZMxO0kWmVG3RvpWWET+3G+sCLrCPWFBwDtdjMsjaASCQjOfY21GKxk/3G746l9d479+4/t89SczrrYFmAKjYLUh03a/BGWISqMWbyvUVaANtFtpDlf1GYzWGA7X6Fc9rFpC44ltIHOeogc1BdNomDZK2zRkseZ4Gbl0vOT8Rp+nTlR84JgwcrCRe8a2QaTtZo6WaEpaydKM8RCe5jv1x/2AnD9/Xr/1rW+9LfbzCu8dLM8/gX1HSZjtkkWPs4Y5BT/YE/7H3+zwO3/6Gn/0/WtcnVoo1yG2ZNKSa4vEluBbmhAJkiGuQKJHmz3UZmT9Eb3JhGo4oawqjAgSIiZGnFHECjstbDfJ3zTIIg8PlQ8cE547JTy2LlzsCydzAy7rsmpsEv1WRaLHkFLOEJtG8HcJdjKZfPnzn/88g8Hg4L4VVjg0Do4gqcICFAYsLeJrMiL9fo/Jeh9xJe18j625Zxp7oEpEUHFEY1OSS0geXYsnC4G8FVxWklcDXH+AKUrUGnznITUm0Khht3WgyiSHS+uWF84UvHyx4uXzOc8fh0f7NWNTp3HeSud5telTJG3vF7yUrlLEuwQ7mUy+/Pzzz/PII48c3LfCCvcEEbk5knbrmVY0kcB7QoxYl9ErHONhybFeTtTID65Nie2M6FuiCoFEGKKCRDIJZFFwUpL3RhRra+SDEabM8UTaeobWU2hmeK8IBRfXCv7euYrPXCr47KOOj501PD7wjPIIrcdrhtgBYpLlKMQuLE8wIgQRvFhU3l2VazuZTL5cVRWvvPLKwX0rrHBHvNUcdPGYyuWmokVpbT7HZBXGOgzCwMGF9Zy1ytLMpvR0RlPPmfmAqgWbg3U4ZymcxRUV0h/jxmPceILpVagI6ltsPWNMZCMzPHGsx8cvDvj4+ZxPnBOeW/NcKKYUupfWIaXEZ0N8VhFs0q8xUZFQQ2j21yoXJvoiPO/dgpw/f14BvvKVr3Dq1KmD+1dY4TYsiHiQpMteXJGIEPBBQBxiLEa6YmFhjoQ5Ip4breWb14U/+s7f8vvfvca3rgauthW4PlhHbjyV8eRVDzc6Qcwc3mV4Itp6Ml9zzCqPrQ+5eKzHc+vwwuQNJv2CQWnJbFcKU9J5eHHMO+blJu2KUTEaMaJpPisASoykSkPdKPtu4P8D5VsGa2djvo4AAAAASUVORK5CYII=;" parent="1" vertex="1">
          <mxGeometry x="-150" y="260" width="51.1" height="50" as="geometry" />
        </mxCell>
        <mxCell id="Q2nGS0bZSRsdVv5VAE-j-28" value="&lt;b&gt;Manifest&lt;/b&gt;" style="text;html=1;align=center;verticalAlign=middle;resizable=0;points=[];autosize=1;strokeColor=none;fillColor=none;" parent="1" vertex="1">
          <mxGeometry x="-159.45" y="315" width="70" height="30" as="geometry" />
        </mxCell>
        <mxCell id="Q2nGS0bZSRsdVv5VAE-j-29" style="edgeStyle=orthogonalEdgeStyle;rounded=0;orthogonalLoop=1;jettySize=auto;html=1;entryX=0.5;entryY=1;entryDx=0;entryDy=0;entryPerimeter=0;flowAnimation=1;" parent="1" source="Q2nGS0bZSRsdVv5VAE-j-27" target="Q2nGS0bZSRsdVv5VAE-j-12" edge="1">
          <mxGeometry relative="1" as="geometry">
            <Array as="points">
              <mxPoint x="-124" y="180" />
              <mxPoint x="-254" y="180" />
            </Array>
          </mxGeometry>
        </mxCell>
        <mxCell id="Q2nGS0bZSRsdVv5VAE-j-32" value="" style="ellipse;whiteSpace=wrap;html=1;aspect=fixed;" parent="1" vertex="1">
          <mxGeometry x="70" y="770" width="320" height="320" as="geometry" />
        </mxCell>
        <mxCell id="Q2nGS0bZSRsdVv5VAE-j-39" style="edgeStyle=orthogonalEdgeStyle;rounded=0;orthogonalLoop=1;jettySize=auto;html=1;" parent="1" source="Q2nGS0bZSRsdVv5VAE-j-33" edge="1">
          <mxGeometry relative="1" as="geometry">
            <mxPoint x="160" y="990" as="targetPoint" />
          </mxGeometry>
        </mxCell>
        <mxCell id="Q2nGS0bZSRsdVv5VAE-j-33" value="" style="shape=image;html=1;verticalAlign=top;verticalLabelPosition=bottom;labelBackgroundColor=#ffffff;imageAspect=0;aspect=fixed;image=https://cdn1.iconfinder.com/data/icons/unicons-line-vol-3/24/docker-128.png" parent="1" vertex="1">
          <mxGeometry x="125" y="850" width="70" height="70" as="geometry" />
        </mxCell>
        <mxCell id="Q2nGS0bZSRsdVv5VAE-j-47" style="edgeStyle=orthogonalEdgeStyle;rounded=0;orthogonalLoop=1;jettySize=auto;html=1;" parent="1" source="Q2nGS0bZSRsdVv5VAE-j-34" edge="1">
          <mxGeometry relative="1" as="geometry">
            <mxPoint x="310" y="990" as="targetPoint" />
          </mxGeometry>
        </mxCell>
        <mxCell id="Q2nGS0bZSRsdVv5VAE-j-48" style="edgeStyle=orthogonalEdgeStyle;rounded=0;orthogonalLoop=1;jettySize=auto;html=1;entryX=0.5;entryY=1;entryDx=0;entryDy=0;" parent="1" source="Q2nGS0bZSRsdVv5VAE-j-34" target="Q2nGS0bZSRsdVv5VAE-j-41" edge="1">
          <mxGeometry relative="1" as="geometry" />
        </mxCell>
        <mxCell id="Q2nGS0bZSRsdVv5VAE-j-34" value="" style="shape=image;html=1;verticalAlign=top;verticalLabelPosition=bottom;labelBackgroundColor=#ffffff;imageAspect=0;aspect=fixed;image=https://cdn1.iconfinder.com/data/icons/unicons-line-vol-3/24/docker-128.png" parent="1" vertex="1">
          <mxGeometry x="269.76" y="850" width="70" height="70" as="geometry" />
        </mxCell>
        <mxCell id="Q2nGS0bZSRsdVv5VAE-j-36" value="" style="endArrow=none;html=1;rounded=0;exitX=0.04;exitY=0.679;exitDx=0;exitDy=0;exitPerimeter=0;entryX=0.963;entryY=0.693;entryDx=0;entryDy=0;entryPerimeter=0;" parent="1" source="Q2nGS0bZSRsdVv5VAE-j-32" target="Q2nGS0bZSRsdVv5VAE-j-32" edge="1">
          <mxGeometry width="50" height="50" relative="1" as="geometry">
            <mxPoint x="210" y="960" as="sourcePoint" />
            <mxPoint x="260" y="910" as="targetPoint" />
          </mxGeometry>
        </mxCell>
        <mxCell id="Q2nGS0bZSRsdVv5VAE-j-37" value="&lt;b&gt;nginx&lt;/b&gt;" style="text;html=1;align=center;verticalAlign=middle;resizable=0;points=[];autosize=1;strokeColor=none;fillColor=none;" parent="1" vertex="1">
          <mxGeometry x="125" y="830" width="60" height="30" as="geometry" />
        </mxCell>
        <mxCell id="Q2nGS0bZSRsdVv5VAE-j-38" value="&lt;b&gt;almalinux&lt;/b&gt;" style="text;html=1;align=center;verticalAlign=middle;resizable=0;points=[];autosize=1;strokeColor=none;fillColor=none;" parent="1" vertex="1">
          <mxGeometry x="259.76" y="830" width="80" height="30" as="geometry" />
        </mxCell>
        <mxCell id="Q2nGS0bZSRsdVv5VAE-j-40" value="&lt;b&gt;/var/log/nginx&lt;/b&gt;" style="text;html=1;align=center;verticalAlign=middle;resizable=0;points=[];autosize=1;strokeColor=none;fillColor=none;" parent="1" vertex="1">
          <mxGeometry x="120" y="998" width="100" height="30" as="geometry" />
        </mxCell>
        <mxCell id="Q2nGS0bZSRsdVv5VAE-j-41" value="&lt;b&gt;elastic search&lt;/b&gt;" style="rounded=0;whiteSpace=wrap;html=1;" parent="1" vertex="1">
          <mxGeometry x="480" y="770" width="120" height="60" as="geometry" />
        </mxCell>
        <mxCell id="Q2nGS0bZSRsdVv5VAE-j-43" style="edgeStyle=orthogonalEdgeStyle;rounded=0;orthogonalLoop=1;jettySize=auto;html=1;" parent="1" source="Q2nGS0bZSRsdVv5VAE-j-42" target="Q2nGS0bZSRsdVv5VAE-j-33" edge="1">
          <mxGeometry relative="1" as="geometry" />
        </mxCell>
        <mxCell id="Q2nGS0bZSRsdVv5VAE-j-42" value="" style="html=1;verticalLabelPosition=bottom;align=center;labelBackgroundColor=#ffffff;verticalAlign=top;strokeWidth=2;strokeColor=#0080F0;shadow=0;dashed=0;shape=mxgraph.ios7.icons.user;" parent="1" vertex="1">
          <mxGeometry x="-239.45" y="850" width="80" height="70" as="geometry" />
        </mxCell>
        <mxCell id="Q2nGS0bZSRsdVv5VAE-j-44" style="edgeStyle=orthogonalEdgeStyle;rounded=0;orthogonalLoop=1;jettySize=auto;html=1;exitX=0;exitY=0.5;exitDx=0;exitDy=0;entryX=0.146;entryY=0.5;entryDx=0;entryDy=0;entryPerimeter=0;" parent="1" source="Q2nGS0bZSRsdVv5VAE-j-34" target="Q2nGS0bZSRsdVv5VAE-j-34" edge="1">
          <mxGeometry relative="1" as="geometry" />
        </mxCell>
        <mxCell id="Q2nGS0bZSRsdVv5VAE-j-49" value="&lt;b&gt;sidecar&lt;/b&gt;" style="text;html=1;align=center;verticalAlign=middle;resizable=0;points=[];autosize=1;strokeColor=none;fillColor=none;" parent="1" vertex="1">
          <mxGeometry x="445" y="958" width="70" height="30" as="geometry" />
        </mxCell>
      </root>
    </mxGraphModel>
  </diagram>
</mxfile>
